Catamaran-Thin.ufo
<glyph name="exclam" format="2">
  <advance width="138"/>
  <unicode hex="0021"/>
  <outline>
    <contour>
      <point x="54" y="185" type="line"/>
      <point x="54" y="702" type="line"/>
      <point x="108" y="702" type="line"/>
      <point x="99" y="164" type="line"/>
    </contour>
    <contour>
      <point x="68" y="76" type="curve" smooth="yes"/>
      <point x="89" y="76"/>
      <point x="107" y="59"/>
      <point x="107" y="38" type="curve" smooth="yes"/>
      <point x="107" y="17"/>
      <point x="89" y="0"/>
      <point x="68" y="0" type="curve" smooth="yes"/>
      <point x="45" y="0"/>
      <point x="30" y="17"/>
      <point x="30" y="38" type="curve" smooth="yes"/>
      <point x="30" y="59"/>
      <point x="45" y="76"/>
    </contour>
  </outline>
</glyph>
<glyph name="numbersign" format="2">
  <advance width="497"/>
  <unicode hex="0023"/>
  <outline>
    <contour>
      <point x="380" y="502" type="line"/>
      <point x="427" y="502" type="line"/>
      <point x="394" y="371" type="line"/>
      <point x="460" y="371" type="line"/>
      <point x="467" y="332" type="line"/>
      <point x="384" y="332" type="line"/>
      <point x="346" y="179" type="line"/>
      <point x="460" y="179" type="line"/>
      <point x="467" y="140" type="line"/>
      <point x="336" y="140" type="line"/>
      <point x="301" y="0" type="line"/>
      <point x="255" y="4" type="line"/>
      <point x="289" y="140" type="line"/>
      <point x="158" y="140" type="line"/>
      <point x="123" y="0" type="line"/>
      <point x="77" y="4" type="line"/>
      <point x="111" y="140" type="line"/>
      <point x="38" y="140" type="line"/>
      <point x="30" y="179" type="line"/>
      <point x="121" y="179" type="line"/>
      <point x="159" y="332" type="line"/>
      <point x="38" y="332" type="line"/>
      <point x="30" y="371" type="line"/>
      <point x="169" y="371" type="line"/>
      <point x="202" y="502" type="line"/>
      <point x="249" y="502" type="line"/>
      <point x="216" y="371" type="line"/>
      <point x="347" y="371" type="line"/>
    </contour>
    <contour>
      <point x="337" y="332" type="line"/>
      <point x="206" y="332" type="line"/>
      <point x="168" y="179" type="line"/>
      <point x="299" y="179" type="line"/>
    </contour>
  </outline>
</glyph>
<glyph name="dollar" format="2">
  <advance width="534"/>
  <unicode hex="0024"/>
  <outline>
    <contour>
      <point x="193" y="-111" type="line"/>
      <point x="233" y="-111" type="line"/>
      <point x="233" y="-13" type="line"/>
      <point x="237" y="-13" type="line" smooth="yes"/>
      <point x="260" y="-13"/>
      <point x="281" y="-11"/>
      <point x="300" y="-8" type="curve"/>
      <point x="300" y="-111" type="line"/>
      <point x="341" y="-111" type="line"/>
      <point x="341" y="1" type="line"/>
      <point x="422" y="27"/>
      <point x="464" y="84"/>
      <point x="464" y="157" type="curve" smooth="yes"/>
      <point x="464" y="248"/>
      <point x="404" y="304"/>
      <point x="283" y="355" type="curve" smooth="yes"/>
      <point x="165" y="405"/>
      <point x="102" y="454"/>
      <point x="102" y="530" type="curve" smooth="yes"/>
      <point x="102" y="599"/>
      <point x="162" y="655"/>
      <point x="258" y="655" type="curve" smooth="yes"/>
      <point x="327" y="655"/>
      <point x="367" y="637"/>
      <point x="402" y="621" type="curve"/>
      <point x="424" y="657" type="line"/>
      <point x="402" y="668"/>
      <point x="373" y="679"/>
      <point x="341" y="686" type="curve"/>
      <point x="341" y="800" type="line"/>
      <point x="300" y="790" type="line"/>
      <point x="300" y="693" type="line"/>
      <point x="286" y="695"/>
      <point x="271" y="696"/>
      <point x="256" y="696" type="curve" smooth="yes"/>
      <point x="248" y="696"/>
      <point x="238" y="695"/>
      <point x="233" y="694" type="curve"/>
      <point x="233" y="797" type="line"/>
      <point x="193" y="787" type="line"/>
      <point x="193" y="690" type="line"/>
      <point x="103" y="671"/>
      <point x="50" y="611"/>
      <point x="50" y="535" type="curve" smooth="yes"/>
      <point x="50" y="438"/>
      <point x="114" y="379"/>
      <point x="232" y="330" type="curve" smooth="yes"/>
      <point x="353" y="280"/>
      <point x="413" y="233"/>
      <point x="413" y="160" type="curve" smooth="yes"/>
      <point x="413" y="91"/>
      <point x="351" y="29"/>
      <point x="236" y="29" type="curve" smooth="yes"/>
      <point x="169" y="29"/>
      <point x="105" y="51"/>
      <point x="70" y="68" type="curve"/>
      <point x="55" y="29" type="line"/>
      <point x="73" y="14"/>
      <point x="138" y="-3"/>
      <point x="193" y="-10" type="curve"/>
    </contour>
  </outline>
</glyph>
<glyph name="ampersand" format="2">
  <advance width="647"/>
  <unicode hex="0026"/>
  <outline>
    <contour>
      <point x="453" y="117" type="curve"/>
      <point x="242" y="310" type="line" smooth="yes"/>
      <point x="221" y="329"/>
      <point x="199" y="350"/>
      <point x="182" y="371" type="curve"/>
      <point x="125" y="330"/>
      <point x="97" y="270"/>
      <point x="97" y="202" type="curve" smooth="yes"/>
      <point x="97" y="95"/>
      <point x="193" y="28"/>
      <point x="289" y="28" type="curve" smooth="yes"/>
      <point x="357" y="28"/>
      <point x="414" y="65"/>
    </contour>
    <contour>
      <point x="582" y="0" type="line"/>
      <point x="485" y="88" type="line"/>
      <point x="440" y="27"/>
      <point x="370" y="-13"/>
      <point x="286" y="-13" type="curve" smooth="yes"/>
      <point x="154" y="-13"/>
      <point x="50" y="67"/>
      <point x="50" y="200" type="curve" smooth="yes"/>
      <point x="50" y="288"/>
      <point x="94" y="361"/>
      <point x="158" y="404" type="curve"/>
      <point x="135" y="439"/>
      <point x="121" y="477"/>
      <point x="121" y="522" type="curve" smooth="yes"/>
      <point x="121" y="617"/>
      <point x="193" y="696"/>
      <point x="290" y="696" type="curve" smooth="yes"/>
      <point x="357" y="696"/>
      <point x="410" y="676"/>
      <point x="441" y="657" type="curve"/>
      <point x="421" y="622" type="line"/>
      <point x="388" y="638"/>
      <point x="360" y="655"/>
      <point x="299" y="655" type="curve" smooth="yes"/>
      <point x="224" y="655"/>
      <point x="168" y="594"/>
      <point x="168" y="526" type="curve" smooth="yes"/>
      <point x="168" y="454"/>
      <point x="208" y="400"/>
      <point x="277" y="335" type="curve" smooth="yes"/>
      <point x="475" y="150" type="line"/>
      <point x="508" y="207"/>
      <point x="527" y="278"/>
      <point x="527" y="339" type="curve"/>
      <point x="563" y="328" type="line"/>
      <point x="563" y="256"/>
      <point x="544" y="181"/>
      <point x="507" y="120" type="curve"/>
      <point x="607" y="27" type="line"/>
    </contour>
  </outline>
</glyph>
<glyph name="parenleft" format="2">
  <advance width="239"/>
  <unicode hex="0028"/>
  <outline>
    <contour>
      <point x="209" y="-19" type="curve"/>
      <point x="169" y="-37" type="line"/>
      <point x="85" y="71"/>
      <point x="50" y="213"/>
      <point x="50" y="320" type="curve" smooth="yes"/>
      <point x="50" y="425"/>
      <point x="85" y="568"/>
      <point x="169" y="675" type="curve"/>
      <point x="209" y="657" type="line"/>
      <point x="150" y="594"/>
      <point x="101" y="417"/>
      <point x="101" y="321" type="curve" smooth="yes"/>
      <point x="101" y="224"/>
      <point x="150" y="42"/>
    </contour>
  </outline>
</glyph>
<glyph name="parenright" format="2">
  <advance width="239"/>
  <unicode hex="0029"/>
  <outline>
    <contour>
      <point x="30" y="657" type="curve"/>
      <point x="70" y="675" type="line"/>
      <point x="151" y="568"/>
      <point x="189" y="425"/>
      <point x="189" y="320" type="curve" smooth="yes"/>
      <point x="189" y="213"/>
      <point x="151" y="71"/>
      <point x="70" y="-37" type="curve"/>
      <point x="30" y="-19" type="line"/>
      <point x="87" y="42"/>
      <point x="138" y="223"/>
      <point x="138" y="319" type="curve" smooth="yes"/>
      <point x="138" y="415"/>
      <point x="87" y="594"/>
    </contour>
  </outline>
</glyph>
<glyph name="asterisk" format="2">
  <advance width="313"/>
  <unicode hex="002A"/>
  <outline>
    <contour>
      <point x="172" y="774" type="line"/>
      <point x="172" y="654" type="line"/>
      <point x="290" y="685" type="line"/>
      <point x="303" y="653" type="line"/>
      <point x="187" y="624" type="line"/>
      <point x="266" y="505" type="line"/>
      <point x="235" y="489" type="line"/>
      <point x="156" y="602" type="line"/>
      <point x="82" y="489" type="line"/>
      <point x="46" y="505" type="line"/>
      <point x="125" y="624" type="line"/>
      <point x="10" y="653" type="line"/>
      <point x="22" y="685" type="line"/>
      <point x="137" y="654" type="line"/>
      <point x="137" y="774" type="line"/>
    </contour>
  </outline>
</glyph>
<glyph name="plus" format="2">
  <advance width="527"/>
  <unicode hex="002B"/>
  <outline>
    <contour>
      <point x="487" y="292" type="line"/>
      <point x="497" y="255" type="line"/>
      <point x="287" y="255" type="line"/>
      <point x="287" y="4" type="line"/>
      <point x="238" y="8" type="line"/>
      <point x="238" y="255" type="line"/>
      <point x="38" y="255" type="line"/>
      <point x="30" y="292" type="line"/>
      <point x="238" y="292" type="line"/>
      <point x="238" y="534" type="line"/>
      <point x="287" y="531" type="line"/>
      <point x="287" y="292" type="line"/>
    </contour>
  </outline>
</glyph>
<glyph name="comma" format="2">
  <advance width="152"/>
  <unicode hex="002C"/>
  <outline>
    <contour>
      <point x="83" y="76" type="curve" smooth="yes"/>
      <point x="107" y="76"/>
      <point x="122" y="53"/>
      <point x="122" y="33" type="curve" smooth="yes"/>
      <point x="122" y="-28"/>
      <point x="92" y="-81"/>
      <point x="36" y="-108" type="curve"/>
      <point x="20" y="-83" type="line"/>
      <point x="55" y="-64"/>
      <point x="80" y="-37"/>
      <point x="81" y="-1" type="curve"/>
      <point x="57" y="-1"/>
      <point x="45" y="24"/>
      <point x="45" y="37" type="curve" smooth="yes"/>
      <point x="45" y="57"/>
      <point x="58" y="76"/>
    </contour>
  </outline>
</glyph>
<glyph name="hyphen" format="2">
  <advance width="311"/>
  <unicode hex="002D"/>
  <outline>
    <contour>
      <point x="273" y="292" type="line"/>
      <point x="281" y="253" type="line"/>
      <point x="38" y="253" type="line"/>
      <point x="30" y="292" type="line"/>
    </contour>
  </outline>
</glyph>
<glyph name="period" format="2">
  <advance width="137"/>
  <unicode hex="002E"/>
  <outline>
    <contour>
      <point x="68" y="0" type="curve" smooth="yes"/>
      <point x="45" y="0"/>
      <point x="30" y="17"/>
      <point x="30" y="38" type="curve" smooth="yes"/>
      <point x="30" y="59"/>
      <point x="45" y="76"/>
      <point x="68" y="76" type="curve" smooth="yes"/>
      <point x="89" y="76"/>
      <point x="107" y="59"/>
      <point x="107" y="38" type="curve" smooth="yes"/>
      <point x="107" y="17"/>
      <point x="89" y="0"/>
    </contour>
  </outline>
</glyph>
<glyph name="slash" format="2">
  <advance width="375"/>
  <unicode hex="002F"/>
  <outline>
    <contour>
      <point x="318" y="710" type="line"/>
      <point x="365" y="706" type="line"/>
      <point x="56" y="-4" type="line"/>
      <point x="10" y="0" type="line"/>
    </contour>
  </outline>
</glyph>
<glyph name="zero" format="2">
  <advance width="570"/>
  <unicode hex="0030"/>
  <outline>
    <contour>
      <point x="40" y="288" type="curve" smooth="yes"/>
      <point x="40" y="457"/>
      <point x="143" y="579"/>
      <point x="286" y="579" type="curve" smooth="yes"/>
      <point x="428" y="579"/>
      <point x="530" y="457"/>
      <point x="530" y="289" type="curve" smooth="yes"/>
      <point x="530" y="114"/>
      <point x="428" y="-13"/>
      <point x="286" y="-13" type="curve" smooth="yes"/>
      <point x="143" y="-13"/>
      <point x="40" y="113"/>
    </contour>
    <contour>
      <point x="91" y="291" type="curve" smooth="yes"/>
      <point x="91" y="138"/>
      <point x="173" y="28"/>
      <point x="286" y="28" type="curve" smooth="yes"/>
      <point x="398" y="28"/>
      <point x="479" y="136"/>
      <point x="479" y="286" type="curve" smooth="yes"/>
      <point x="479" y="432"/>
      <point x="398" y="538"/>
      <point x="286" y="538" type="curve" smooth="yes"/>
      <point x="173" y="538"/>
      <point x="91" y="434"/>
    </contour>
  </outline>
</glyph>
<glyph name="one" format="2">
  <advance width="300"/>
  <unicode hex="0031"/>
  <outline>
    <contour>
      <point x="220" y="0" type="line"/>
      <point x="171" y="0" type="line"/>
      <point x="171" y="508" type="line"/>
      <point x="28" y="445" type="line"/>
      <point x="10" y="481" type="line"/>
      <point x="185" y="566" type="line"/>
      <point x="220" y="566" type="line"/>
    </contour>
  </outline>
</glyph>
<glyph name="two" format="2">
  <advance width="470"/>
  <unicode hex="0032"/>
  <outline>
    <contour>
      <point x="219" y="579" type="curve" smooth="yes"/>
      <point x="335" y="579"/>
      <point x="419" y="511"/>
      <point x="419" y="418" type="curve" smooth="yes"/>
      <point x="419" y="343"/>
      <point x="369" y="276"/>
      <point x="270" y="196" type="curve" smooth="yes"/>
      <point x="75" y="39" type="line"/>
      <point x="442" y="39" type="line"/>
      <point x="450" y="0" type="line"/>
      <point x="25" y="0" type="line"/>
      <point x="25" y="50" type="line"/>
      <point x="250" y="238" type="line" smooth="yes"/>
      <point x="340" y="313"/>
      <point x="367" y="352"/>
      <point x="367" y="417" type="curve" smooth="yes"/>
      <point x="367" y="488"/>
      <point x="304" y="539"/>
      <point x="217" y="539" type="curve" smooth="yes"/>
      <point x="144" y="539"/>
      <point x="95" y="513"/>
      <point x="60" y="493" type="curve"/>
      <point x="38" y="527" type="line"/>
      <point x="75" y="549"/>
      <point x="134" y="579"/>
    </contour>
  </outline>
</glyph>
<glyph name="three" format="2">
  <advance width="447"/>
  <unicode hex="0033"/>
  <outline>
    <contour>
      <point x="205" y="579" type="curve" smooth="yes"/>
      <point x="329" y="579"/>
      <point x="390" y="501"/>
      <point x="390" y="417" type="curve" smooth="yes"/>
      <point x="390" y="345"/>
      <point x="339" y="288"/>
      <point x="276" y="268" type="curve"/>
      <point x="351" y="251"/>
      <point x="402" y="187"/>
      <point x="402" y="106" type="curve" smooth="yes"/>
      <point x="402" y="3"/>
      <point x="319" y="-76"/>
      <point x="190" y="-76" type="curve" smooth="yes"/>
      <point x="115" y="-76"/>
      <point x="45" y="-49"/>
      <point x="0" y="-24" type="curve"/>
      <point x="33" y="10" type="line"/>
      <point x="80" y="-18"/>
      <point x="120" y="-35"/>
      <point x="193" y="-35" type="curve" smooth="yes"/>
      <point x="273" y="-35"/>
      <point x="351" y="23"/>
      <point x="351" y="104" type="curve" smooth="yes"/>
      <point x="351" y="189"/>
      <point x="293" y="247"/>
      <point x="154" y="247" type="curve" smooth="yes"/>
      <point x="136" y="247" type="line"/>
      <point x="126" y="286" type="line"/>
      <point x="160" y="286" type="line" smooth="yes"/>
      <point x="272" y="286"/>
      <point x="339" y="340"/>
      <point x="339" y="416" type="curve" smooth="yes"/>
      <point x="339" y="475"/>
      <point x="286" y="538"/>
      <point x="202" y="538" type="curve" smooth="yes"/>
      <point x="130" y="538"/>
      <point x="74" y="510"/>
      <point x="42" y="489" type="curve"/>
      <point x="11" y="520" type="line"/>
      <point x="63" y="553"/>
      <point x="125" y="579"/>
    </contour>
  </outline>
</glyph>
<glyph name="four" format="2">
  <advance width="512"/>
  <unicode hex="0034"/>
  <outline>
    <contour>
      <point x="492" y="113" type="line"/>
      <point x="484" y="74" type="line"/>
      <point x="375" y="74" type="line"/>
      <point x="375" y="-69" type="line"/>
      <point x="326" y="-69" type="line"/>
      <point x="326" y="74" type="line"/>
      <point x="19" y="74" type="line"/>
      <point x="10" y="125" type="line"/>
      <point x="347" y="571" type="line"/>
      <point x="375" y="571" type="line"/>
      <point x="375" y="113" type="line"/>
    </contour>
    <contour>
      <point x="326" y="470" type="line"/>
      <point x="60" y="113" type="line"/>
      <point x="326" y="113" type="line"/>
    </contour>
  </outline>
</glyph>
<glyph name="five" format="2">
  <advance width="491"/>
  <unicode hex="0035"/>
  <outline>
    <contour>
      <point x="116" y="230" type="curve"/>
      <point x="80" y="230" type="line"/>
      <point x="95" y="566" type="line"/>
      <point x="412" y="566" type="line"/>
      <point x="409" y="527" type="line"/>
      <point x="140" y="527" type="line"/>
      <point x="129" y="289" type="line"/>
      <point x="165" y="316"/>
      <point x="210" y="330"/>
      <point x="243" y="330" type="curve" smooth="yes"/>
      <point x="390" y="330"/>
      <point x="451" y="238"/>
      <point x="451" y="130" type="curve" smooth="yes"/>
      <point x="451" y="19"/>
      <point x="371" y="-76"/>
      <point x="220" y="-76" type="curve" smooth="yes"/>
      <point x="147" y="-76"/>
      <point x="87" y="-51"/>
      <point x="40" y="-26" type="curve"/>
      <point x="64" y="10" type="line"/>
      <point x="111" y="-18"/>
      <point x="163" y="-35"/>
      <point x="224" y="-35" type="curve" smooth="yes"/>
      <point x="336" y="-35"/>
      <point x="399" y="34"/>
      <point x="399" y="130" type="curve" smooth="yes"/>
      <point x="399" y="226"/>
      <point x="339" y="289"/>
      <point x="247" y="289" type="curve" smooth="yes"/>
      <point x="194" y="289"/>
      <point x="143" y="259"/>
    </contour>
  </outline>
</glyph>
<glyph name="six" format="2">
  <advance width="492"/>
  <unicode hex="0036"/>
  <outline>
    <contour>
      <point x="65" y="285" type="line"/>
      <point x="94" y="322"/>
      <point x="151" y="387"/>
      <point x="253" y="387" type="curve" smooth="yes"/>
      <point x="381" y="387"/>
      <point x="452" y="291"/>
      <point x="452" y="190" type="curve" smooth="yes"/>
      <point x="452" y="86"/>
      <point x="371" y="-13"/>
      <point x="254" y="-13" type="curve" smooth="yes"/>
      <point x="127" y="-13"/>
      <point x="40" y="83"/>
      <point x="40" y="260" type="curve" smooth="yes"/>
      <point x="40" y="485"/>
      <point x="214" y="613"/>
      <point x="375" y="634" type="curve"/>
      <point x="393" y="594" type="line"/>
      <point x="263" y="588"/>
      <point x="87" y="462"/>
      <point x="87" y="270" type="curve" smooth="yes"/>
      <point x="87" y="116"/>
      <point x="145" y="28"/>
      <point x="252" y="28" type="curve" smooth="yes"/>
      <point x="347" y="28"/>
      <point x="401" y="109"/>
      <point x="401" y="185" type="curve" smooth="yes"/>
      <point x="401" y="274"/>
      <point x="346" y="346"/>
      <point x="253" y="346" type="curve" smooth="yes"/>
      <point x="180" y="346"/>
      <point x="111" y="295"/>
      <point x="82" y="248" type="curve"/>
    </contour>
  </outline>
</glyph>
<glyph name="seven" format="2">
  <advance width="429"/>
  <unicode hex="0037"/>
  <outline>
    <contour>
      <point x="169" y="-69" type="line"/>
      <point x="123" y="-49" type="line"/>
      <point x="360" y="527" type="line"/>
      <point x="18" y="527" type="line"/>
      <point x="10" y="566" type="line"/>
      <point x="387" y="566" type="line"/>
      <point x="409" y="537" type="line"/>
    </contour>
  </outline>
</glyph>
<glyph name="eight" format="2">
  <advance width="501"/>
  <unicode hex="0038"/>
  <outline>
    <contour>
      <point x="251" y="643" type="curve" smooth="yes"/>
      <point x="380" y="643"/>
      <point x="433" y="560"/>
      <point x="433" y="481" type="curve" smooth="yes"/>
      <point x="433" y="413"/>
      <point x="378" y="363"/>
      <point x="325" y="339" type="curve"/>
      <point x="396" y="322"/>
      <point x="461" y="253"/>
      <point x="461" y="169" type="curve" smooth="yes"/>
      <point x="461" y="73"/>
      <point x="392" y="-13"/>
      <point x="251" y="-13" type="curve" smooth="yes"/>
      <point x="108" y="-13"/>
      <point x="40" y="69"/>
      <point x="40" y="169" type="curve" smooth="yes"/>
      <point x="40" y="241"/>
      <point x="101" y="322"/>
      <point x="177" y="339" type="curve"/>
      <point x="116" y="363"/>
      <point x="68" y="414"/>
      <point x="68" y="481" type="curve" smooth="yes"/>
      <point x="68" y="565"/>
      <point x="123" y="643"/>
    </contour>
    <contour>
      <point x="248" y="602" type="curve" smooth="yes"/>
      <point x="159" y="602"/>
      <point x="118" y="543"/>
      <point x="118" y="484" type="curve" smooth="yes"/>
      <point x="118" y="428"/>
      <point x="166" y="372"/>
      <point x="251" y="360" type="curve"/>
      <point x="335" y="372"/>
      <point x="384" y="431"/>
      <point x="384" y="484" type="curve" smooth="yes"/>
      <point x="384" y="545"/>
      <point x="341" y="602"/>
    </contour>
    <contour>
      <point x="251" y="316" type="curve"/>
      <point x="144" y="303"/>
      <point x="91" y="238"/>
      <point x="91" y="162" type="curve" smooth="yes"/>
      <point x="91" y="86"/>
      <point x="160" y="28"/>
      <point x="251" y="28" type="curve" smooth="yes"/>
      <point x="338" y="28"/>
      <point x="410" y="85"/>
      <point x="410" y="162" type="curve" smooth="yes"/>
      <point x="410" y="238"/>
      <point x="356" y="303"/>
    </contour>
  </outline>
</glyph>
<glyph name="nine" format="2">
  <advance width="492"/>
  <unicode hex="0039"/>
  <outline>
    <contour>
      <point x="427" y="280" type="line"/>
      <point x="398" y="243"/>
      <point x="341" y="178"/>
      <point x="239" y="178" type="curve" smooth="yes"/>
      <point x="111" y="178"/>
      <point x="40" y="274"/>
      <point x="40" y="375" type="curve" smooth="yes"/>
      <point x="40" y="479"/>
      <point x="121" y="578"/>
      <point x="238" y="578" type="curve" smooth="yes"/>
      <point x="365" y="578"/>
      <point x="452" y="482"/>
      <point x="452" y="305" type="curve" smooth="yes"/>
      <point x="452" y="80"/>
      <point x="278" y="-48"/>
      <point x="117" y="-69" type="curve"/>
      <point x="99" y="-29" type="line"/>
      <point x="229" y="-23"/>
      <point x="405" y="103"/>
      <point x="405" y="295" type="curve" smooth="yes"/>
      <point x="405" y="449"/>
      <point x="347" y="537"/>
      <point x="240" y="537" type="curve" smooth="yes"/>
      <point x="145" y="537"/>
      <point x="91" y="456"/>
      <point x="91" y="380" type="curve" smooth="yes"/>
      <point x="91" y="291"/>
      <point x="146" y="219"/>
      <point x="239" y="219" type="curve" smooth="yes"/>
      <point x="312" y="219"/>
      <point x="381" y="270"/>
      <point x="410" y="317" type="curve"/>
    </contour>
  </outline>
</glyph>
<glyph name="colon" format="2">
  <advance width="137"/>
  <unicode hex="003A"/>
  <outline>
    <contour>
      <point x="68" y="365" type="curve" smooth="yes"/>
      <point x="45" y="365"/>
      <point x="30" y="382"/>
      <point x="30" y="403" type="curve" smooth="yes"/>
      <point x="30" y="424"/>
      <point x="45" y="441"/>
      <point x="68" y="441" type="curve" smooth="yes"/>
      <point x="89" y="441"/>
      <point x="107" y="424"/>
      <point x="107" y="403" type="curve" smooth="yes"/>
      <point x="107" y="382"/>
      <point x="89" y="365"/>
    </contour>
    <contour>
      <point x="68" y="46" type="curve" smooth="yes"/>
      <point x="45" y="46"/>
      <point x="30" y="63"/>
      <point x="30" y="84" type="curve" smooth="yes"/>
      <point x="30" y="105"/>
      <point x="45" y="122"/>
      <point x="68" y="122" type="curve" smooth="yes"/>
      <point x="89" y="122"/>
      <point x="107" y="105"/>
      <point x="107" y="84" type="curve" smooth="yes"/>
      <point x="107" y="63"/>
      <point x="89" y="46"/>
    </contour>
  </outline>
</glyph>
<glyph name="semicolon" format="2">
  <advance width="152"/>
  <unicode hex="003B"/>
  <outline>
    <contour>
      <point x="83" y="365" type="curve" smooth="yes"/>
      <point x="60" y="365"/>
      <point x="45" y="382"/>
      <point x="45" y="403" type="curve" smooth="yes"/>
      <point x="45" y="424"/>
      <point x="60" y="441"/>
      <point x="83" y="441" type="curve" smooth="yes"/>
      <point x="104" y="441"/>
      <point x="122" y="424"/>
      <point x="122" y="403" type="curve" smooth="yes"/>
      <point x="122" y="382"/>
      <point x="104" y="365"/>
    </contour>
    <contour>
      <point x="83" y="122" type="curve" smooth="yes"/>
      <point x="107" y="122"/>
      <point x="122" y="99"/>
      <point x="122" y="79" type="curve" smooth="yes"/>
      <point x="122" y="18"/>
      <point x="92" y="-35"/>
      <point x="36" y="-62" type="curve"/>
      <point x="20" y="-37" type="line"/>
      <point x="55" y="-18"/>
      <point x="80" y="9"/>
      <point x="81" y="45" type="curve"/>
      <point x="57" y="45"/>
      <point x="45" y="70"/>
      <point x="45" y="83" type="curve" smooth="yes"/>
      <point x="45" y="103"/>
      <point x="58" y="122"/>
    </contour>
  </outline>
</glyph>
<glyph name="less" format="2">
  <advance width="322"/>
  <unicode hex="003C"/>
  <outline>
    <contour>
      <point x="302" y="54" type="line"/>
      <point x="279" y="19" type="line"/>
      <point x="30" y="231" type="line"/>
      <point x="30" y="259" type="line"/>
      <point x="279" y="470" type="line"/>
      <point x="302" y="436" type="line"/>
      <point x="76" y="245" type="line"/>
    </contour>
  </outline>
</glyph>
<glyph name="equal" format="2">
  <advance width="497"/>
  <unicode hex="003D"/>
  <outline>
    <contour>
      <point x="460" y="371" type="line"/>
      <point x="467" y="332" type="line"/>
      <point x="38" y="332" type="line"/>
      <point x="30" y="371" type="line"/>
    </contour>
    <contour>
      <point x="460" y="179" type="line"/>
      <point x="467" y="140" type="line"/>
      <point x="38" y="140" type="line"/>
      <point x="30" y="179" type="line"/>
    </contour>
  </outline>
</glyph>
<glyph name="greater" format="2">
  <advance width="322"/>
  <unicode hex="003E"/>
  <outline>
    <contour>
      <point x="292" y="258" type="line"/>
      <point x="292" y="230" type="line"/>
      <point x="43" y="19" type="line"/>
      <point x="20" y="53" type="line"/>
      <point x="246" y="244" type="line"/>
      <point x="20" y="435" type="line"/>
      <point x="43" y="470" type="line"/>
    </contour>
  </outline>
</glyph>
<glyph name="question" format="2">
  <advance width="392"/>
  <unicode hex="003F"/>
  <outline>
    <contour>
      <point x="186" y="702" type="curve" smooth="yes"/>
      <point x="305" y="702"/>
      <point x="362" y="634"/>
      <point x="362" y="538" type="curve" smooth="yes"/>
      <point x="362" y="462"/>
      <point x="300" y="381"/>
      <point x="189" y="332" type="curve"/>
      <point x="179" y="137" type="line"/>
      <point x="146" y="158" type="line"/>
      <point x="139" y="363" type="line"/>
      <point x="243" y="396"/>
      <point x="309" y="461"/>
      <point x="309" y="537" type="curve" smooth="yes"/>
      <point x="309" y="617"/>
      <point x="260" y="661"/>
      <point x="184" y="661" type="curve" smooth="yes"/>
      <point x="112" y="661"/>
      <point x="70" y="637"/>
      <point x="18" y="600" type="curve"/>
      <point x="10" y="641" type="line"/>
      <point x="45" y="672"/>
      <point x="107" y="702"/>
    </contour>
    <contour>
      <point x="154" y="76" type="curve" smooth="yes"/>
      <point x="175" y="76"/>
      <point x="193" y="59"/>
      <point x="193" y="38" type="curve" smooth="yes"/>
      <point x="193" y="17"/>
      <point x="175" y="0"/>
      <point x="154" y="0" type="curve" smooth="yes"/>
      <point x="131" y="0"/>
      <point x="116" y="17"/>
      <point x="116" y="38" type="curve" smooth="yes"/>
      <point x="116" y="59"/>
      <point x="131" y="76"/>
    </contour>
  </outline>
</glyph>
<glyph name="at" format="2">
  <advance width="760"/>
  <unicode hex="0040"/>
  <outline>
    <contour>
      <point x="527" y="384" type="line"/>
      <point x="503" y="183" type="line" smooth="yes"/>
      <point x="496" y="125"/>
      <point x="519" y="102"/>
      <point x="560" y="102" type="curve" smooth="yes"/>
      <point x="621" y="102"/>
      <point x="672" y="165"/>
      <point x="672" y="297" type="curve" smooth="yes"/>
      <point x="672" y="449"/>
      <point x="575" y="553"/>
      <point x="414" y="553" type="curve" smooth="yes"/>
      <point x="227" y="553"/>
      <point x="91" y="418"/>
      <point x="91" y="214" type="curve" smooth="yes"/>
      <point x="91" y="47"/>
      <point x="210" y="-55"/>
      <point x="359" y="-55" type="curve" smooth="yes"/>
      <point x="416" y="-55"/>
      <point x="481" y="-43"/>
      <point x="522" y="-20" type="curve"/>
      <point x="535" y="-58" type="line"/>
      <point x="479" y="-87"/>
      <point x="413" y="-96"/>
      <point x="348" y="-96" type="curve" smooth="yes"/>
      <point x="184" y="-96"/>
      <point x="40" y="21"/>
      <point x="40" y="213" type="curve" smooth="yes"/>
      <point x="40" y="420"/>
      <point x="174" y="594"/>
      <point x="417" y="594" type="curve" smooth="yes"/>
      <point x="597" y="594"/>
      <point x="720" y="471"/>
      <point x="720" y="304" type="curve" smooth="yes"/>
      <point x="720" y="145"/>
      <point x="658" y="61"/>
      <point x="558" y="61" type="curve" smooth="yes"/>
      <point x="522" y="61"/>
      <point x="495" y="76"/>
      <point x="478" y="99" type="curve"/>
      <point x="453" y="80"/>
      <point x="415" y="66"/>
      <point x="384" y="66" type="curve" smooth="yes"/>
      <point x="291" y="66"/>
      <point x="227" y="126"/>
      <point x="227" y="211" type="curve" smooth="yes"/>
      <point x="227" y="323"/>
      <point x="324" y="404"/>
      <point x="440" y="404" type="curve" smooth="yes"/>
      <point x="511" y="404" type="line"/>
    </contour>
    <contour>
      <point x="384" y="103" type="curve" smooth="yes"/>
      <point x="413" y="103"/>
      <point x="445" y="113"/>
      <point x="462" y="125" type="curve"/>
      <point x="453" y="147"/>
      <point x="455" y="171"/>
      <point x="457" y="190" type="curve" smooth="yes"/>
      <point x="480" y="367" type="line"/>
      <point x="435" y="367" type="line" smooth="yes"/>
      <point x="351" y="367"/>
      <point x="278" y="307"/>
      <point x="278" y="211" type="curve" smooth="yes"/>
      <point x="278" y="143"/>
      <point x="320" y="103"/>
    </contour>
  </outline>
</glyph>
<glyph name="A" format="2">
  <advance width="572"/>
  <unicode hex="0041"/>
  <anchor x="538" y="8" name="bottom"/>
  <anchor x="281" y="680" name="topU"/>
  <outline>
    <contour>
      <point x="417" y="252" type="line"/>
      <point x="281" y="614" type="line"/>
      <point x="150" y="252" type="line"/>
    </contour>
    <contour>
      <point x="257" y="680" type="line"/>
      <point x="303" y="680" type="line"/>
      <point x="562" y="5" type="line"/>
      <point x="512" y="-6" type="line"/>
      <point x="431" y="213" type="line"/>
      <point x="136" y="213" type="line"/>
      <point x="59" y="0" type="line"/>
      <point x="10" y="0" type="line"/>
    </contour>
  </outline>
</glyph>
<glyph name="B" format="2">
  <advance width="565"/>
  <unicode hex="0042"/>
  <outline>
    <contour>
      <point x="269" y="0" type="curve" smooth="yes"/>
      <point x="100" y="0" type="line"/>
      <point x="100" y="680" type="line"/>
      <point x="242" y="680" type="line" smooth="yes"/>
      <point x="385" y="680"/>
      <point x="487" y="639"/>
      <point x="487" y="503" type="curve" smooth="yes"/>
      <point x="487" y="435"/>
      <point x="441" y="389"/>
      <point x="386" y="362" type="curve"/>
      <point x="469" y="337"/>
      <point x="525" y="283"/>
      <point x="525" y="188" type="curve" smooth="yes"/>
      <point x="525" y="45"/>
      <point x="409" y="0"/>
    </contour>
    <contour>
      <point x="254" y="641" type="curve" smooth="yes"/>
      <point x="150" y="641" type="line"/>
      <point x="150" y="372" type="line"/>
      <point x="241" y="372" type="line" smooth="yes"/>
      <point x="345" y="373"/>
      <point x="435" y="406"/>
      <point x="435" y="502" type="curve" smooth="yes"/>
      <point x="435" y="606"/>
      <point x="363" y="641"/>
    </contour>
    <contour>
      <point x="292" y="333" type="curve" smooth="yes"/>
      <point x="150" y="333" type="line"/>
      <point x="150" y="39" type="line"/>
      <point x="281" y="39" type="line" smooth="yes"/>
      <point x="388" y="39"/>
      <point x="473" y="81"/>
      <point x="473" y="186" type="curve" smooth="yes"/>
      <point x="473" y="287"/>
      <point x="401" y="333"/>
    </contour>
  </outline>
</glyph>
<glyph name="C" format="2">
  <advance width="553"/>
  <unicode hex="0043"/>
  <anchor x="354" y="0" name="bottom"/>
  <anchor x="360" y="680" name="topU"/>
  <outline>
    <contour>
      <point x="523" y="657" type="curve"/>
      <point x="503" y="621" type="line"/>
      <point x="462" y="638"/>
      <point x="430" y="651"/>
      <point x="358" y="651" type="curve" smooth="yes"/>
      <point x="215" y="650"/>
      <point x="105" y="529"/>
      <point x="105" y="337" type="curve" smooth="yes"/>
      <point x="105" y="174"/>
      <point x="194" y="29"/>
      <point x="349" y="29" type="curve" smooth="yes"/>
      <point x="421" y="29"/>
      <point x="463" y="43"/>
      <point x="499" y="59" type="curve"/>
      <point x="523" y="23" type="line"/>
      <point x="486" y="3"/>
      <point x="411" y="-14"/>
      <point x="354" y="-14" type="curve" smooth="yes"/>
      <point x="146" y="-14"/>
      <point x="50" y="151"/>
      <point x="50" y="336" type="curve" smooth="yes"/>
      <point x="50" y="535"/>
      <point x="164" y="694"/>
      <point x="360" y="694" type="curve" smooth="yes"/>
      <point x="401" y="694"/>
      <point x="486" y="682"/>
    </contour>
  </outline>
</glyph>
<glyph name="E" format="2">
  <advance width="495"/>
  <unicode hex="0045"/>
  <anchor x="380" y="0" name="bottom"/>
  <anchor x="275" y="680" name="topU"/>
  <outline>
    <contour>
      <point x="475" y="0" type="line"/>
      <point x="100" y="0" type="line"/>
      <point x="100" y="680" type="line"/>
      <point x="447" y="680" type="line"/>
      <point x="452" y="641" type="line"/>
      <point x="149" y="641" type="line"/>
      <point x="149" y="368" type="line"/>
      <point x="389" y="368" type="line"/>
      <point x="394" y="329" type="line"/>
      <point x="149" y="329" type="line"/>
      <point x="149" y="39" type="line"/>
      <point x="469" y="39" type="line"/>
    </contour>
  </outline>
</glyph>
<glyph name="F" format="2">
  <advance width="463"/>
  <unicode hex="0046"/>
  <outline>
    <contour>
      <point x="378" y="364" type="line"/>
      <point x="384" y="325" type="line"/>
      <point x="149" y="325" type="line"/>
      <point x="149" y="0" type="line"/>
      <point x="100" y="0" type="line"/>
      <point x="100" y="680" type="line"/>
      <point x="436" y="680" type="line"/>
      <point x="443" y="641" type="line"/>
      <point x="149" y="641" type="line"/>
      <point x="149" y="364" type="line"/>
    </contour>
  </outline>
</glyph>
<glyph name="G" format="2">
  <advance width="614"/>
  <unicode hex="0047"/>
  <anchor x="382" y="0" name="bottom"/>
  <anchor x="388" y="680" name="topU"/>
  <outline>
    <contour>
      <point x="350" y="303" type="line"/>
      <point x="356" y="342" type="line"/>
      <point x="552" y="342" type="line"/>
      <point x="552" y="31" type="line"/>
      <point x="515" y="6"/>
      <point x="439" y="-14"/>
      <point x="382" y="-14" type="curve" smooth="yes"/>
      <point x="175" y="-14"/>
      <point x="50" y="137"/>
      <point x="50" y="336" type="curve" smooth="yes"/>
      <point x="50" y="544"/>
      <point x="193" y="694"/>
      <point x="388" y="694" type="curve" smooth="yes"/>
      <point x="429" y="694"/>
      <point x="517" y="682"/>
      <point x="554" y="657" type="curve"/>
      <point x="535" y="624" type="line"/>
      <point x="494" y="641"/>
      <point x="461" y="653"/>
      <point x="390" y="653" type="curve" smooth="yes"/>
      <point x="225" y="653"/>
      <point x="105" y="520"/>
      <point x="105" y="336" type="curve" smooth="yes"/>
      <point x="105" y="158"/>
      <point x="221" y="29"/>
      <point x="381" y="29" type="curve" smooth="yes"/>
      <point x="429" y="29"/>
      <point x="470" y="40"/>
      <point x="503" y="52" type="curve"/>
      <point x="503" y="303" type="line"/>
    </contour>
  </outline>
</glyph>
<glyph name="H" format="2">
  <advance width="655"/>
  <unicode hex="0048"/>
  <outline>
    <contour>
      <point x="555" y="0" type="line"/>
      <point x="506" y="0" type="line"/>
      <point x="506" y="325" type="line"/>
      <point x="149" y="325" type="line"/>
      <point x="149" y="0" type="line"/>
      <point x="100" y="0" type="line"/>
      <point x="100" y="680" type="line"/>
      <point x="149" y="685" type="line"/>
      <point x="149" y="364" type="line"/>
      <point x="506" y="364" type="line"/>
      <point x="506" y="680" type="line"/>
      <point x="555" y="680" type="line"/>
    </contour>
  </outline>
</glyph>
<glyph name="I" format="2">
  <advance width="249"/>
  <unicode hex="0049"/>
  <anchor x="125" y="0" name="bottom"/>
  <anchor x="125" y="680" name="topU"/>
  <outline>
    <contour>
      <point x="149" y="0" type="line"/>
      <point x="100" y="0" type="line"/>
      <point x="100" y="680" type="line"/>
      <point x="149" y="680" type="line"/>
    </contour>
  </outline>
</glyph>
<glyph name="J" format="2">
  <advance width="237"/>
  <unicode hex="004A"/>
  <outline>
    <contour>
      <point x="98" y="49" type="curve" smooth="yes"/>
      <point x="98" y="680" type="line"/>
      <point x="147" y="680" type="line"/>
      <point x="147" y="42" type="line" smooth="yes"/>
      <point x="147" y="-38"/>
      <point x="130" y="-73"/>
      <point x="34" y="-102" type="curve"/>
      <point x="10" y="-70" type="line"/>
      <point x="77" y="-45"/>
      <point x="98" y="-31"/>
    </contour>
  </outline>
</glyph>
<glyph name="K" format="2">
  <advance width="580"/>
  <unicode hex="004B"/>
  <anchor x="332" y="0" name="bottom"/>
  <outline>
    <contour>
      <point x="508" y="0" type="line"/>
      <point x="570" y="0" type="line"/>
      <point x="269" y="397" type="line"/>
      <point x="519" y="663" type="line"/>
      <point x="485" y="695" type="line"/>
      <point x="149" y="325" type="line"/>
      <point x="149" y="680" type="line"/>
      <point x="100" y="680" type="line"/>
      <point x="100" y="0" type="line"/>
      <point x="149" y="0" type="line"/>
      <point x="149" y="269" type="line"/>
      <point x="236" y="362" type="line"/>
    </contour>
  </outline>
</glyph>
<glyph name="L" format="2">
  <advance width="491"/>
  <unicode hex="004C"/>
  <anchor x="306" y="0" name="bottom"/>
  <anchor x="169" y="680" name="topU"/>
  <outline>
    <contour>
      <point x="476" y="39" type="line"/>
      <point x="481" y="0" type="line"/>
      <point x="100" y="0" type="line"/>
      <point x="100" y="680" type="line"/>
      <point x="149" y="680" type="line"/>
      <point x="149" y="39" type="line"/>
    </contour>
  </outline>
</glyph>
<glyph name="M" format="2">
  <advance width="723"/>
  <unicode hex="004D"/>
  <outline>
    <contour>
      <point x="373" y="249" type="line"/>
      <point x="353" y="245" type="line"/>
      <point x="149" y="561" type="line"/>
      <point x="149" y="0" type="line"/>
      <point x="100" y="0" type="line"/>
      <point x="100" y="680" type="line"/>
      <point x="122" y="680" type="line"/>
      <point x="361" y="318" type="line"/>
      <point x="596" y="680" type="line"/>
      <point x="623" y="680" type="line"/>
      <point x="623" y="0" type="line"/>
      <point x="574" y="0" type="line"/>
      <point x="574" y="566" type="line"/>
    </contour>
  </outline>
</glyph>
<glyph name="N" format="2">
  <advance width="658"/>
  <unicode hex="004E"/>
  <anchor x="348" y="0" name="bottom"/>
  <anchor x="330" y="680" name="topU"/>
  <outline>
    <contour>
      <point x="149" y="0" type="line"/>
      <point x="100" y="0" type="line"/>
      <point x="100" y="680" type="line"/>
      <point x="128" y="680" type="line"/>
      <point x="475" y="170" type="line"/>
      <point x="509" y="111" type="line"/>
      <point x="509" y="680" type="line"/>
      <point x="558" y="680" type="line"/>
      <point x="558" y="0" type="line"/>
      <point x="531" y="0" type="line"/>
      <point x="163" y="545" type="line"/>
      <point x="149" y="574" type="line"/>
    </contour>
  </outline>
</glyph>
<glyph name="O" format="2">
  <advance width="707"/>
  <unicode hex="004F"/>
  <anchor x="357" y="680" name="topU"/>
  <outline>
    <contour>
      <point x="357" y="696" type="curve" smooth="yes"/>
      <point x="531" y="696"/>
      <point x="657" y="549"/>
      <point x="657" y="345" type="curve" smooth="yes"/>
      <point x="657" y="137"/>
      <point x="528" y="-14"/>
      <point x="351" y="-14" type="curve" smooth="yes"/>
      <point x="176" y="-14"/>
      <point x="50" y="133"/>
      <point x="50" y="337" type="curve" smooth="yes"/>
      <point x="50" y="545"/>
      <point x="179" y="696"/>
    </contour>
    <contour>
      <point x="105" y="338" type="curve" smooth="yes"/>
      <point x="105" y="158"/>
      <point x="207" y="27"/>
      <point x="349" y="27" type="curve" smooth="yes"/>
      <point x="496" y="27"/>
      <point x="602" y="160"/>
      <point x="602" y="344" type="curve" smooth="yes"/>
      <point x="602" y="524"/>
      <point x="500" y="654"/>
      <point x="358" y="654" type="curve" smooth="yes"/>
      <point x="211" y="654"/>
      <point x="105" y="521"/>
    </contour>
  </outline>
</glyph>
<glyph name="P" format="2">
  <advance width="548"/>
  <unicode hex="0050"/>
  <outline>
    <contour>
      <point x="149" y="0" type="line"/>
      <point x="100" y="0" type="line"/>
      <point x="100" y="680" type="line"/>
      <point x="263" y="680" type="line" smooth="yes"/>
      <point x="404" y="680"/>
      <point x="508" y="623"/>
      <point x="508" y="475" type="curve" smooth="yes"/>
      <point x="508" y="328"/>
      <point x="393" y="264"/>
      <point x="252" y="264" type="curve" smooth="yes"/>
      <point x="149" y="264" type="line"/>
    </contour>
    <contour>
      <point x="275" y="640" type="curve" smooth="yes"/>
      <point x="149" y="640" type="line"/>
      <point x="149" y="303" type="line"/>
      <point x="264" y="303" type="line" smooth="yes"/>
      <point x="371" y="303"/>
      <point x="458" y="361"/>
      <point x="458" y="474" type="curve" smooth="yes"/>
      <point x="458" y="591"/>
      <point x="384" y="640"/>
    </contour>
  </outline>
</glyph>
<glyph name="R" format="2">
  <advance width="572"/>
  <unicode hex="0052"/>
  <anchor x="329" y="0" name="bottom"/>
  <anchor x="263" y="680" name="topU"/>
  <outline>
    <contour>
      <point x="265" y="640" type="curve" smooth="yes"/>
      <point x="149" y="640" type="line"/>
      <point x="149" y="325" type="line"/>
      <point x="254" y="325" type="line" smooth="yes"/>
      <point x="355" y="325"/>
      <point x="458" y="371"/>
      <point x="458" y="484" type="curve" smooth="yes"/>
      <point x="458" y="600"/>
      <point x="369" y="640"/>
    </contour>
    <contour>
      <point x="100" y="680" type="line"/>
      <point x="263" y="680" type="line" smooth="yes"/>
      <point x="404" y="680"/>
      <point x="508" y="629"/>
      <point x="508" y="486" type="curve" smooth="yes"/>
      <point x="508" y="394"/>
      <point x="457" y="337"/>
      <point x="385" y="309" type="curve"/>
      <point x="562" y="0" type="line"/>
      <point x="507" y="0" type="line"/>
      <point x="343" y="296" type="line"/>
      <point x="314" y="289"/>
      <point x="283" y="286"/>
      <point x="252" y="286" type="curve" smooth="yes"/>
      <point x="149" y="286" type="line"/>
      <point x="149" y="0" type="line"/>
      <point x="100" y="0" type="line"/>
    </contour>
  </outline>
</glyph>
<glyph name="S" format="2">
  <advance width="504"/>
  <unicode hex="0053"/>
  <anchor x="237" y="0" name="bottom"/>
  <anchor x="256" y="680" name="topU"/>
  <outline>
    <contour>
      <point x="55" y="29" type="curve"/>
      <point x="70" y="68" type="line"/>
      <point x="105" y="51"/>
      <point x="169" y="29"/>
      <point x="236" y="29" type="curve" smooth="yes"/>
      <point x="351" y="29"/>
      <point x="413" y="91"/>
      <point x="413" y="160" type="curve" smooth="yes"/>
      <point x="413" y="233"/>
      <point x="353" y="280"/>
      <point x="232" y="330" type="curve" smooth="yes"/>
      <point x="114" y="379"/>
      <point x="50" y="438"/>
      <point x="50" y="535" type="curve" smooth="yes"/>
      <point x="50" y="627"/>
      <point x="128" y="696"/>
      <point x="256" y="696" type="curve" smooth="yes"/>
      <point x="323" y="696"/>
      <point x="384" y="677"/>
      <point x="424" y="657" type="curve"/>
      <point x="402" y="621" type="line"/>
      <point x="367" y="637"/>
      <point x="327" y="655"/>
      <point x="258" y="655" type="curve" smooth="yes"/>
      <point x="162" y="655"/>
      <point x="102" y="599"/>
      <point x="102" y="530" type="curve" smooth="yes"/>
      <point x="102" y="454"/>
      <point x="165" y="405"/>
      <point x="283" y="355" type="curve" smooth="yes"/>
      <point x="404" y="304"/>
      <point x="464" y="248"/>
      <point x="464" y="157" type="curve" smooth="yes"/>
      <point x="464" y="57"/>
      <point x="385" y="-13"/>
      <point x="237" y="-13" type="curve" smooth="yes"/>
      <point x="180" y="-13"/>
      <point x="78" y="9"/>
    </contour>
  </outline>
</glyph>
<glyph name="T" format="2">
  <advance width="534"/>
  <unicode hex="0054"/>
  <anchor x="267" y="0" name="bottom"/>
  <anchor x="266" y="680" name="topU"/>
  <outline>
    <contour>
      <point x="519" y="680" type="line"/>
      <point x="524" y="641" type="line"/>
      <point x="291" y="641" type="line"/>
      <point x="291" y="0" type="line"/>
      <point x="242" y="0" type="line"/>
      <point x="242" y="641" type="line"/>
      <point x="10" y="641" type="line"/>
      <point x="10" y="680" type="line"/>
    </contour>
  </outline>
</glyph>
<glyph name="U" format="2">
  <advance width="658"/>
  <unicode hex="0055"/>
  <anchor x="329" y="0" name="bottom"/>
  <anchor x="329" y="680" name="topU"/>
  <outline>
    <contour>
      <point x="139" y="680" type="line"/>
      <point x="139" y="236" type="line" smooth="yes"/>
      <point x="139" y="120"/>
      <point x="214" y="29"/>
      <point x="329" y="29" type="curve" smooth="yes"/>
      <point x="448" y="29"/>
      <point x="519" y="120"/>
      <point x="519" y="236" type="curve" smooth="yes"/>
      <point x="519" y="680" type="line"/>
      <point x="568" y="680" type="line"/>
      <point x="568" y="239" type="line" smooth="yes"/>
      <point x="568" y="94"/>
      <point x="484" y="-12"/>
      <point x="329" y="-12" type="curve" smooth="yes"/>
      <point x="176" y="-12"/>
      <point x="90" y="94"/>
      <point x="90" y="239" type="curve" smooth="yes"/>
      <point x="90" y="680" type="line"/>
    </contour>
  </outline>
</glyph>
<glyph name="V" format="2">
  <advance width="572"/>
  <unicode hex="0056"/>
  <outline>
    <contour>
      <point x="60" y="685" type="line"/>
      <point x="291" y="65" type="line"/>
      <point x="513" y="679" type="line"/>
      <point x="562" y="679" type="line"/>
      <point x="315" y="-1" type="line"/>
      <point x="269" y="-1" type="line"/>
      <point x="10" y="674" type="line"/>
    </contour>
  </outline>
</glyph>
<glyph name="W" format="2">
  <advance width="812"/>
  <unicode hex="0057"/>
  <outline>
    <contour>
      <point x="802" y="679" type="line"/>
      <point x="753" y="679" type="line"/>
      <point x="601" y="79" type="line"/>
      <point x="432" y="679" type="line"/>
      <point x="383" y="679" type="line"/>
      <point x="231" y="79" type="line"/>
      <point x="60" y="685" type="line"/>
      <point x="10" y="674" type="line"/>
      <point x="209" y="-1" type="line"/>
      <point x="255" y="-1" type="line"/>
      <point x="407" y="593" type="line"/>
      <point x="579" y="-1" type="line"/>
      <point x="625" y="-1" type="line"/>
    </contour>
  </outline>
</glyph>
<glyph name="X" format="2">
  <advance width="523"/>
  <unicode hex="0058"/>
  <outline>
    <contour>
      <point x="68" y="0" type="line"/>
      <point x="10" y="0" type="line"/>
      <point x="237" y="350" type="line"/>
      <point x="38" y="668" type="line"/>
      <point x="86" y="691" type="line"/>
      <point x="271" y="379" type="line"/>
      <point x="459" y="680" type="line"/>
      <point x="513" y="680" type="line"/>
      <point x="298" y="337" type="line"/>
      <point x="513" y="0" type="line"/>
      <point x="454" y="0" type="line"/>
      <point x="261" y="311" type="line"/>
    </contour>
  </outline>
</glyph>
<glyph name="Y" format="2">
  <advance width="530"/>
  <unicode hex="0059"/>
  <anchor x="259" y="680" name="topU"/>
  <outline>
    <contour>
      <point x="284" y="0" type="line"/>
      <point x="235" y="0" type="line"/>
      <point x="235" y="269" type="line"/>
      <point x="10" y="668" type="line"/>
      <point x="59" y="689" type="line"/>
      <point x="259" y="321" type="line"/>
      <point x="463" y="680" type="line"/>
      <point x="520" y="680" type="line"/>
      <point x="284" y="274" type="line"/>
    </contour>
  </outline>
</glyph>
<glyph name="Z" format="2">
  <advance width="539"/>
  <unicode hex="005A"/>
  <anchor x="268" y="680" name="topU"/>
  <outline>
    <contour>
      <point x="499" y="39" type="line"/>
      <point x="504" y="0" type="line"/>
      <point x="36" y="0" type="line"/>
      <point x="30" y="50" type="line"/>
      <point x="463" y="641" type="line"/>
      <point x="57" y="641" type="line"/>
      <point x="47" y="680" type="line"/>
      <point x="504" y="680" type="line"/>
      <point x="509" y="631" type="line"/>
      <point x="79" y="39" type="line"/>
    </contour>
  </outline>
</glyph>
<glyph name="bracketleft" format="2">
  <advance width="265"/>
  <unicode hex="005B"/>
  <outline>
    <contour>
      <point x="100" y="-88" type="line"/>
      <point x="100" y="696" type="line"/>
      <point x="255" y="696" type="line"/>
      <point x="247" y="657" type="line"/>
      <point x="149" y="657" type="line"/>
      <point x="149" y="-49" type="line"/>
      <point x="247" y="-49" type="line"/>
      <point x="255" y="-88" type="line"/>
    </contour>
  </outline>
</glyph>
<glyph name="backslash" format="2">
  <advance width="375"/>
  <unicode hex="005C"/>
  <outline>
    <contour>
      <point x="365" y="0" type="line"/>
      <point x="318" y="-4" type="line"/>
      <point x="10" y="706" type="line"/>
      <point x="57" y="710" type="line"/>
    </contour>
  </outline>
</glyph>
<glyph name="bracketright" format="2">
  <advance width="265"/>
  <unicode hex="005D"/>
  <outline>
    <contour>
      <point x="165" y="696" type="line"/>
      <point x="165" y="-88" type="line"/>
      <point x="10" y="-88" type="line"/>
      <point x="18" y="-49" type="line"/>
      <point x="116" y="-49" type="line"/>
      <point x="116" y="657" type="line"/>
      <point x="18" y="657" type="line"/>
      <point x="10" y="696" type="line"/>
    </contour>
  </outline>
</glyph>
<glyph name="asciicircum" format="2">
  <advance width="417"/>
  <unicode hex="005E"/>
  <outline>
    <contour>
      <point x="204" y="348" type="line"/>
      <point x="58" y="143" type="line"/>
      <point x="10" y="143" type="line"/>
      <point x="182" y="390" type="line"/>
      <point x="225" y="390" type="line"/>
      <point x="397" y="143" type="line"/>
      <point x="349" y="143" type="line"/>
    </contour>
  </outline>
</glyph>
<glyph name="underscore" format="2">
  <advance width="429"/>
  <unicode hex="005F"/>
  <outline>
    <contour>
      <point x="391" y="39" type="line"/>
      <point x="399" y="0" type="line"/>
      <point x="38" y="0" type="line"/>
      <point x="30" y="39" type="line"/>
    </contour>
  </outline>
</glyph>
<glyph name="grave" format="2">
  <advance width="137"/>
  <unicode hex="0060"/>
  <anchor x="93" y="485" name="_top"/>
  <outline>
    <contour>
      <point x="95" y="589" type="line"/>
      <point x="10" y="742" type="line"/>
      <point x="71" y="742" type="line"/>
      <point x="127" y="600" type="line"/>
    </contour>
  </outline>
</glyph>
<glyph name="a" format="2">
  <advance width="475"/>
  <unicode hex="0061"/>
  <anchor x="392" y="0" name="bottom"/>
  <anchor x="241" y="485" name="top"/>
  <outline>
    <contour>
      <point x="103" y="136" type="curve" smooth="yes"/>
      <point x="103" y="76"/>
      <point x="147" y="28"/>
      <point x="219" y="28" type="curve" smooth="yes"/>
      <point x="282" y="28"/>
      <point x="329" y="64"/>
      <point x="360" y="109" type="curve"/>
      <point x="360" y="244" type="line"/>
      <point x="229" y="244" type="line" smooth="yes"/>
      <point x="141" y="244"/>
      <point x="103" y="196"/>
    </contour>
    <contour>
      <point x="105" y="423" type="curve"/>
      <point x="86" y="456" type="line"/>
      <point x="123" y="481"/>
      <point x="201" y="498"/>
      <point x="241" y="498" type="curve" smooth="yes"/>
      <point x="352" y="498"/>
      <point x="409" y="435"/>
      <point x="409" y="340" type="curve" smooth="yes"/>
      <point x="409" y="0" type="line"/>
      <point x="371" y="0" type="line"/>
      <point x="363" y="52" type="line"/>
      <point x="330" y="15"/>
      <point x="276" y="-13"/>
      <point x="215" y="-13" type="curve" smooth="yes"/>
      <point x="106" y="-13"/>
      <point x="52" y="52"/>
      <point x="52" y="136" type="curve" smooth="yes"/>
      <point x="52" y="228"/>
      <point x="124" y="281"/>
      <point x="225" y="281" type="curve" smooth="yes"/>
      <point x="360" y="281" type="line"/>
      <point x="360" y="341" type="line" smooth="yes"/>
      <point x="360" y="408"/>
      <point x="323" y="457"/>
      <point x="244" y="457" type="curve" smooth="yes"/>
      <point x="179" y="457"/>
      <point x="145" y="442"/>
    </contour>
  </outline>
</glyph>
<glyph name="b" format="2">
  <advance width="512"/>
  <unicode hex="0062"/>
  <outline>
    <contour>
      <point x="108" y="0" type="line"/>
      <point x="80" y="0" type="line"/>
      <point x="80" y="696" type="line"/>
      <point x="129" y="706" type="line"/>
      <point x="129" y="59" type="line"/>
    </contour>
    <contour>
      <point x="124" y="386" type="curve"/>
      <point x="104" y="420" type="line"/>
      <point x="144" y="467"/>
      <point x="197" y="498"/>
      <point x="263" y="498" type="curve" smooth="yes"/>
      <point x="406" y="498"/>
      <point x="472" y="391"/>
      <point x="472" y="240" type="curve" smooth="yes"/>
      <point x="472" y="95"/>
      <point x="399" y="-13"/>
      <point x="256" y="-13" type="curve" smooth="yes"/>
      <point x="193" y="-13"/>
      <point x="126" y="30"/>
      <point x="99" y="59" type="curve"/>
      <point x="119" y="92" type="line"/>
      <point x="152" y="60"/>
      <point x="197" y="28"/>
      <point x="258" y="28" type="curve" smooth="yes"/>
      <point x="365" y="28"/>
      <point x="421" y="126"/>
      <point x="421" y="239" type="curve" smooth="yes"/>
      <point x="421" y="358"/>
      <point x="372" y="457"/>
      <point x="263" y="457" type="curve" smooth="yes"/>
      <point x="196" y="457"/>
      <point x="159" y="425"/>
    </contour>
  </outline>
</glyph>
<glyph name="c" format="2">
  <advance width="449"/>
  <unicode hex="0063"/>
  <anchor x="259" y="0" name="bottom"/>
  <anchor x="246" y="485" name="top"/>
  <outline>
    <contour>
      <point x="388" y="62" type="curve"/>
      <point x="408" y="28" type="line"/>
      <point x="368" y="3"/>
      <point x="300" y="-13"/>
      <point x="259" y="-13" type="curve" smooth="yes"/>
      <point x="116" y="-13"/>
      <point x="40" y="94"/>
      <point x="40" y="245" type="curve" smooth="yes"/>
      <point x="40" y="390"/>
      <point x="123" y="498"/>
      <point x="266" y="498" type="curve" smooth="yes"/>
      <point x="305" y="498"/>
      <point x="374" y="481"/>
      <point x="413" y="456" type="curve"/>
      <point x="393" y="423" type="line"/>
      <point x="360" y="439"/>
      <point x="325" y="457"/>
      <point x="264" y="457" type="curve" smooth="yes"/>
      <point x="157" y="457"/>
      <point x="91" y="359"/>
      <point x="91" y="246" type="curve" smooth="yes"/>
      <point x="91" y="127"/>
      <point x="150" y="28"/>
      <point x="259" y="28" type="curve" smooth="yes"/>
      <point x="326" y="28"/>
      <point x="353" y="45"/>
    </contour>
  </outline>
</glyph>
<glyph name="e" format="2">
  <advance width="480"/>
  <unicode hex="0065"/>
  <anchor x="329" y="0" name="bottom"/>
  <anchor x="251" y="485" name="top"/>
  <outline>
    <contour>
      <point x="440" y="242" type="line"/>
      <point x="91" y="242" type="line"/>
      <point x="92" y="126"/>
      <point x="142" y="28"/>
      <point x="262" y="28" type="curve" smooth="yes"/>
      <point x="333" y="28"/>
      <point x="372" y="45"/>
      <point x="405" y="62" type="curve"/>
      <point x="425" y="25" type="line"/>
      <point x="385" y="0"/>
      <point x="309" y="-13"/>
      <point x="270" y="-13" type="curve" smooth="yes"/>
      <point x="111" y="-13"/>
      <point x="40" y="94"/>
      <point x="40" y="245" type="curve" smooth="yes"/>
      <point x="40" y="390"/>
      <point x="109" y="498"/>
      <point x="252" y="498" type="curve" smooth="yes"/>
      <point x="361" y="498"/>
      <point x="440" y="392"/>
      <point x="440" y="250" type="curve" smooth="yes"/>
    </contour>
    <contour>
      <point x="93" y="279" type="curve"/>
      <point x="388" y="279" type="line"/>
      <point x="379" y="374"/>
      <point x="341" y="457"/>
      <point x="245" y="457" type="curve" smooth="yes"/>
      <point x="149" y="457"/>
      <point x="102" y="374"/>
    </contour>
  </outline>
</glyph>
<glyph name="f" format="2">
  <advance width="264"/>
  <unicode hex="0066"/>
  <outline>
    <contour>
      <point x="20" y="433" type="line"/>
      <point x="20" y="470" type="line"/>
      <point x="93" y="470" type="line"/>
      <point x="93" y="563" type="line" smooth="yes"/>
      <point x="93" y="647"/>
      <point x="126" y="702"/>
      <point x="198" y="702" type="curve" smooth="yes"/>
      <point x="225" y="702"/>
      <point x="251" y="694"/>
      <point x="264" y="689" type="curve"/>
      <point x="252" y="652" type="line"/>
      <point x="244" y="656"/>
      <point x="224" y="661"/>
      <point x="211" y="661" type="curve" smooth="yes"/>
      <point x="160" y="661"/>
      <point x="142" y="627"/>
      <point x="142" y="579" type="curve" smooth="yes"/>
      <point x="142" y="470" type="line"/>
      <point x="230" y="470" type="line"/>
      <point x="251" y="433" type="line"/>
      <point x="142" y="433" type="line"/>
      <point x="142" y="0" type="line"/>
      <point x="93" y="0" type="line"/>
      <point x="93" y="433" type="line"/>
    </contour>
  </outline>
</glyph>
<glyph name="h" format="2">
  <advance width="510"/>
  <unicode hex="0068"/>
  <outline>
    <contour>
      <point x="129" y="359" type="curve"/>
      <point x="128" y="409" type="line"/>
      <point x="169" y="457"/>
      <point x="240" y="498"/>
      <point x="300" y="498" type="curve" smooth="yes"/>
      <point x="404" y="498"/>
      <point x="444" y="430"/>
      <point x="444" y="337" type="curve" smooth="yes"/>
      <point x="444" y="0" type="line"/>
      <point x="395" y="0" type="line"/>
      <point x="395" y="337" type="line" smooth="yes"/>
      <point x="395" y="404"/>
      <point x="377" y="457"/>
      <point x="304" y="457" type="curve" smooth="yes"/>
      <point x="246" y="457"/>
      <point x="185" y="416"/>
    </contour>
    <contour>
      <point x="129" y="0" type="line"/>
      <point x="80" y="0" type="line"/>
      <point x="80" y="696" type="line"/>
      <point x="129" y="706" type="line"/>
    </contour>
  </outline>
</glyph>
<glyph name="i" format="2">
  <advance width="189"/>
  <unicode hex="0069"/>
  <anchor x="94" y="0" name="bottom"/>
  <outline>
    <contour>
      <point x="119" y="0" type="line"/>
      <point x="70" y="0" type="line"/>
      <point x="70" y="485" type="line"/>
      <point x="119" y="485" type="line"/>
    </contour>
    <contour>
      <point x="94" y="600" type="curve" smooth="yes"/>
      <point x="71" y="600"/>
      <point x="56" y="617"/>
      <point x="56" y="638" type="curve" smooth="yes"/>
      <point x="56" y="659"/>
      <point x="71" y="676"/>
      <point x="94" y="676" type="curve" smooth="yes"/>
      <point x="115" y="676"/>
      <point x="133" y="659"/>
      <point x="133" y="638" type="curve" smooth="yes"/>
      <point x="133" y="617"/>
      <point x="117" y="600"/>
    </contour>
  </outline>
</glyph>
<glyph name="j" format="2">
  <advance width="206"/>
  <unicode hex="006A"/>
  <outline>
    <contour>
      <point x="101" y="600" type="curve" smooth="yes"/>
      <point x="124" y="600"/>
      <point x="140" y="617"/>
      <point x="140" y="638" type="curve" smooth="yes"/>
      <point x="140" y="659"/>
      <point x="122" y="676"/>
      <point x="101" y="676" type="curve" smooth="yes"/>
      <point x="78" y="676"/>
      <point x="63" y="659"/>
      <point x="63" y="638" type="curve" smooth="yes"/>
      <point x="63" y="617"/>
      <point x="78" y="600"/>
    </contour>
    <contour>
      <point x="126" y="485" type="line"/>
      <point x="77" y="485" type="line"/>
      <point x="77" y="-54" type="line" smooth="yes"/>
      <point x="77" y="-130"/>
      <point x="67" y="-158"/>
      <point x="0" y="-183" type="curve"/>
      <point x="18" y="-219" type="line"/>
      <point x="114" y="-188"/>
      <point x="126" y="-146"/>
      <point x="126" y="-62" type="curve" smooth="yes"/>
    </contour>
  </outline>
</glyph>
<glyph name="k" format="2">
  <advance width="449"/>
  <unicode hex="006B"/>
  <anchor x="256" y="0" name="bottom"/>
  <outline>
    <contour>
      <point x="129" y="0" type="line"/>
      <point x="80" y="0" type="line"/>
      <point x="80" y="696" type="line"/>
      <point x="129" y="706" type="line"/>
      <point x="129" y="264" type="line"/>
      <point x="354" y="498" type="line"/>
      <point x="391" y="467" type="line"/>
      <point x="236" y="313" type="line"/>
      <point x="449" y="0" type="line"/>
      <point x="390" y="0" type="line"/>
      <point x="203" y="280" type="line"/>
      <point x="129" y="206" type="line"/>
    </contour>
  </outline>
</glyph>
<glyph name="l" format="2">
  <advance width="209"/>
  <unicode hex="006C"/>
  <anchor x="106" y="0" name="bottom"/>
  <outline>
    <contour>
      <point x="129" y="0" type="line"/>
      <point x="80" y="0" type="line"/>
      <point x="80" y="696" type="line"/>
      <point x="129" y="706" type="line"/>
    </contour>
  </outline>
</glyph>
<glyph name="m" format="2">
  <advance width="776"/>
  <unicode hex="006D"/>
  <outline>
    <contour>
      <point x="119" y="0" type="line"/>
      <point x="70" y="0" type="line"/>
      <point x="70" y="485" type="line"/>
      <point x="108" y="485" type="line"/>
      <point x="118" y="409" type="line"/>
      <point x="159" y="457"/>
      <point x="234" y="498"/>
      <point x="285" y="498" type="curve" smooth="yes"/>
      <point x="384" y="498"/>
      <point x="419" y="430"/>
      <point x="419" y="337" type="curve" smooth="yes"/>
      <point x="419" y="0" type="line"/>
      <point x="370" y="0" type="line"/>
      <point x="370" y="337" type="line" smooth="yes"/>
      <point x="370" y="404"/>
      <point x="357" y="457"/>
      <point x="289" y="457" type="curve" smooth="yes"/>
      <point x="236" y="457"/>
      <point x="175" y="416"/>
      <point x="119" y="359" type="curve"/>
    </contour>
    <contour>
      <point x="410" y="359" type="curve"/>
      <point x="409" y="409" type="line"/>
      <point x="450" y="457"/>
      <point x="525" y="498"/>
      <point x="576" y="498" type="curve" smooth="yes"/>
      <point x="675" y="498"/>
      <point x="710" y="430"/>
      <point x="710" y="337" type="curve" smooth="yes"/>
      <point x="710" y="0" type="line"/>
      <point x="661" y="0" type="line"/>
      <point x="661" y="337" type="line" smooth="yes"/>
      <point x="661" y="404"/>
      <point x="648" y="457"/>
      <point x="580" y="457" type="curve" smooth="yes"/>
      <point x="527" y="457"/>
      <point x="466" y="416"/>
    </contour>
  </outline>
</glyph>
<glyph name="n" format="2">
  <advance width="500"/>
  <unicode hex="006E"/>
  <anchor x="253" y="0" name="bottom"/>
  <anchor x="261" y="485" name="top"/>
  <outline>
    <contour>
      <point x="119" y="0" type="line"/>
      <point x="70" y="0" type="line"/>
      <point x="70" y="485" type="line"/>
      <point x="108" y="485" type="line"/>
      <point x="118" y="409" type="line"/>
      <point x="159" y="457"/>
      <point x="230" y="498"/>
      <point x="290" y="498" type="curve" smooth="yes"/>
      <point x="394" y="498"/>
      <point x="434" y="430"/>
      <point x="434" y="337" type="curve" smooth="yes"/>
      <point x="434" y="0" type="line"/>
      <point x="385" y="0" type="line"/>
      <point x="385" y="337" type="line" smooth="yes"/>
      <point x="385" y="404"/>
      <point x="367" y="457"/>
      <point x="294" y="457" type="curve" smooth="yes"/>
      <point x="236" y="457"/>
      <point x="175" y="416"/>
      <point x="119" y="359" type="curve"/>
    </contour>
  </outline>
</glyph>
<glyph name="o" format="2">
  <advance width="523"/>
  <unicode hex="006F"/>
  <anchor x="266" y="485" name="top"/>
  <outline>
    <contour>
      <point x="259" y="-13" type="curve" smooth="yes"/>
      <point x="401" y="-12"/>
      <point x="483" y="96"/>
      <point x="483" y="240" type="curve" smooth="yes"/>
      <point x="483" y="390"/>
      <point x="408" y="497"/>
      <point x="265" y="498" type="curve" smooth="yes"/>
      <point x="122" y="497"/>
      <point x="40" y="389"/>
      <point x="40" y="245" type="curve" smooth="yes"/>
      <point x="40" y="95"/>
      <point x="115" y="-12"/>
    </contour>
    <contour>
      <point x="259" y="28" type="curve" smooth="yes"/>
      <point x="150" y="28"/>
      <point x="91" y="127"/>
      <point x="91" y="246" type="curve" smooth="yes"/>
      <point x="91" y="359"/>
      <point x="157" y="457"/>
      <point x="264" y="457" type="curve" smooth="yes"/>
      <point x="373" y="457"/>
      <point x="432" y="358"/>
      <point x="432" y="239" type="curve" smooth="yes"/>
      <point x="432" y="126"/>
      <point x="366" y="28"/>
    </contour>
  </outline>
</glyph>
<glyph name="p" format="2">
  <advance width="508"/>
  <unicode hex="0070"/>
  <outline>
    <contour>
      <point x="125" y="-208" type="line"/>
      <point x="76" y="-219" type="line"/>
      <point x="76" y="485" type="line"/>
      <point x="104" y="485" type="line"/>
      <point x="125" y="418" type="line"/>
    </contour>
    <contour>
      <point x="120" y="386" type="curve"/>
      <point x="100" y="420" type="line"/>
      <point x="140" y="467"/>
      <point x="193" y="498"/>
      <point x="259" y="498" type="curve" smooth="yes"/>
      <point x="402" y="498"/>
      <point x="468" y="391"/>
      <point x="468" y="240" type="curve" smooth="yes"/>
      <point x="468" y="95"/>
      <point x="395" y="-13"/>
      <point x="252" y="-13" type="curve" smooth="yes"/>
      <point x="189" y="-13"/>
      <point x="122" y="30"/>
      <point x="95" y="59" type="curve"/>
      <point x="115" y="92" type="line"/>
      <point x="148" y="60"/>
      <point x="193" y="28"/>
      <point x="254" y="28" type="curve" smooth="yes"/>
      <point x="361" y="28"/>
      <point x="417" y="126"/>
      <point x="417" y="239" type="curve" smooth="yes"/>
      <point x="417" y="358"/>
      <point x="368" y="457"/>
      <point x="259" y="457" type="curve" smooth="yes"/>
      <point x="192" y="457"/>
      <point x="155" y="425"/>
    </contour>
  </outline>
</glyph>
<glyph name="q" format="2">
  <advance width="508"/>
  <unicode hex="0071"/>
  <outline>
    <contour>
      <point x="405" y="485" type="line"/>
      <point x="432" y="485" type="line"/>
      <point x="432" y="-208" type="line"/>
      <point x="383" y="-219" type="line"/>
      <point x="383" y="419" type="line"/>
    </contour>
    <contour>
      <point x="388" y="99" type="curve"/>
      <point x="408" y="65" type="line"/>
      <point x="368" y="18"/>
      <point x="315" y="-13"/>
      <point x="249" y="-13" type="curve" smooth="yes"/>
      <point x="106" y="-13"/>
      <point x="40" y="94"/>
      <point x="40" y="245" type="curve" smooth="yes"/>
      <point x="40" y="390"/>
      <point x="113" y="498"/>
      <point x="256" y="498" type="curve" smooth="yes"/>
      <point x="319" y="498"/>
      <point x="386" y="455"/>
      <point x="413" y="426" type="curve"/>
      <point x="393" y="393" type="line"/>
      <point x="360" y="425"/>
      <point x="315" y="457"/>
      <point x="254" y="457" type="curve" smooth="yes"/>
      <point x="147" y="457"/>
      <point x="91" y="359"/>
      <point x="91" y="246" type="curve" smooth="yes"/>
      <point x="91" y="127"/>
      <point x="140" y="28"/>
      <point x="249" y="28" type="curve" smooth="yes"/>
      <point x="316" y="28"/>
      <point x="353" y="60"/>
    </contour>
  </outline>
</glyph>
<glyph name="r" format="2">
  <advance width="302"/>
  <unicode hex="0072"/>
  <anchor x="95" y="0" name="bottom"/>
  <anchor x="156" y="485" name="top"/>
  <outline>
    <contour>
      <point x="119" y="0" type="line"/>
      <point x="70" y="0" type="line"/>
      <point x="70" y="485" type="line"/>
      <point x="98" y="485" type="line"/>
      <point x="116" y="408" type="line"/>
      <point x="151" y="437"/>
      <point x="224" y="485"/>
      <point x="275" y="485" type="curve"/>
      <point x="292" y="447" type="line"/>
      <point x="231" y="447"/>
      <point x="156" y="398"/>
      <point x="119" y="357" type="curve"/>
    </contour>
  </outline>
</glyph>
<glyph name="s" format="2">
  <advance width="406"/>
  <unicode hex="0073"/>
  <anchor x="189" y="0" name="bottom"/>
  <anchor x="217" y="485" name="top"/>
  <outline>
    <contour>
      <point x="42" y="25" type="curve"/>
      <point x="60" y="66" type="line"/>
      <point x="95" y="49"/>
      <point x="140" y="28"/>
      <point x="191" y="28" type="curve" smooth="yes"/>
      <point x="271" y="28"/>
      <point x="319" y="64"/>
      <point x="319" y="119" type="curve" smooth="yes"/>
      <point x="319" y="166"/>
      <point x="263" y="201"/>
      <point x="191" y="229" type="curve" smooth="yes"/>
      <point x="116" y="258"/>
      <point x="50" y="301"/>
      <point x="50" y="364" type="curve" smooth="yes"/>
      <point x="50" y="440"/>
      <point x="108" y="498"/>
      <point x="217" y="498" type="curve" smooth="yes"/>
      <point x="258" y="498"/>
      <point x="321" y="482"/>
      <point x="354" y="458" type="curve"/>
      <point x="334" y="423" type="line"/>
      <point x="307" y="436"/>
      <point x="270" y="457"/>
      <point x="210" y="457" type="curve" smooth="yes"/>
      <point x="142" y="457"/>
      <point x="97" y="415"/>
      <point x="97" y="368" type="curve" smooth="yes"/>
      <point x="97" y="323"/>
      <point x="152" y="293"/>
      <point x="219" y="266" type="curve" smooth="yes"/>
      <point x="298" y="234"/>
      <point x="366" y="191"/>
      <point x="366" y="123" type="curve" smooth="yes"/>
      <point x="366" y="38"/>
      <point x="313" y="-13"/>
      <point x="189" y="-13" type="curve" smooth="yes"/>
      <point x="149" y="-13"/>
      <point x="79" y="0"/>
    </contour>
  </outline>
</glyph>
<glyph name="t" format="2">
  <advance width="292"/>
  <unicode hex="0074"/>
  <anchor x="187" y="0" name="bottom"/>
  <outline>
    <contour>
      <point x="229" y="470" type="line"/>
      <point x="250" y="433" type="line"/>
      <point x="141" y="433" type="line"/>
      <point x="141" y="123" type="line" smooth="yes"/>
      <point x="141" y="75"/>
      <point x="160" y="28"/>
      <point x="209" y="28" type="curve" smooth="yes"/>
      <point x="224" y="28"/>
      <point x="243" y="34"/>
      <point x="250" y="37" type="curve"/>
      <point x="262" y="-1" type="line"/>
      <point x="247" y="-6"/>
      <point x="222.905" y="-13"/>
      <point x="196" y="-13" type="curve" smooth="yes"/>
      <point x="133" y="-13"/>
      <point x="92" y="32"/>
      <point x="92" y="116" type="curve" smooth="yes"/>
      <point x="92" y="433" type="line"/>
      <point x="20" y="433" type="line"/>
      <point x="20" y="470" type="line"/>
      <point x="92" y="470" type="line"/>
      <point x="92" y="601" type="line"/>
      <point x="141" y="623" type="line"/>
      <point x="141" y="470" type="line"/>
    </contour>
  </outline>
</glyph>
<glyph name="u" format="2">
  <advance width="500"/>
  <unicode hex="0075"/>
  <anchor x="413" y="0" name="bottom"/>
  <anchor x="248" y="485" name="top"/>
  <outline>
    <contour>
      <point x="381" y="485" type="line"/>
      <point x="430" y="485" type="line"/>
      <point x="430" y="0" type="line"/>
      <point x="392" y="0" type="line"/>
      <point x="382" y="76" type="line"/>
      <point x="341" y="28"/>
      <point x="270" y="-13"/>
      <point x="210" y="-13" type="curve" smooth="yes"/>
      <point x="106" y="-13"/>
      <point x="66" y="55"/>
      <point x="66" y="148" type="curve" smooth="yes"/>
      <point x="66" y="485" type="line"/>
      <point x="115" y="485" type="line"/>
      <point x="115" y="148" type="line" smooth="yes"/>
      <point x="115" y="81"/>
      <point x="133" y="28"/>
      <point x="206" y="28" type="curve" smooth="yes"/>
      <point x="264" y="28"/>
      <point x="325" y="69"/>
      <point x="381" y="126" type="curve"/>
    </contour>
  </outline>
</glyph>
<glyph name="v" format="2">
  <advance width="430"/>
  <unicode hex="0076"/>
  <outline>
    <contour>
      <point x="240" y="0" type="line"/>
      <point x="193" y="0" type="line"/>
      <point x="10" y="474" type="line"/>
      <point x="56" y="492" type="line"/>
      <point x="216" y="56" type="line"/>
      <point x="370" y="485" type="line"/>
      <point x="420" y="485" type="line"/>
    </contour>
  </outline>
</glyph>
<glyph name="w" format="2">
  <advance width="642"/>
  <unicode hex="0077"/>
  <outline>
    <contour>
      <point x="488" y="0" type="line"/>
      <point x="441" y="0" type="line"/>
      <point x="315" y="409" type="line"/>
      <point x="200" y="0" type="line"/>
      <point x="153" y="0" type="line"/>
      <point x="10" y="473" type="line"/>
      <point x="56" y="491" type="line"/>
      <point x="175" y="64" type="line"/>
      <point x="298" y="485" type="line"/>
      <point x="340" y="485" type="line"/>
      <point x="466" y="64" type="line"/>
      <point x="582" y="485" type="line"/>
      <point x="632" y="485" type="line"/>
    </contour>
  </outline>
</glyph>
<glyph name="x" format="2">
  <advance width="405"/>
  <unicode hex="0078"/>
  <outline>
    <contour>
      <point x="66" y="0" type="line"/>
      <point x="10" y="0" type="line"/>
      <point x="171" y="244" type="line"/>
      <point x="30" y="474" type="line"/>
      <point x="73" y="494" type="line"/>
      <point x="209" y="267" type="line"/>
      <point x="341" y="485" type="line"/>
      <point x="395" y="485" type="line"/>
      <point x="235" y="232" type="line"/>
      <point x="382" y="0" type="line"/>
      <point x="327" y="0" type="line"/>
      <point x="196" y="207" type="line"/>
    </contour>
  </outline>
</glyph>
<glyph name="y" format="2">
  <advance width="430"/>
  <unicode hex="0079"/>
  <anchor x="212" y="485" name="top"/>
  <outline>
    <contour>
      <point x="162" y="-98" type="curve"/>
      <point x="193" y="0" type="line"/>
      <point x="10" y="473" type="line"/>
      <point x="56" y="491" type="line"/>
      <point x="216" y="56" type="line"/>
      <point x="370" y="485" type="line"/>
      <point x="420" y="485" type="line"/>
      <point x="201" y="-112" type="line" smooth="yes"/>
      <point x="181" y="-167"/>
      <point x="132" y="-206"/>
      <point x="68" y="-219" type="curve"/>
      <point x="63" y="-181" type="line"/>
      <point x="114" y="-164"/>
      <point x="145" y="-143"/>
    </contour>
  </outline>
</glyph>
<glyph name="z" format="2">
  <advance width="432"/>
  <unicode hex="007A"/>
  <anchor x="227" y="485" name="top"/>
  <outline>
    <contour>
      <point x="401" y="485" type="line"/>
      <point x="404" y="453" type="line"/>
      <point x="79" y="37" type="line"/>
      <point x="388" y="37" type="line"/>
      <point x="398" y="0" type="line"/>
      <point x="36" y="0" type="line"/>
      <point x="28" y="31" type="line"/>
      <point x="350" y="448" type="line"/>
      <point x="73" y="448" type="line"/>
      <point x="57" y="485" type="line"/>
    </contour>
  </outline>
</glyph>
<glyph name="braceleft" format="2">
  <advance width="265"/>
  <unicode hex="007B"/>
  <outline>
    <contour>
      <point x="129" y="307" type="curve"/>
      <point x="162" y="291"/>
      <point x="193" y="254"/>
      <point x="193" y="195" type="curve" smooth="yes"/>
      <point x="193" y="178"/>
      <point x="187" y="154"/>
      <point x="174" y="125" type="curve" smooth="yes"/>
      <point x="161" y="96"/>
      <point x="155" y="72"/>
      <point x="155" y="54" type="curve" smooth="yes"/>
      <point x="155" y="26"/>
      <point x="178" y="-6"/>
      <point x="227" y="-6" type="curve" smooth="yes"/>
      <point x="246" y="-6" type="line"/>
      <point x="255" y="-45" type="line"/>
      <point x="229" y="-45" type="line" smooth="yes"/>
      <point x="145" y="-45"/>
      <point x="105" y="-4"/>
      <point x="105" y="60" type="curve" smooth="yes"/>
      <point x="105" y="81"/>
      <point x="111" y="105"/>
      <point x="123" y="132" type="curve" smooth="yes"/>
      <point x="135" y="159"/>
      <point x="141" y="183"/>
      <point x="141" y="204" type="curve" smooth="yes"/>
      <point x="141" y="253"/>
      <point x="103" y="288"/>
      <point x="63" y="288" type="curve" smooth="yes"/>
      <point x="30" y="288" type="line"/>
      <point x="30" y="326" type="line"/>
      <point x="63" y="326" type="line" smooth="yes"/>
      <point x="103" y="326"/>
      <point x="141" y="361"/>
      <point x="141" y="410" type="curve" smooth="yes"/>
      <point x="141" y="431"/>
      <point x="135" y="455"/>
      <point x="123" y="482" type="curve" smooth="yes"/>
      <point x="111" y="509"/>
      <point x="105" y="533"/>
      <point x="105" y="554" type="curve" smooth="yes"/>
      <point x="105" y="618"/>
      <point x="145" y="659"/>
      <point x="229" y="659" type="curve" smooth="yes"/>
      <point x="255" y="659" type="line"/>
      <point x="246" y="620" type="line"/>
      <point x="227" y="620" type="line" smooth="yes"/>
      <point x="178" y="620"/>
      <point x="155" y="588"/>
      <point x="155" y="560" type="curve" smooth="yes"/>
      <point x="155" y="542"/>
      <point x="161" y="518"/>
      <point x="174" y="489" type="curve" smooth="yes"/>
      <point x="187" y="460"/>
      <point x="193" y="436"/>
      <point x="193" y="419" type="curve" smooth="yes"/>
      <point x="193" y="360"/>
      <point x="162" y="323"/>
    </contour>
  </outline>
</glyph>
<glyph name="bar" format="2">
  <advance width="249"/>
  <unicode hex="007C"/>
  <outline>
    <contour>
      <point x="100" y="710" type="line"/>
      <point x="149" y="706" type="line"/>
      <point x="149" y="-4" type="line"/>
      <point x="100" y="0" type="line"/>
    </contour>
  </outline>
</glyph>
<glyph name="braceright" format="2">
  <advance width="265"/>
  <unicode hex="007D"/>
  <outline>
    <contour>
      <point x="136" y="307" type="curve"/>
      <point x="103" y="323"/>
      <point x="72" y="360"/>
      <point x="72" y="419" type="curve" smooth="yes"/>
      <point x="72" y="436"/>
      <point x="78" y="460"/>
      <point x="91" y="489" type="curve" smooth="yes"/>
      <point x="104" y="518"/>
      <point x="110" y="542"/>
      <point x="110" y="560" type="curve" smooth="yes"/>
      <point x="110" y="588"/>
      <point x="87" y="620"/>
      <point x="38" y="620" type="curve" smooth="yes"/>
      <point x="19" y="620" type="line"/>
      <point x="10" y="659" type="line"/>
      <point x="36" y="659" type="line" smooth="yes"/>
      <point x="120" y="659"/>
      <point x="160" y="618"/>
      <point x="160" y="554" type="curve" smooth="yes"/>
      <point x="160" y="533"/>
      <point x="154" y="509"/>
      <point x="142" y="482" type="curve" smooth="yes"/>
      <point x="130" y="455"/>
      <point x="124" y="431"/>
      <point x="124" y="410" type="curve" smooth="yes"/>
      <point x="124" y="361"/>
      <point x="162" y="326"/>
      <point x="202" y="326" type="curve" smooth="yes"/>
      <point x="235" y="326" type="line"/>
      <point x="235" y="288" type="line"/>
      <point x="202" y="288" type="line" smooth="yes"/>
      <point x="162" y="288"/>
      <point x="124" y="253"/>
      <point x="124" y="204" type="curve" smooth="yes"/>
      <point x="124" y="183"/>
      <point x="130" y="159"/>
      <point x="142" y="132" type="curve" smooth="yes"/>
      <point x="154" y="105"/>
      <point x="160" y="81"/>
      <point x="160" y="60" type="curve" smooth="yes"/>
      <point x="160" y="-4"/>
      <point x="120" y="-45"/>
      <point x="36" y="-45" type="curve" smooth="yes"/>
      <point x="10" y="-45" type="line"/>
      <point x="19" y="-6" type="line"/>
      <point x="38" y="-6" type="line" smooth="yes"/>
      <point x="87" y="-6"/>
      <point x="110" y="26"/>
      <point x="110" y="54" type="curve" smooth="yes"/>
      <point x="110" y="72"/>
      <point x="104" y="96"/>
      <point x="91" y="125" type="curve" smooth="yes"/>
      <point x="78" y="154"/>
      <point x="72" y="178"/>
      <point x="72" y="195" type="curve" smooth="yes"/>
      <point x="72" y="254"/>
      <point x="103" y="291"/>
    </contour>
  </outline>
</glyph>
<glyph name="asciitilde" format="2">
  <advance width="374"/>
  <unicode hex="007E"/>
  <outline>
    <contour>
      <point x="30" y="215" type="line"/>
      <point x="30" y="262"/>
      <point x="64" y="295"/>
      <point x="117" y="295" type="curve" smooth="yes"/>
      <point x="145" y="295"/>
      <point x="171" y="287"/>
      <point x="195" y="271" type="curve" smooth="yes"/>
      <point x="219" y="255"/>
      <point x="240" y="247"/>
      <point x="257" y="247" type="curve" smooth="yes"/>
      <point x="282" y="247"/>
      <point x="304" y="264"/>
      <point x="304" y="289" type="curve"/>
      <point x="344" y="289" type="line"/>
      <point x="344" y="242"/>
      <point x="310" y="209"/>
      <point x="258" y="209" type="curve" smooth="yes"/>
      <point x="235" y="209"/>
      <point x="212" y="217"/>
      <point x="188" y="233" type="curve" smooth="yes"/>
      <point x="164" y="249"/>
      <point x="140" y="257"/>
      <point x="117" y="257" type="curve" smooth="yes"/>
      <point x="92" y="257"/>
      <point x="70" y="240"/>
      <point x="70" y="215" type="curve"/>
    </contour>
  </outline>
</glyph>
<glyph name="exclamdown" format="2">
  <advance width="138"/>
  <unicode hex="00A1"/>
  <outline>
    <contour>
      <point x="70" y="626" type="curve" smooth="yes"/>
      <point x="49" y="626"/>
      <point x="31" y="643"/>
      <point x="31" y="664" type="curve" smooth="yes"/>
      <point x="31" y="685"/>
      <point x="49" y="702"/>
      <point x="70" y="702" type="curve" smooth="yes"/>
      <point x="93" y="702"/>
      <point x="108" y="685"/>
      <point x="108" y="664" type="curve" smooth="yes"/>
      <point x="108" y="643"/>
      <point x="93" y="626"/>
    </contour>
    <contour>
      <point x="84" y="517" type="line"/>
      <point x="84" y="0" type="line"/>
      <point x="30" y="0" type="line"/>
      <point x="39" y="538" type="line"/>
    </contour>
  </outline>
</glyph>
<glyph name="sterling" format="2">
  <advance width="426"/>
  <unicode hex="00A3"/>
  <outline>
    <contour>
      <point x="70" y="0" type="line"/>
      <point x="68" y="39" type="line"/>
      <point x="116" y="40"/>
      <point x="133" y="74"/>
      <point x="133" y="122" type="curve" smooth="yes"/>
      <point x="133" y="334" type="line"/>
      <point x="62" y="334" type="line"/>
      <point x="60" y="371" type="line"/>
      <point x="133" y="371" type="line"/>
      <point x="133" y="545" type="line" smooth="yes"/>
      <point x="133" y="629"/>
      <point x="166" y="684"/>
      <point x="238" y="684" type="curve" smooth="yes"/>
      <point x="265" y="684"/>
      <point x="291" y="676"/>
      <point x="304" y="671" type="curve"/>
      <point x="292" y="634" type="line"/>
      <point x="284" y="638"/>
      <point x="264" y="643"/>
      <point x="251" y="643" type="curve" smooth="yes"/>
      <point x="200" y="643"/>
      <point x="182" y="609"/>
      <point x="182" y="561" type="curve" smooth="yes"/>
      <point x="182" y="371" type="line"/>
      <point x="322" y="371" type="line"/>
      <point x="344" y="334" type="line"/>
      <point x="182" y="334" type="line"/>
      <point x="182" y="143" type="line" smooth="yes"/>
      <point x="182" y="98"/>
      <point x="177" y="64"/>
      <point x="148" y="39" type="curve"/>
      <point x="410" y="39" type="line"/>
      <point x="416" y="0" type="line"/>
    </contour>
  </outline>
</glyph>
<glyph name="currency" format="2">
  <advance width="661"/>
  <unicode hex="00A4"/>
  <outline>
    <contour>
      <point x="59" y="-54" type="line"/>
      <point x="30" y="-22" type="line"/>
      <point x="135" y="82" type="line"/>
      <point x="104" y="126"/>
      <point x="87" y="182"/>
      <point x="87" y="246" type="curve" smooth="yes"/>
      <point x="87" y="305"/>
      <point x="104" y="358"/>
      <point x="136" y="401" type="curve"/>
      <point x="30" y="505" type="line"/>
      <point x="59" y="537" type="line"/>
      <point x="165" y="434" type="line"/>
      <point x="208" y="474"/>
      <point x="267" y="498"/>
      <point x="335" y="498" type="curve" smooth="yes"/>
      <point x="402" y="498"/>
      <point x="457" y="474"/>
      <point x="497" y="435" type="curve"/>
      <point x="602" y="537" type="line"/>
      <point x="631" y="505" type="line"/>
      <point x="526" y="401" type="line"/>
      <point x="557" y="356"/>
      <point x="574" y="299"/>
      <point x="574" y="239" type="curve" smooth="yes"/>
      <point x="574" y="182"/>
      <point x="556" y="127"/>
      <point x="523" y="84" type="curve"/>
      <point x="631" y="-22" type="line"/>
      <point x="602" y="-54" type="line"/>
      <point x="493" y="51" type="line"/>
      <point x="452" y="11"/>
      <point x="393" y="-13"/>
      <point x="325" y="-13" type="curve" smooth="yes"/>
      <point x="260" y="-13"/>
      <point x="205" y="9"/>
      <point x="164" y="48" type="curve"/>
    </contour>
    <contour>
      <point x="523" y="239" type="curve" smooth="yes"/>
      <point x="523" y="355"/>
      <point x="455" y="457"/>
      <point x="335" y="457" type="curve" smooth="yes"/>
      <point x="219" y="457"/>
      <point x="138" y="359"/>
      <point x="138" y="246" type="curve" smooth="yes"/>
      <point x="138" y="121"/>
      <point x="217" y="28"/>
      <point x="325" y="28" type="curve" smooth="yes"/>
      <point x="441" y="28"/>
      <point x="523" y="123"/>
    </contour>
  </outline>
</glyph>
<glyph name="yen" format="2">
  <advance width="530"/>
  <unicode hex="00A5"/>
  <outline>
    <contour>
      <point x="62" y="298" type="line"/>
      <point x="463" y="298" type="line"/>
      <point x="468" y="259" type="line"/>
      <point x="67" y="259" type="line"/>
    </contour>
    <contour>
      <point x="62" y="129" type="line"/>
      <point x="463" y="129" type="line"/>
      <point x="468" y="90" type="line"/>
      <point x="67" y="90" type="line"/>
    </contour>
    <contour>
      <point x="284" y="0" type="line"/>
      <point x="235" y="0" type="line"/>
      <point x="235" y="269" type="line"/>
      <point x="10" y="668" type="line"/>
      <point x="59" y="689" type="line"/>
      <point x="259" y="321" type="line"/>
      <point x="463" y="680" type="line"/>
      <point x="520" y="680" type="line"/>
      <point x="284" y="274" type="line"/>
    </contour>
  </outline>
</glyph>
<glyph name="brokenbar" format="2">
  <advance width="249"/>
  <unicode hex="00A6"/>
  <outline>
    <contour>
      <point x="100" y="710" type="line"/>
      <point x="149" y="706" type="line"/>
      <point x="149" y="406" type="line"/>
      <point x="100" y="410" type="line"/>
    </contour>
    <contour>
      <point x="100" y="292" type="line"/>
      <point x="149" y="288" type="line"/>
      <point x="149" y="-4" type="line"/>
      <point x="100" y="0" type="line"/>
    </contour>
  </outline>
</glyph>
<glyph name="section" format="2">
  <advance width="570"/>
  <unicode hex="00A7"/>
  <outline>
    <contour>
      <point x="432" y="95" type="curve"/>
      <point x="417" y="141" type="line"/>
      <point x="458" y="165"/>
      <point x="479" y="203"/>
      <point x="479" y="244" type="curve" smooth="yes"/>
      <point x="479" y="317"/>
      <point x="419" y="364"/>
      <point x="298" y="414" type="curve" smooth="yes"/>
      <point x="180" y="463"/>
      <point x="116" y="522"/>
      <point x="116" y="619" type="curve" smooth="yes"/>
      <point x="116" y="711"/>
      <point x="194" y="780"/>
      <point x="322" y="780" type="curve" smooth="yes"/>
      <point x="389" y="780"/>
      <point x="450" y="761"/>
      <point x="490" y="741" type="curve"/>
      <point x="468" y="705" type="line"/>
      <point x="433" y="721"/>
      <point x="393" y="739"/>
      <point x="324" y="739" type="curve" smooth="yes"/>
      <point x="228" y="739"/>
      <point x="168" y="683"/>
      <point x="168" y="614" type="curve" smooth="yes"/>
      <point x="168" y="538"/>
      <point x="231" y="489"/>
      <point x="349" y="439" type="curve" smooth="yes"/>
      <point x="470" y="388"/>
      <point x="530" y="332"/>
      <point x="530" y="241" type="curve" smooth="yes"/>
      <point x="530" y="176"/>
      <point x="496" y="123"/>
    </contour>
    <contour>
      <point x="55" y="-77" type="curve"/>
      <point x="70" y="-38" type="line"/>
      <point x="105" y="-55"/>
      <point x="169" y="-77"/>
      <point x="236" y="-77" type="curve" smooth="yes"/>
      <point x="351" y="-77"/>
      <point x="413" y="-15"/>
      <point x="413" y="54" type="curve" smooth="yes"/>
      <point x="413" y="127"/>
      <point x="353" y="174"/>
      <point x="232" y="224" type="curve" smooth="yes"/>
      <point x="114" y="273"/>
      <point x="50" y="332"/>
      <point x="50" y="429" type="curve" smooth="yes"/>
      <point x="50" y="491"/>
      <point x="85" y="542"/>
      <point x="147" y="569" type="curve"/>
      <point x="167" y="528" type="line"/>
      <point x="126" y="506"/>
      <point x="102" y="467"/>
      <point x="102" y="424" type="curve" smooth="yes"/>
      <point x="102" y="348"/>
      <point x="165" y="299"/>
      <point x="283" y="249" type="curve" smooth="yes"/>
      <point x="404" y="198"/>
      <point x="464" y="142"/>
      <point x="464" y="51" type="curve" smooth="yes"/>
      <point x="464" y="-49"/>
      <point x="385" y="-119"/>
      <point x="237" y="-119" type="curve" smooth="yes"/>
      <point x="180" y="-119"/>
      <point x="78" y="-97"/>
    </contour>
  </outline>
</glyph>
<glyph name="dieresis" format="2">
  <advance width="253"/>
  <unicode hex="00A8"/>
  <anchor x="124" y="485" name="_top"/>
  <outline>
    <contour>
      <point x="206" y="618" type="curve" smooth="yes"/>
      <point x="183" y="618"/>
      <point x="169" y="634"/>
      <point x="169" y="655" type="curve" smooth="yes"/>
      <point x="169" y="676"/>
      <point x="183" y="691"/>
      <point x="206" y="691" type="curve" smooth="yes"/>
      <point x="226" y="691"/>
      <point x="243" y="676"/>
      <point x="243" y="655" type="curve" smooth="yes"/>
      <point x="243" y="634"/>
      <point x="226" y="618"/>
    </contour>
    <contour>
      <point x="47" y="618" type="curve" smooth="yes"/>
      <point x="24" y="618"/>
      <point x="10" y="634"/>
      <point x="10" y="655" type="curve" smooth="yes"/>
      <point x="10" y="676"/>
      <point x="24" y="691"/>
      <point x="47" y="691" type="curve" smooth="yes"/>
      <point x="67" y="691"/>
      <point x="84" y="676"/>
      <point x="84" y="655" type="curve" smooth="yes"/>
      <point x="84" y="634"/>
      <point x="67" y="618"/>
    </contour>
  </outline>
</glyph>
<glyph name="copyright" format="2">
  <advance width="787"/>
  <unicode hex="00A9"/>
  <outline>
    <contour>
      <point x="747" y="336" type="curve" smooth="yes"/>
      <point x="747" y="139"/>
      <point x="606" y="-12"/>
      <point x="393" y="-12" type="curve" smooth="yes"/>
      <point x="172" y="-12"/>
      <point x="40" y="139"/>
      <point x="40" y="336" type="curve" smooth="yes"/>
      <point x="40" y="535"/>
      <point x="178" y="686"/>
      <point x="393" y="686" type="curve" smooth="yes"/>
      <point x="606" y="686"/>
      <point x="747" y="535"/>
    </contour>
    <contour>
      <point x="87" y="337" type="curve" smooth="yes"/>
      <point x="87" y="162"/>
      <point x="206" y="25"/>
      <point x="393" y="25" type="curve" smooth="yes"/>
      <point x="580" y="25"/>
      <point x="700" y="162"/>
      <point x="700" y="337" type="curve" smooth="yes"/>
      <point x="700" y="512"/>
      <point x="580" y="648"/>
      <point x="393" y="648" type="curve" smooth="yes"/>
      <point x="206" y="648"/>
      <point x="87" y="512"/>
    </contour>
    <contour>
      <point x="406" y="120" type="curve" smooth="yes"/>
      <point x="294" y="120"/>
      <point x="200" y="196"/>
      <point x="200" y="341" type="curve" smooth="yes"/>
      <point x="200" y="486"/>
      <point x="294" y="562"/>
      <point x="406" y="562" type="curve" smooth="yes"/>
      <point x="445" y="562"/>
      <point x="504" y="545"/>
      <point x="533" y="520" type="curve"/>
      <point x="513" y="489" type="line"/>
      <point x="486" y="506"/>
      <point x="448" y="523"/>
      <point x="404" y="523" type="curve" smooth="yes"/>
      <point x="315" y="523"/>
      <point x="249" y="454"/>
      <point x="249" y="341" type="curve" smooth="yes"/>
      <point x="249" y="228"/>
      <point x="315" y="159"/>
      <point x="404" y="159" type="curve" smooth="yes"/>
      <point x="448" y="159"/>
      <point x="486" y="176"/>
      <point x="513" y="193" type="curve"/>
      <point x="533" y="162" type="line"/>
      <point x="504" y="137"/>
      <point x="445" y="120"/>
    </contour>
  </outline>
</glyph>
<glyph name="ordfeminine" format="2">
  <advance width="332"/>
  <unicode hex="00AA"/>
  <outline>
    <contour>
      <point x="85" y="466" type="curve" smooth="yes"/>
      <point x="85" y="433"/>
      <point x="112" y="397"/>
      <point x="155" y="397" type="curve" smooth="yes"/>
      <point x="192" y="397"/>
      <point x="225" y="418"/>
      <point x="246" y="447" type="curve"/>
      <point x="246" y="533" type="line"/>
      <point x="169" y="533" type="line" smooth="yes"/>
      <point x="112" y="533"/>
      <point x="85" y="503"/>
    </contour>
    <contour>
      <point x="74" y="641" type="curve"/>
      <point x="62" y="673" type="line"/>
      <point x="87" y="690"/>
      <point x="138" y="702"/>
      <point x="165" y="702" type="curve" smooth="yes"/>
      <point x="250" y="702"/>
      <point x="292" y="643"/>
      <point x="292" y="580" type="curve" smooth="yes"/>
      <point x="292" y="372" type="line"/>
      <point x="260" y="372" type="line"/>
      <point x="249" y="408" type="line"/>
      <point x="226" y="381"/>
      <point x="190" y="363"/>
      <point x="155" y="363" type="curve" smooth="yes"/>
      <point x="83" y="363"/>
      <point x="40" y="409"/>
      <point x="40" y="466" type="curve" smooth="yes"/>
      <point x="40" y="527"/>
      <point x="92" y="564"/>
      <point x="160" y="564" type="curve" smooth="yes"/>
      <point x="246" y="564" type="line"/>
      <point x="246" y="587" type="line" smooth="yes"/>
      <point x="246" y="632"/>
      <point x="219" y="663"/>
      <point x="166" y="663" type="curve" smooth="yes"/>
      <point x="121" y="663"/>
      <point x="98" y="650"/>
    </contour>
  </outline>
</glyph>
<glyph name="guillemotleft" format="2">
  <advance width="363"/>
  <unicode hex="00AB"/>
  <outline>
    <contour>
      <point x="182" y="229" type="line"/>
      <point x="182" y="261" type="line"/>
      <point x="322" y="406" type="line"/>
      <point x="343" y="375" type="line"/>
      <point x="220" y="245" type="line"/>
      <point x="343" y="115" type="line"/>
      <point x="322" y="84" type="line"/>
    </contour>
    <contour>
      <point x="30" y="229" type="line"/>
      <point x="30" y="261" type="line"/>
      <point x="170" y="406" type="line"/>
      <point x="191" y="375" type="line"/>
      <point x="69" y="245" type="line"/>
      <point x="191" y="115" type="line"/>
      <point x="170" y="84" type="line"/>
    </contour>
  </outline>
</glyph>
<glyph name="logicalnot" format="2">
  <advance width="505"/>
  <unicode hex="00AC"/>
  <outline>
    <contour>
      <point x="467" y="406" type="line"/>
      <point x="475" y="356" type="line"/>
      <point x="475" y="112" type="line"/>
      <point x="426" y="117" type="line"/>
      <point x="426" y="367" type="line"/>
      <point x="18" y="367" type="line"/>
      <point x="10" y="406" type="line"/>
    </contour>
  </outline>
</glyph>
<glyph name="registered" format="2">
  <advance width="715"/>
  <unicode hex="00AE"/>
  <outline>
    <contour>
      <point x="675" y="487" type="curve" smooth="yes"/>
      <point x="675" y="312"/>
      <point x="545" y="178"/>
      <point x="358" y="178" type="curve" smooth="yes"/>
      <point x="171" y="178"/>
      <point x="40" y="312"/>
      <point x="40" y="487" type="curve" smooth="yes"/>
      <point x="40" y="663"/>
      <point x="167" y="798"/>
      <point x="358" y="798" type="curve" smooth="yes"/>
      <point x="545" y="798"/>
      <point x="675" y="663"/>
    </contour>
    <contour>
      <point x="88" y="488" type="curve" smooth="yes"/>
      <point x="88" y="336"/>
      <point x="193" y="216"/>
      <point x="358" y="215" type="curve" smooth="yes"/>
      <point x="521" y="216"/>
      <point x="626" y="336"/>
      <point x="626" y="488" type="curve" smooth="yes"/>
      <point x="626" y="643"/>
      <point x="521" y="760"/>
      <point x="358" y="760" type="curve" smooth="yes"/>
      <point x="193" y="760"/>
      <point x="88" y="643"/>
    </contour>
    <contour>
      <point x="337" y="647" type="curve" smooth="yes"/>
      <point x="297" y="647" type="line"/>
      <point x="297" y="494" type="line"/>
      <point x="332" y="494" type="line" smooth="yes"/>
      <point x="388" y="494"/>
      <point x="437" y="510"/>
      <point x="437" y="571" type="curve" smooth="yes"/>
      <point x="437" y="636"/>
      <point x="394" y="647"/>
    </contour>
    <contour>
      <point x="505" y="304" type="line"/>
      <point x="458" y="304" type="line"/>
      <point x="368" y="463" type="line"/>
      <point x="363" y="463"/>
      <point x="359" y="463"/>
      <point x="354" y="463" type="curve"/>
      <point x="349" y="462"/>
      <point x="344" y="462"/>
      <point x="339" y="462" type="curve" smooth="yes"/>
      <point x="297" y="462" type="line"/>
      <point x="297" y="304" type="line"/>
      <point x="257" y="304" type="line"/>
      <point x="257" y="680" type="line"/>
      <point x="344" y="680" type="line" smooth="yes"/>
      <point x="423" y="680"/>
      <point x="480" y="651"/>
      <point x="480" y="572" type="curve" smooth="yes"/>
      <point x="480" y="521"/>
      <point x="444" y="485"/>
      <point x="407" y="469" type="curve"/>
    </contour>
  </outline>
</glyph>
<glyph name="macron" format="2">
  <advance width="261"/>
  <unicode hex="00AF"/>
  <outline>
    <contour>
      <point x="10" y="640" type="line"/>
      <point x="10" y="677" type="line"/>
      <point x="245" y="677" type="line"/>
      <point x="251" y="640" type="line"/>
    </contour>
  </outline>
</glyph>
<glyph name="degree" format="2">
  <advance width="243"/>
  <unicode hex="00B0"/>
  <outline>
    <contour>
      <point x="116" y="702" type="curve" smooth="yes"/>
      <point x="177" y="702"/>
      <point x="223" y="656"/>
      <point x="223" y="599" type="curve" smooth="yes"/>
      <point x="223" y="539"/>
      <point x="177" y="498"/>
      <point x="116" y="498" type="curve" smooth="yes"/>
      <point x="55" y="498"/>
      <point x="10" y="539"/>
      <point x="10" y="599" type="curve" smooth="yes"/>
      <point x="10" y="656"/>
      <point x="55" y="702"/>
    </contour>
    <contour>
      <point x="120" y="529" type="curve" smooth="yes"/>
      <point x="164" y="529"/>
      <point x="184" y="567"/>
      <point x="184" y="600" type="curve" smooth="yes"/>
      <point x="184" y="633"/>
      <point x="157" y="670"/>
      <point x="116" y="670" type="curve" smooth="yes"/>
      <point x="75" y="670"/>
      <point x="50" y="633"/>
      <point x="50" y="600" type="curve" smooth="yes"/>
      <point x="50" y="567"/>
      <point x="77" y="529"/>
    </contour>
  </outline>
</glyph>
<glyph name="plusminus" format="2">
  <advance width="492"/>
  <unicode hex="00B1"/>
  <outline>
    <contour>
      <point x="447" y="345" type="line"/>
      <point x="455" y="308" type="line"/>
      <point x="266" y="308" type="line"/>
      <point x="266" y="108" type="line"/>
      <point x="217" y="113" type="line"/>
      <point x="217" y="308" type="line"/>
      <point x="38" y="308" type="line"/>
      <point x="30" y="345" type="line"/>
      <point x="217" y="345" type="line"/>
      <point x="217" y="534" type="line"/>
      <point x="266" y="531" type="line"/>
      <point x="266" y="345" type="line"/>
    </contour>
    <contour>
      <point x="454" y="37" type="line"/>
      <point x="462" y="0" type="line"/>
      <point x="38" y="0" type="line"/>
      <point x="30" y="37" type="line"/>
    </contour>
  </outline>
</glyph>
<glyph name="twosuperior" format="2">
  <advance width="342"/>
  <unicode hex="00B2"/>
  <outline>
    <contour>
      <point x="172" y="771" type="curve" smooth="yes"/>
      <point x="265" y="771"/>
      <point x="308" y="709"/>
      <point x="308" y="653" type="curve" smooth="yes"/>
      <point x="308" y="597"/>
      <point x="279" y="550"/>
      <point x="207" y="485" type="curve" smooth="yes"/>
      <point x="76" y="369" type="line"/>
      <point x="316" y="369" type="line"/>
      <point x="322" y="336" type="line"/>
      <point x="25" y="336" type="line"/>
      <point x="25" y="373" type="line"/>
      <point x="181" y="515" type="line" smooth="yes"/>
      <point x="247.0" y="575.0"/>
      <point x="263.0" y="617.0"/>
      <point x="263" y="647" type="curve" smooth="yes"/>
      <point x="263" y="684"/>
      <point x="238" y="736"/>
      <point x="170" y="736" type="curve" smooth="yes"/>
      <point x="129" y="736"/>
      <point x="72" y="713"/>
      <point x="46" y="702" type="curve"/>
      <point x="29" y="733" type="line"/>
      <point x="63" y="751"/>
      <point x="124" y="771"/>
    </contour>
  </outline>
</glyph>
<glyph name="threesuperior" format="2">
  <advance width="354"/>
  <unicode hex="00B3"/>
  <outline>
    <contour>
      <point x="155" y="771" type="curve" smooth="yes"/>
      <point x="255" y="771"/>
      <point x="300" y="716"/>
      <point x="300" y="651" type="curve" smooth="yes"/>
      <point x="300" y="596"/>
      <point x="265" y="553"/>
      <point x="220" y="538" type="curve"/>
      <point x="277" y="525"/>
      <point x="309" y="479"/>
      <point x="309" y="416" type="curve" smooth="yes"/>
      <point x="309" y="339"/>
      <point x="248" y="278"/>
      <point x="143" y="278" type="curve" smooth="yes"/>
      <point x="87" y="278"/>
      <point x="35" y="298"/>
      <point x="0" y="318" type="curve"/>
      <point x="24" y="350" type="line"/>
      <point x="59" y="329"/>
      <point x="90" y="317"/>
      <point x="147" y="317" type="curve" smooth="yes"/>
      <point x="207" y="317"/>
      <point x="264" y="354"/>
      <point x="264" y="415" type="curve" smooth="yes"/>
      <point x="264" y="480"/>
      <point x="232" y="519"/>
      <point x="128" y="519" type="curve" smooth="yes"/>
      <point x="103" y="519" type="line"/>
      <point x="96" y="552" type="line"/>
      <point x="133" y="552" type="line" smooth="yes"/>
      <point x="216" y="552"/>
      <point x="254" y="593"/>
      <point x="254" y="650" type="curve" smooth="yes"/>
      <point x="254" y="695"/>
      <point x="215" y="735"/>
      <point x="154" y="735" type="curve" smooth="yes"/>
      <point x="97" y="735"/>
      <point x="56" y="713"/>
      <point x="31" y="697" type="curve"/>
      <point x="9" y="727" type="line"/>
      <point x="49" y="752"/>
      <point x="94" y="771"/>
    </contour>
  </outline>
</glyph>
<glyph name="acute" format="2">
  <advance width="137"/>
  <unicode hex="00B4"/>
  <outline>
    <contour>
      <point x="42" y="589" type="line"/>
      <point x="10" y="600" type="line"/>
      <point x="66" y="742" type="line"/>
      <point x="127" y="742" type="line"/>
    </contour>
  </outline>
</glyph>
<glyph name="mu" format="2">
  <advance width="510"/>
  <unicode hex="00B5"/>
  <outline>
    <contour>
      <point x="125" y="-208" type="line"/>
      <point x="76" y="-219" type="line"/>
      <point x="76" y="398" type="line"/>
      <point x="125" y="418" type="line"/>
    </contour>
    <contour>
      <point x="391" y="485" type="line"/>
      <point x="440" y="485" type="line"/>
      <point x="440" y="0" type="line"/>
      <point x="402" y="0" type="line"/>
      <point x="392" y="76" type="line"/>
      <point x="351" y="28"/>
      <point x="280" y="-13"/>
      <point x="220" y="-13" type="curve" smooth="yes"/>
      <point x="116" y="-13"/>
      <point x="76" y="55"/>
      <point x="76" y="148" type="curve" smooth="yes"/>
      <point x="76" y="485" type="line"/>
      <point x="125" y="485" type="line"/>
      <point x="125" y="148" type="line" smooth="yes"/>
      <point x="125" y="81"/>
      <point x="143" y="28"/>
      <point x="216" y="28" type="curve" smooth="yes"/>
      <point x="274" y="28"/>
      <point x="335" y="69"/>
      <point x="391" y="126" type="curve"/>
    </contour>
  </outline>
</glyph>
<glyph name="paragraph" format="2">
  <advance width="808"/>
  <unicode hex="00B6"/>
  <outline>
    <contour>
      <point x="383" y="0" type="line"/>
      <point x="334" y="0" type="line"/>
      <point x="334" y="264" type="line"/>
      <point x="296" y="264" type="line" smooth="yes"/>
      <point x="155" y="264"/>
      <point x="40" y="336"/>
      <point x="40" y="475" type="curve" smooth="yes"/>
      <point x="40" y="614"/>
      <point x="142" y="680"/>
      <point x="285" y="680" type="curve" smooth="yes"/>
      <point x="768" y="680" type="line"/>
      <point x="768" y="641" type="line"/>
      <point x="656" y="641" type="line"/>
      <point x="656" y="0" type="line"/>
      <point x="607" y="0" type="line"/>
      <point x="607" y="641" type="line"/>
      <point x="383" y="641" type="line"/>
    </contour>
  </outline>
</glyph>
<glyph name="periodcentered" format="2">
  <advance width="137"/>
  <unicode hex="00B7"/>
  <outline>
    <contour>
      <point x="68" y="224" type="curve" smooth="yes"/>
      <point x="45" y="224"/>
      <point x="30" y="241"/>
      <point x="30" y="262" type="curve" smooth="yes"/>
      <point x="30" y="283"/>
      <point x="45" y="300"/>
      <point x="68" y="300" type="curve" smooth="yes"/>
      <point x="89" y="300"/>
      <point x="107" y="283"/>
      <point x="107" y="262" type="curve" smooth="yes"/>
      <point x="107" y="241"/>
      <point x="89" y="224"/>
    </contour>
  </outline>
</glyph>
<glyph name="cedilla" format="2">
  <advance width="206"/>
  <unicode hex="00B8"/>
  <outline>
    <contour>
      <point x="55" y="-77" type="curve"/>
      <point x="89" y="13" type="line"/>
      <point x="130" y="13" type="line"/>
      <point x="105" y="-51" type="line"/>
      <point x="165" y="-62"/>
      <point x="196" y="-101"/>
      <point x="196" y="-136" type="curve" smooth="yes"/>
      <point x="196" y="-187"/>
      <point x="152" y="-221"/>
      <point x="87" y="-221" type="curve" smooth="yes"/>
      <point x="63" y="-221"/>
      <point x="27" y="-213"/>
      <point x="10" y="-202" type="curve"/>
      <point x="25" y="-171" type="line"/>
      <point x="37" y="-176"/>
      <point x="63" y="-185"/>
      <point x="84" y="-185" type="curve" smooth="yes"/>
      <point x="125" y="-185"/>
      <point x="154" y="-163"/>
      <point x="154" y="-138" type="curve" smooth="yes"/>
      <point x="154" y="-110"/>
      <point x="119" y="-77"/>
    </contour>
  </outline>
</glyph>
<glyph name="onesuperior" format="2">
  <advance width="240"/>
  <unicode hex="00B9"/>
  <outline>
    <contour>
      <point x="160" y="336" type="line"/>
      <point x="117" y="336" type="line"/>
      <point x="117" y="716" type="line"/>
      <point x="33" y="675" type="line"/>
      <point x="10" y="700" type="line"/>
      <point x="136" y="765" type="line"/>
      <point x="160" y="765" type="line"/>
    </contour>
  </outline>
</glyph>
<glyph name="ordmasculine" format="2">
  <advance width="344"/>
  <unicode hex="00BA"/>
  <outline>
    <contour>
      <point x="171" y="702" type="curve" smooth="yes"/>
      <point x="251" y="702"/>
      <point x="324" y="640"/>
      <point x="324" y="532" type="curve" smooth="yes"/>
      <point x="324" y="428"/>
      <point x="253" y="363"/>
      <point x="172" y="363" type="curve" smooth="yes"/>
      <point x="92" y="363"/>
      <point x="20" y="424"/>
      <point x="20" y="532" type="curve" smooth="yes"/>
      <point x="20" y="636"/>
      <point x="92" y="702"/>
    </contour>
    <contour>
      <point x="171" y="667" type="curve" smooth="yes"/>
      <point x="119" y="667"/>
      <point x="65" y="619"/>
      <point x="65" y="532" type="curve" smooth="yes"/>
      <point x="65" y="449"/>
      <point x="116" y="399"/>
      <point x="172" y="399" type="curve" smooth="yes"/>
      <point x="225" y="399"/>
      <point x="279" y="445"/>
      <point x="279" y="532" type="curve" smooth="yes"/>
      <point x="279" y="616"/>
      <point x="232" y="667"/>
    </contour>
  </outline>
</glyph>
<glyph name="guillemotright" format="2">
  <advance width="363"/>
  <unicode hex="00BB"/>
  <outline>
    <contour>
      <point x="181" y="261" type="line"/>
      <point x="181" y="229" type="line"/>
      <point x="41" y="84" type="line"/>
      <point x="20" y="115" type="line"/>
      <point x="143" y="245" type="line"/>
      <point x="20" y="375" type="line"/>
      <point x="41" y="406" type="line"/>
    </contour>
    <contour>
      <point x="333" y="261" type="line"/>
      <point x="333" y="229" type="line"/>
      <point x="193" y="84" type="line"/>
      <point x="172" y="115" type="line"/>
      <point x="294" y="245" type="line"/>
      <point x="172" y="375" type="line"/>
      <point x="193" y="406" type="line"/>
    </contour>
  </outline>
</glyph>
<glyph name="onequarter" format="2">
  <advance width="710"/>
  <unicode hex="00BC"/>
  <outline>
    <contour>
      <point x="690" y="-31" type="line"/>
      <point x="686" y="-65" type="line"/>
      <point x="605" y="-65" type="line"/>
      <point x="605" y="-163" type="line"/>
      <point x="561" y="-163" type="line"/>
      <point x="561" y="-65" type="line"/>
      <point x="328" y="-65" type="line"/>
      <point x="324" y="-31" type="line"/>
      <point x="577" y="321" type="line"/>
      <point x="605" y="321" type="line"/>
      <point x="605" y="-31" type="line"/>
    </contour>
    <contour>
      <point x="561" y="238" type="line"/>
      <point x="371" y="-31" type="line"/>
      <point x="561" y="-31" type="line"/>
    </contour>
    <contour>
      <point x="531" y="700" type="line"/>
      <point x="576" y="700" type="line"/>
      <point x="75" y="-134" type="line"/>
      <point x="25" y="-134" type="line"/>
    </contour>
    <contour>
      <point x="160" y="336" type="line"/>
      <point x="117" y="336" type="line"/>
      <point x="117" y="716" type="line"/>
      <point x="33" y="675" type="line"/>
      <point x="10" y="700" type="line"/>
      <point x="136" y="765" type="line"/>
      <point x="160" y="765" type="line"/>
    </contour>
  </outline>
</glyph>
<glyph name="threequarters" format="2">
  <advance width="773"/>
  <unicode hex="00BE"/>
  <outline>
    <contour>
      <point x="155" y="771" type="curve" smooth="yes"/>
      <point x="255" y="771"/>
      <point x="300" y="716"/>
      <point x="300" y="651" type="curve" smooth="yes"/>
      <point x="300" y="596"/>
      <point x="265" y="553"/>
      <point x="220" y="538" type="curve"/>
      <point x="277" y="525"/>
      <point x="309" y="479"/>
      <point x="309" y="416" type="curve" smooth="yes"/>
      <point x="309" y="339"/>
      <point x="248" y="278"/>
      <point x="143" y="278" type="curve" smooth="yes"/>
      <point x="87" y="278"/>
      <point x="35" y="298"/>
      <point x="0" y="318" type="curve"/>
      <point x="24" y="350" type="line"/>
      <point x="59" y="329"/>
      <point x="90" y="317"/>
      <point x="147" y="317" type="curve" smooth="yes"/>
      <point x="207" y="317"/>
      <point x="264" y="354"/>
      <point x="264" y="415" type="curve" smooth="yes"/>
      <point x="264" y="480"/>
      <point x="232" y="519"/>
      <point x="128" y="519" type="curve" smooth="yes"/>
      <point x="103" y="519" type="line"/>
      <point x="96" y="552" type="line"/>
      <point x="133" y="552" type="line" smooth="yes"/>
      <point x="216" y="552"/>
      <point x="254" y="593"/>
      <point x="254" y="650" type="curve" smooth="yes"/>
      <point x="254" y="695"/>
      <point x="215" y="735"/>
      <point x="154" y="735" type="curve" smooth="yes"/>
      <point x="97" y="735"/>
      <point x="56" y="713"/>
      <point x="31" y="697" type="curve"/>
      <point x="9" y="727" type="line"/>
      <point x="49" y="752"/>
      <point x="94" y="771"/>
    </contour>
    <contour>
      <point x="753" y="-31" type="line"/>
      <point x="749" y="-65" type="line"/>
      <point x="668" y="-65" type="line"/>
      <point x="668" y="-163" type="line"/>
      <point x="624" y="-163" type="line"/>
      <point x="624" y="-65" type="line"/>
      <point x="391" y="-65" type="line"/>
      <point x="387" y="-31" type="line"/>
      <point x="640" y="321" type="line"/>
      <point x="668" y="321" type="line"/>
      <point x="668" y="-31" type="line"/>
    </contour>
    <contour>
      <point x="624" y="238" type="line"/>
      <point x="434" y="-31" type="line"/>
      <point x="624" y="-31" type="line"/>
    </contour>
    <contour>
      <point x="621" y="700" type="line"/>
      <point x="666" y="700" type="line"/>
      <point x="165" y="-134" type="line"/>
      <point x="115" y="-134" type="line"/>
    </contour>
  </outline>
</glyph>
<glyph name="questiondown" format="2">
  <advance width="392"/>
  <unicode hex="00BF"/>
  <outline>
    <contour>
      <point x="238" y="546" type="curve" smooth="yes"/>
      <point x="217" y="546"/>
      <point x="199" y="563"/>
      <point x="199" y="584" type="curve" smooth="yes"/>
      <point x="199" y="605"/>
      <point x="217" y="622"/>
      <point x="238" y="622" type="curve" smooth="yes"/>
      <point x="261" y="622"/>
      <point x="276" y="605"/>
      <point x="276" y="584" type="curve" smooth="yes"/>
      <point x="276" y="563"/>
      <point x="261" y="546"/>
    </contour>
    <contour>
      <point x="206" y="-80" type="curve" smooth="yes"/>
      <point x="87" y="-80"/>
      <point x="30" y="-12"/>
      <point x="30" y="84" type="curve" smooth="yes"/>
      <point x="30" y="160"/>
      <point x="92" y="241"/>
      <point x="203" y="290" type="curve"/>
      <point x="213" y="485" type="line"/>
      <point x="246" y="464" type="line"/>
      <point x="253" y="259" type="line"/>
      <point x="149" y="226"/>
      <point x="83" y="161"/>
      <point x="83" y="85" type="curve" smooth="yes"/>
      <point x="83" y="5"/>
      <point x="132" y="-39"/>
      <point x="208" y="-39" type="curve" smooth="yes"/>
      <point x="280" y="-39"/>
      <point x="322" y="-15"/>
      <point x="374" y="22" type="curve"/>
      <point x="382" y="-19" type="line"/>
      <point x="347" y="-50"/>
      <point x="285" y="-80"/>
    </contour>
  </outline>
</glyph>
<glyph name="AE" format="2">
  <advance width="829"/>
  <unicode hex="00C6"/>
  <outline>
    <contour>
      <point x="434" y="0" type="line"/>
      <point x="434" y="213" type="line"/>
      <point x="190" y="213" type="line"/>
      <point x="60" y="-5" type="line"/>
      <point x="10" y="5" type="line"/>
      <point x="426" y="680" type="line"/>
      <point x="781" y="680" type="line"/>
      <point x="786" y="641" type="line"/>
      <point x="483" y="641" type="line"/>
      <point x="483" y="368" type="line"/>
      <point x="723" y="368" type="line"/>
      <point x="728" y="329" type="line"/>
      <point x="483" y="329" type="line"/>
      <point x="483" y="39" type="line"/>
      <point x="803" y="39" type="line"/>
      <point x="809" y="0" type="line"/>
    </contour>
    <contour>
      <point x="434" y="611" type="line"/>
      <point x="214" y="252" type="line"/>
      <point x="434" y="252" type="line"/>
    </contour>
  </outline>
</glyph>
<glyph name="Eth" format="2">
  <advance width="662"/>
  <unicode hex="00D0"/>
  <outline>
    <contour>
      <point x="268" y="314" type="line"/>
      <point x="20" y="314" type="line"/>
      <point x="10" y="353" type="line"/>
      <point x="258" y="353" type="line"/>
    </contour>
    <contour>
      <point x="321" y="0" type="curve" smooth="yes"/>
      <point x="100" y="0" type="line"/>
      <point x="100" y="680" type="line"/>
      <point x="324" y="680" type="line" smooth="yes"/>
      <point x="533" y="680"/>
      <point x="612" y="529"/>
      <point x="612" y="344" type="curve" smooth="yes"/>
      <point x="612" y="155"/>
      <point x="520" y="0"/>
    </contour>
    <contour>
      <point x="332" y="641" type="curve" smooth="yes"/>
      <point x="149" y="641" type="line"/>
      <point x="149" y="39" type="line"/>
      <point x="322" y="39" type="line" smooth="yes"/>
      <point x="465" y="39"/>
      <point x="561" y="168"/>
      <point x="561" y="343" type="curve" smooth="yes"/>
      <point x="561" y="504"/>
      <point x="487" y="641"/>
    </contour>
  </outline>
</glyph>
<glyph name="multiply" format="2">
  <advance width="470"/>
  <unicode hex="00D7"/>
  <outline>
    <contour>
      <point x="257" y="245" type="line"/>
      <point x="440" y="464" type="line"/>
      <point x="389" y="464" type="line"/>
      <point x="236" y="288" type="line"/>
      <point x="96" y="464" type="line"/>
      <point x="47" y="464" type="line"/>
      <point x="213" y="250" type="line"/>
      <point x="30" y="31" type="line"/>
      <point x="81" y="31" type="line"/>
      <point x="231" y="207" type="line"/>
      <point x="374" y="31" type="line"/>
      <point x="423" y="31" type="line"/>
    </contour>
  </outline>
</glyph>
<glyph name="Oslash" format="2">
  <advance width="707"/>
  <unicode hex="00D8"/>
  <outline>
    <contour>
      <point x="504" y="629" type="line"/>
      <point x="251" y="37" type="line"/>
      <point x="207" y="58" type="line"/>
      <point x="456" y="642" type="line"/>
    </contour>
    <contour>
      <point x="357" y="696" type="curve" smooth="yes"/>
      <point x="531" y="696"/>
      <point x="657" y="549"/>
      <point x="657" y="345" type="curve" smooth="yes"/>
      <point x="657" y="137"/>
      <point x="528" y="-14"/>
      <point x="351" y="-14" type="curve" smooth="yes"/>
      <point x="176" y="-14"/>
      <point x="50" y="133"/>
      <point x="50" y="337" type="curve" smooth="yes"/>
      <point x="50" y="545"/>
      <point x="179" y="696"/>
    </contour>
    <contour>
      <point x="105" y="338" type="curve" smooth="yes"/>
      <point x="105" y="158"/>
      <point x="207" y="27"/>
      <point x="349" y="27" type="curve" smooth="yes"/>
      <point x="496" y="27"/>
      <point x="602" y="160"/>
      <point x="602" y="344" type="curve" smooth="yes"/>
      <point x="602" y="524"/>
      <point x="500" y="654"/>
      <point x="358" y="654" type="curve" smooth="yes"/>
      <point x="211" y="654"/>
      <point x="105" y="521"/>
    </contour>
  </outline>
</glyph>
<glyph name="Thorn" format="2">
  <advance width="548"/>
  <unicode hex="00DE"/>
  <outline>
    <contour>
      <point x="263" y="600" type="curve" smooth="yes"/>
      <point x="149" y="600" type="line"/>
      <point x="149" y="680" type="line"/>
      <point x="100" y="680" type="line"/>
      <point x="100" y="0" type="line"/>
      <point x="149" y="0" type="line"/>
      <point x="149" y="184" type="line"/>
      <point x="252" y="184" type="line" smooth="yes"/>
      <point x="393" y="184"/>
      <point x="508" y="248"/>
      <point x="508" y="395" type="curve" smooth="yes"/>
      <point x="508" y="543"/>
      <point x="404" y="600"/>
    </contour>
    <contour>
      <point x="264" y="223" type="curve" smooth="yes"/>
      <point x="149" y="223" type="line"/>
      <point x="149" y="560" type="line"/>
      <point x="275" y="560" type="line" smooth="yes"/>
      <point x="384" y="560"/>
      <point x="458" y="511"/>
      <point x="458" y="394" type="curve" smooth="yes"/>
      <point x="458" y="281"/>
      <point x="371" y="223"/>
    </contour>
  </outline>
</glyph>
<glyph name="germandbls" format="2">
  <advance width="544"/>
  <unicode hex="00DF"/>
  <outline>
    <contour>
      <point x="80" y="0" type="line"/>
      <point x="80" y="473" type="line" smooth="yes"/>
      <point x="80" y="602"/>
      <point x="152" y="680"/>
      <point x="276" y="680" type="curve" smooth="yes"/>
      <point x="380" y="680"/>
      <point x="465" y="619"/>
      <point x="465" y="503" type="curve" smooth="yes"/>
      <point x="465" y="432"/>
      <point x="429" y="381"/>
      <point x="369" y="356" type="curve"/>
      <point x="441" y="336"/>
      <point x="499" y="275"/>
      <point x="499" y="188" type="curve" smooth="yes"/>
      <point x="499" y="45"/>
      <point x="384" y="0"/>
      <point x="243" y="0" type="curve" smooth="yes"/>
      <point x="205" y="0" type="line"/>
      <point x="205" y="39" type="line"/>
      <point x="256" y="39" type="line" smooth="yes"/>
      <point x="363" y="39"/>
      <point x="447" y="81"/>
      <point x="447" y="186" type="curve" smooth="yes"/>
      <point x="447" y="287"/>
      <point x="375" y="333"/>
      <point x="266" y="333" type="curve" smooth="yes"/>
      <point x="221" y="333" type="line"/>
      <point x="221" y="372" type="line"/>
      <point x="248" y="372" type="line" smooth="yes"/>
      <point x="368" y="372"/>
      <point x="413" y="418"/>
      <point x="413" y="502" type="curve" smooth="yes"/>
      <point x="413" y="590"/>
      <point x="351" y="639"/>
      <point x="279" y="639" type="curve" smooth="yes"/>
      <point x="180" y="639"/>
      <point x="130" y="564"/>
      <point x="130" y="473" type="curve" smooth="yes"/>
      <point x="130" y="0" type="line"/>
    </contour>
  </outline>
</glyph>
<glyph name="ae" format="2">
  <advance width="795"/>
  <unicode hex="00E6"/>
  <outline>
    <contour>
      <point x="755" y="242" type="line"/>
      <point x="755" y="248" type="line" smooth="yes"/>
      <point x="755" y="390"/>
      <point x="679" y="498"/>
      <point x="567" y="498" type="curve" smooth="yes"/>
      <point x="487" y="498"/>
      <point x="431" y="465"/>
      <point x="396" y="410" type="curve"/>
      <point x="374" y="465"/>
      <point x="322" y="498"/>
      <point x="241" y="498" type="curve" smooth="yes"/>
      <point x="201" y="498"/>
      <point x="123" y="481"/>
      <point x="86" y="456" type="curve"/>
      <point x="105" y="423" type="line"/>
      <point x="145" y="442"/>
      <point x="179" y="457"/>
      <point x="244" y="457" type="curve" smooth="yes"/>
      <point x="323" y="457"/>
      <point x="360" y="408"/>
      <point x="360" y="341" type="curve" smooth="yes"/>
      <point x="360" y="281" type="line"/>
      <point x="225" y="281" type="line" smooth="yes"/>
      <point x="124" y="281"/>
      <point x="52" y="228"/>
      <point x="52" y="136" type="curve" smooth="yes"/>
      <point x="52" y="52"/>
      <point x="106" y="-13"/>
      <point x="215" y="-13" type="curve" smooth="yes"/>
      <point x="311" y="-13"/>
      <point x="362" y="24"/>
      <point x="396" y="79" type="curve"/>
      <point x="433" y="22"/>
      <point x="494" y="-13"/>
      <point x="585" y="-13" type="curve" smooth="yes"/>
      <point x="624" y="-13"/>
      <point x="700" y="0"/>
      <point x="740" y="25" type="curve"/>
      <point x="720" y="62" type="line"/>
      <point x="687" y="45"/>
      <point x="648" y="28"/>
      <point x="577" y="28" type="curve" smooth="yes"/>
      <point x="457" y="28"/>
      <point x="407" y="126"/>
      <point x="406" y="242" type="curve"/>
    </contour>
    <contour>
      <point x="408" y="279" type="line"/>
      <point x="417" y="374"/>
      <point x="464" y="457"/>
      <point x="560" y="457" type="curve" smooth="yes"/>
      <point x="656" y="457"/>
      <point x="694" y="374"/>
      <point x="703" y="279" type="curve"/>
    </contour>
    <contour>
      <point x="360" y="244" type="line"/>
      <point x="360" y="199"/>
      <point x="364" y="156"/>
      <point x="376" y="120" type="curve"/>
      <point x="345" y="69"/>
      <point x="300" y="28"/>
      <point x="219" y="28" type="curve" smooth="yes"/>
      <point x="147" y="28"/>
      <point x="103" y="76"/>
      <point x="103" y="136" type="curve" smooth="yes"/>
      <point x="103" y="196"/>
      <point x="141" y="250"/>
      <point x="229" y="244" type="curve"/>
    </contour>
  </outline>
</glyph>
<glyph name="divide" format="2">
  <advance width="497"/>
  <unicode hex="00F7"/>
  <outline>
    <contour>
      <point x="248" y="377" type="curve" smooth="yes"/>
      <point x="225" y="377"/>
      <point x="210" y="394"/>
      <point x="210" y="415" type="curve" smooth="yes"/>
      <point x="210" y="436"/>
      <point x="225" y="453"/>
      <point x="248" y="453" type="curve" smooth="yes"/>
      <point x="269" y="453"/>
      <point x="287" y="436"/>
      <point x="287" y="415" type="curve" smooth="yes"/>
      <point x="287" y="394"/>
      <point x="269" y="377"/>
    </contour>
    <contour>
      <point x="457" y="292" type="line"/>
      <point x="467" y="255" type="line"/>
      <point x="38" y="255" type="line"/>
      <point x="30" y="292" type="line"/>
    </contour>
    <contour>
      <point x="251" y="74" type="curve" smooth="yes"/>
      <point x="228" y="74"/>
      <point x="213" y="91"/>
      <point x="213" y="112" type="curve" smooth="yes"/>
      <point x="213" y="133"/>
      <point x="228" y="150"/>
      <point x="251" y="150" type="curve" smooth="yes"/>
      <point x="272" y="150"/>
      <point x="290" y="133"/>
      <point x="290" y="112" type="curve" smooth="yes"/>
      <point x="290" y="91"/>
      <point x="272" y="74"/>
    </contour>
  </outline>
</glyph>
<glyph name="oslash" format="2">
  <advance width="523"/>
  <unicode hex="00F8"/>
  <outline>
    <contour>
      <point x="142" y="49" type="line"/>
      <point x="182" y="28" type="line"/>
      <point x="384" y="417" type="line"/>
      <point x="347" y="444" type="line"/>
    </contour>
    <contour>
      <point x="483" y="240" type="curve" smooth="yes"/>
      <point x="483" y="390"/>
      <point x="408" y="497"/>
      <point x="265" y="498" type="curve" smooth="yes"/>
      <point x="122" y="497"/>
      <point x="40" y="389"/>
      <point x="40" y="245" type="curve" smooth="yes"/>
      <point x="40" y="95"/>
      <point x="115" y="-12"/>
      <point x="259" y="-13" type="curve" smooth="yes"/>
      <point x="401" y="-12"/>
      <point x="483" y="96"/>
    </contour>
    <contour>
      <point x="259" y="28" type="curve" smooth="yes"/>
      <point x="150" y="28"/>
      <point x="91" y="127"/>
      <point x="91" y="246" type="curve" smooth="yes"/>
      <point x="91" y="359"/>
      <point x="157" y="457"/>
      <point x="264" y="457" type="curve" smooth="yes"/>
      <point x="373" y="457"/>
      <point x="432" y="358"/>
      <point x="432" y="239" type="curve" smooth="yes"/>
      <point x="432" y="126"/>
      <point x="366" y="28"/>
    </contour>
  </outline>
</glyph>
<glyph name="thorn" format="2">
  <advance width="508"/>
  <unicode hex="00FE"/>
  <outline>
    <contour>
      <point x="259" y="498" type="curve" smooth="yes"/>
      <point x="205.927" y="498"/>
      <point x="161.261" y="477.954"/>
      <point x="125" y="445.663" type="curve"/>
      <point x="125" y="706" type="line"/>
      <point x="76" y="696" type="line"/>
      <point x="76" y="-219" type="line"/>
      <point x="125" y="-208" type="line"/>
      <point x="125" y="33.394" type="line"/>
      <point x="158.128" y="9.801"/>
      <point x="206.125" y="-13"/>
      <point x="252" y="-13" type="curve" smooth="yes"/>
      <point x="395" y="-13"/>
      <point x="468" y="95"/>
      <point x="468" y="240" type="curve" smooth="yes"/>
      <point x="468" y="391"/>
      <point x="402" y="498"/>
    </contour>
    <contour>
      <point x="254" y="28" type="curve" smooth="yes"/>
      <point x="198.949" y="28"/>
      <point x="156.929" y="54.063"/>
      <point x="125" y="82.668" type="curve"/>
      <point x="125" y="391.503" type="line"/>
      <point x="158.58" y="427.965"/>
      <point x="195.18" y="457"/>
      <point x="259" y="457" type="curve" smooth="yes"/>
      <point x="368" y="457"/>
      <point x="417" y="358"/>
      <point x="417" y="239" type="curve" smooth="yes"/>
      <point x="417" y="126"/>
      <point x="361" y="28"/>
    </contour>
  </outline>
</glyph>
<glyph name="Aogonek" format="2">
  <advance width="572"/>
  <unicode hex="0104"/>
  <anchor x="538" y="8" name="_bottom"/>
  <outline>
    <contour>
      <point x="522" y="9" type="curve"/>
      <point x="562" y="5" type="line"/>
      <point x="526" y="-28"/>
      <point x="506" y="-63"/>
      <point x="506" y="-107" type="curve" smooth="yes"/>
      <point x="506" y="-147"/>
      <point x="543" y="-166"/>
      <point x="568" y="-166" type="curve" smooth="yes"/>
      <point x="589" y="-166"/>
      <point x="607" y="-158"/>
      <point x="623" y="-145" type="curve"/>
      <point x="645" y="-172" type="line"/>
      <point x="628" y="-189"/>
      <point x="598" y="-202"/>
      <point x="565" y="-202" type="curve" smooth="yes"/>
      <point x="505" y="-202"/>
      <point x="460" y="-163"/>
      <point x="460" y="-106" type="curve" smooth="yes"/>
      <point x="460" y="-68"/>
      <point x="486" y="-20"/>
    </contour>
    <component base="A"/>
  </outline>
</glyph>
<glyph name="aogonek" format="2">
  <advance width="475"/>
  <unicode hex="0105"/>
  <outline>
    <contour>
      <point x="372" y="4" type="curve"/>
      <point x="409" y="0" type="line"/>
      <point x="373" y="-33"/>
      <point x="356" y="-68"/>
      <point x="356" y="-112" type="curve" smooth="yes"/>
      <point x="356" y="-152"/>
      <point x="393" y="-171"/>
      <point x="418" y="-171" type="curve" smooth="yes"/>
      <point x="439" y="-171"/>
      <point x="457" y="-163"/>
      <point x="473" y="-150" type="curve"/>
      <point x="495" y="-177" type="line"/>
      <point x="478" y="-194"/>
      <point x="448" y="-207"/>
      <point x="415" y="-207" type="curve" smooth="yes"/>
      <point x="355" y="-207"/>
      <point x="310" y="-168"/>
      <point x="310" y="-111" type="curve" smooth="yes"/>
      <point x="310" y="-73"/>
      <point x="336" y="-25"/>
    </contour>
    <component base="a"/>
  </outline>
</glyph>
<glyph name="dcaron" format="2">
  <advance width="636"/>
  <unicode hex="010F"/>
  <outline>
    <contour>
      <point x="567" y="702" type="curve" smooth="yes"/>
      <point x="591" y="702"/>
      <point x="606" y="679"/>
      <point x="606" y="659" type="curve" smooth="yes"/>
      <point x="606" y="598"/>
      <point x="576" y="545"/>
      <point x="520" y="518" type="curve"/>
      <point x="504" y="543" type="line"/>
      <point x="539" y="562"/>
      <point x="564" y="589"/>
      <point x="565" y="625" type="curve"/>
      <point x="541" y="625"/>
      <point x="529" y="650"/>
      <point x="529" y="663" type="curve" smooth="yes"/>
      <point x="529" y="683"/>
      <point x="542" y="702"/>
    </contour>
    <component base="d"/>
  </outline>
</glyph>
<glyph name="dcroat" format="2">
  <advance width="512"/>
  <unicode hex="0111"/>
  <outline>
    <contour>
      <point x="388" y="99" type="line"/>
      <point x="353" y="60"/>
      <point x="316" y="28"/>
      <point x="249" y="28" type="curve" smooth="yes"/>
      <point x="140" y="28"/>
      <point x="91" y="127"/>
      <point x="91" y="246" type="curve" smooth="yes"/>
      <point x="91" y="359"/>
      <point x="147" y="457"/>
      <point x="254" y="457" type="curve" smooth="yes"/>
      <point x="315" y="457"/>
      <point x="360" y="425"/>
      <point x="393" y="393" type="curve"/>
      <point x="413" y="426" type="line"/>
      <point x="386" y="455"/>
      <point x="319" y="498"/>
      <point x="256" y="498" type="curve" smooth="yes"/>
      <point x="113" y="498"/>
      <point x="40" y="390"/>
      <point x="40" y="245" type="curve" smooth="yes"/>
      <point x="40" y="94"/>
      <point x="106" y="-13"/>
      <point x="249" y="-13" type="curve" smooth="yes"/>
      <point x="315" y="-13"/>
      <point x="368" y="18"/>
      <point x="408" y="65" type="curve"/>
    </contour>
    <contour>
      <point x="432" y="580" type="line"/>
      <point x="500" y="580" type="line"/>
      <point x="490" y="615" type="line"/>
      <point x="432" y="615" type="line"/>
      <point x="432" y="705" type="line"/>
      <point x="383" y="696" type="line"/>
      <point x="383" y="615" type="line"/>
      <point x="242" y="615" type="line"/>
      <point x="252" y="580" type="line"/>
      <point x="383" y="580" type="line"/>
      <point x="383" y="53" type="line"/>
      <point x="405" y="0" type="line"/>
      <point x="432" y="0" type="line"/>
    </contour>
  </outline>
</glyph>
<glyph name="gcommaaccent" format="2">
  <advance width="508"/>
  <unicode hex="0123"/>
  <outline>
    <contour>
      <point x="256" y="575" type="curve" smooth="yes"/>
      <point x="232" y="575"/>
      <point x="217" y="598"/>
      <point x="217" y="618" type="curve" smooth="yes"/>
      <point x="217" y="679"/>
      <point x="247" y="732"/>
      <point x="303" y="759" type="curve"/>
      <point x="319" y="734" type="line"/>
      <point x="284" y="715"/>
      <point x="259" y="688"/>
      <point x="258" y="652" type="curve"/>
      <point x="282" y="652"/>
      <point x="294" y="627"/>
      <point x="294" y="614" type="curve" smooth="yes"/>
      <point x="294" y="594"/>
      <point x="281" y="575"/>
    </contour>
    <contour>
      <point x="432" y="485" type="line"/>
      <point x="432" y="-62" type="line" smooth="yes"/>
      <point x="432" y="-158"/>
      <point x="367" y="-230"/>
      <point x="240" y="-230" type="curve" smooth="yes"/>
      <point x="201" y="-230"/>
      <point x="112" y="-214"/>
      <point x="75" y="-189" type="curve"/>
      <point x="94" y="-154" type="line"/>
      <point x="139" y="-174"/>
      <point x="177" y="-189"/>
      <point x="238" y="-189" type="curve" smooth="yes"/>
      <point x="319" y="-189"/>
      <point x="383" y="-152"/>
      <point x="383" y="-72" type="curve" smooth="yes"/>
      <point x="383" y="412" type="line"/>
      <point x="405" y="485" type="line"/>
    </contour>
    <contour>
      <point x="388" y="99" type="curve"/>
      <point x="408" y="65" type="line"/>
      <point x="368" y="18"/>
      <point x="315" y="-13"/>
      <point x="249" y="-13" type="curve" smooth="yes"/>
      <point x="106" y="-13"/>
      <point x="40" y="94"/>
      <point x="40" y="245" type="curve" smooth="yes"/>
      <point x="40" y="390"/>
      <point x="113" y="498"/>
      <point x="256" y="498" type="curve" smooth="yes"/>
      <point x="319" y="498"/>
      <point x="386" y="455"/>
      <point x="413" y="426" type="curve"/>
      <point x="393" y="393" type="line"/>
      <point x="360" y="425"/>
      <point x="315" y="457"/>
      <point x="254" y="457" type="curve" smooth="yes"/>
      <point x="147" y="457"/>
      <point x="91" y="359"/>
      <point x="91" y="246" type="curve" smooth="yes"/>
      <point x="91" y="127"/>
      <point x="140" y="28"/>
      <point x="249" y="28" type="curve" smooth="yes"/>
      <point x="316" y="28"/>
      <point x="353" y="60"/>
    </contour>
  </outline>
</glyph>
<glyph name="Iogonek" format="2">
  <advance width="249"/>
  <unicode hex="012E"/>
  <outline>
    <contour>
      <point x="102" y="4" type="curve"/>
      <point x="149" y="0" type="line"/>
      <point x="113" y="-33"/>
      <point x="96" y="-68"/>
      <point x="96" y="-112" type="curve" smooth="yes"/>
      <point x="96" y="-152"/>
      <point x="133" y="-171"/>
      <point x="158" y="-171" type="curve" smooth="yes"/>
      <point x="179" y="-171"/>
      <point x="197" y="-163"/>
      <point x="213" y="-150" type="curve"/>
      <point x="235" y="-177" type="line"/>
      <point x="218" y="-194"/>
      <point x="188" y="-207"/>
      <point x="155" y="-207" type="curve" smooth="yes"/>
      <point x="95" y="-207"/>
      <point x="50" y="-168"/>
      <point x="50" y="-111" type="curve" smooth="yes"/>
      <point x="50" y="-63"/>
      <point x="76" y="-25"/>
    </contour>
    <component base="I"/>
  </outline>
</glyph>
<glyph name="iogonek" format="2">
  <advance width="189"/>
  <unicode hex="012F"/>
  <outline>
    <contour>
      <point x="72" y="4" type="curve"/>
      <point x="119" y="0" type="line"/>
      <point x="83" y="-33"/>
      <point x="66" y="-68"/>
      <point x="66" y="-112" type="curve" smooth="yes"/>
      <point x="66" y="-152"/>
      <point x="103" y="-171"/>
      <point x="128" y="-171" type="curve" smooth="yes"/>
      <point x="149" y="-171"/>
      <point x="167" y="-163"/>
      <point x="183" y="-150" type="curve"/>
      <point x="205" y="-177" type="line"/>
      <point x="188" y="-194"/>
      <point x="158" y="-207"/>
      <point x="125" y="-207" type="curve" smooth="yes"/>
      <point x="65" y="-207"/>
      <point x="20" y="-168"/>
      <point x="20" y="-111" type="curve" smooth="yes"/>
      <point x="20" y="-63"/>
      <point x="46" y="-25"/>
    </contour>
    <component base="dotlessi"/>
    <component base="dotaccent" xOffset="46"/>
  </outline>
</glyph>
<glyph name="lacute" format="2">
  <advance width="209"/>
  <unicode hex="013A"/>
  <outline>
    <contour>
      <point x="129" y="0" type="line"/>
      <point x="80" y="0" type="line"/>
      <point x="80" y="674" type="line"/>
      <point x="129" y="684" type="line"/>
    </contour>
    <contour>
      <point x="116" y="739" type="line"/>
      <point x="84" y="750" type="line"/>
      <point x="140" y="892" type="line"/>
      <point x="201" y="892" type="line"/>
    </contour>
  </outline>
</glyph>
<glyph name="lcaron" format="2">
  <advance width="333"/>
  <unicode hex="013E"/>
  <outline>
    <contour>
      <point x="264" y="702" type="curve" smooth="yes"/>
      <point x="288" y="702"/>
      <point x="303" y="679"/>
      <point x="303" y="659" type="curve" smooth="yes"/>
      <point x="303" y="598"/>
      <point x="273" y="545"/>
      <point x="217" y="518" type="curve"/>
      <point x="201" y="543" type="line"/>
      <point x="236" y="562"/>
      <point x="261" y="589"/>
      <point x="262" y="625" type="curve"/>
      <point x="238" y="625"/>
      <point x="226" y="650"/>
      <point x="226" y="663" type="curve" smooth="yes"/>
      <point x="226" y="683"/>
      <point x="239" y="702"/>
    </contour>
    <component base="l"/>
  </outline>
</glyph>
<glyph name="Lslash" format="2">
  <advance width="491"/>
  <unicode hex="0141"/>
  <outline>
    <contour>
      <point x="100" y="0" type="line"/>
      <point x="481" y="0" type="line"/>
      <point x="476" y="39" type="line"/>
      <point x="149" y="39" type="line"/>
      <point x="149" y="321.904" type="line"/>
      <point x="281" y="438" type="line"/>
      <point x="259" y="472" type="line"/>
      <point x="149" y="376.137" type="line"/>
      <point x="149" y="680" type="line"/>
      <point x="100" y="680" type="line"/>
      <point x="100" y="333.434" type="line"/>
      <point x="10" y="255" type="line"/>
      <point x="32" y="219" type="line"/>
      <point x="100" y="278.807" type="line"/>
    </contour>
  </outline>
</glyph>
<glyph name="lslash" format="2">
  <advance width="271"/>
  <unicode hex="0142"/>
  <outline>
    <contour>
      <point x="249" y="472" type="line"/>
      <point x="271" y="438" type="line"/>
      <point x="160" y="340" type="line"/>
      <point x="160" y="0" type="line"/>
      <point x="111" y="0" type="line"/>
      <point x="111" y="297" type="line"/>
      <point x="22" y="219" type="line"/>
      <point x="0" y="255" type="line"/>
      <point x="111" y="351" type="line"/>
      <point x="111" y="696" type="line"/>
      <point x="160" y="706" type="line"/>
      <point x="160" y="394" type="line"/>
    </contour>
  </outline>
</glyph>
<glyph name="OE" format="2">
  <advance width="892"/>
  <unicode hex="0152"/>
  <outline>
    <contour>
      <point x="523" y="657" type="curve"/>
      <point x="503" y="621" type="line"/>
      <point x="462" y="638"/>
      <point x="430" y="651"/>
      <point x="358" y="651" type="curve" smooth="yes"/>
      <point x="215" y="650"/>
      <point x="105" y="529"/>
      <point x="105" y="337" type="curve" smooth="yes"/>
      <point x="105" y="174"/>
      <point x="194" y="29"/>
      <point x="349" y="29" type="curve" smooth="yes"/>
      <point x="421" y="29"/>
      <point x="463" y="43"/>
      <point x="499" y="59" type="curve"/>
      <point x="523" y="23" type="line"/>
      <point x="486" y="3"/>
      <point x="411" y="-14"/>
      <point x="354" y="-14" type="curve" smooth="yes"/>
      <point x="146" y="-14"/>
      <point x="50" y="151"/>
      <point x="50" y="336" type="curve" smooth="yes"/>
      <point x="50" y="535"/>
      <point x="164" y="694"/>
      <point x="360" y="694" type="curve" smooth="yes"/>
      <point x="401" y="694"/>
      <point x="486" y="682"/>
    </contour>
    <contour>
      <point x="872" y="0" type="line"/>
      <point x="497" y="0" type="line"/>
      <point x="497" y="680" type="line"/>
      <point x="844" y="680" type="line"/>
      <point x="849" y="641" type="line"/>
      <point x="546" y="641" type="line"/>
      <point x="546" y="368" type="line"/>
      <point x="786" y="368" type="line"/>
      <point x="791" y="329" type="line"/>
      <point x="546" y="329" type="line"/>
      <point x="546" y="39" type="line"/>
      <point x="866" y="39" type="line"/>
    </contour>
  </outline>
</glyph>
<glyph name="oe" format="2">
  <advance width="758"/>
  <unicode hex="0153"/>
  <outline>
    <contour>
      <point x="718" y="242" type="line"/>
      <point x="718" y="245" type="line" smooth="yes"/>
      <point x="718" y="388"/>
      <point x="642" y="498"/>
      <point x="530" y="498" type="curve" smooth="yes"/>
      <point x="479" y="498"/>
      <point x="438" y="484"/>
      <point x="406" y="461" type="curve"/>
      <point x="368" y="483"/>
      <point x="321" y="498"/>
      <point x="266" y="498" type="curve" smooth="yes"/>
      <point x="123" y="498"/>
      <point x="40" y="390"/>
      <point x="40" y="245" type="curve" smooth="yes"/>
      <point x="40" y="94"/>
      <point x="116" y="-13"/>
      <point x="259" y="-13" type="curve" smooth="yes"/>
      <point x="322" y="-13"/>
      <point x="367" y="3"/>
      <point x="407" y="27" type="curve"/>
      <point x="443" y="2"/>
      <point x="489" y="-13"/>
      <point x="548" y="-13" type="curve" smooth="yes"/>
      <point x="587" y="-13"/>
      <point x="663" y="0"/>
      <point x="703" y="25" type="curve"/>
      <point x="683" y="62" type="line"/>
      <point x="650" y="45"/>
      <point x="611" y="28"/>
      <point x="540" y="28" type="curve" smooth="yes"/>
      <point x="420" y="28"/>
      <point x="370" y="126"/>
      <point x="369" y="242" type="curve"/>
    </contour>
    <contour>
      <point x="371" y="279" type="line"/>
      <point x="380" y="374"/>
      <point x="427" y="457"/>
      <point x="523" y="457" type="curve" smooth="yes"/>
      <point x="619" y="457"/>
      <point x="657" y="374"/>
      <point x="666" y="279" type="curve"/>
    </contour>
    <contour>
      <point x="91" y="246" type="curve" smooth="yes"/>
      <point x="91" y="359"/>
      <point x="157" y="457"/>
      <point x="264" y="457" type="curve" smooth="yes"/>
      <point x="314" y="457"/>
      <point x="347" y="445"/>
      <point x="375" y="432" type="curve"/>
      <point x="337" y="386"/>
      <point x="318" y="321"/>
      <point x="318" y="245" type="curve" smooth="yes"/>
      <point x="318" y="168"/>
      <point x="337" y="102"/>
      <point x="376" y="56" type="curve"/>
      <point x="346" y="41"/>
      <point x="318" y="28"/>
      <point x="259" y="28" type="curve" smooth="yes"/>
      <point x="150" y="28"/>
      <point x="91" y="127"/>
    </contour>
  </outline>
</glyph>
<glyph name="tcaron" format="2">
  <advance width="412"/>
  <unicode hex="0165"/>
  <outline>
    <contour>
      <point x="343" y="702" type="curve" smooth="yes"/>
      <point x="367" y="702"/>
      <point x="382" y="679"/>
      <point x="382" y="659" type="curve" smooth="yes"/>
      <point x="382" y="598"/>
      <point x="352" y="545"/>
      <point x="296" y="518" type="curve"/>
      <point x="280" y="543" type="line"/>
      <point x="315" y="562"/>
      <point x="340" y="589"/>
      <point x="341" y="625" type="curve"/>
      <point x="317" y="625"/>
      <point x="305" y="650"/>
      <point x="305" y="663" type="curve" smooth="yes"/>
      <point x="305" y="683"/>
      <point x="318" y="702"/>
    </contour>
    <component base="t"/>
  </outline>
</glyph>
<glyph name="uogonek" format="2">
  <advance width="500"/>
  <unicode hex="0173"/>
  <outline>
    <contour>
      <point x="393" y="4" type="curve"/>
      <point x="430" y="0" type="line"/>
      <point x="394" y="-33"/>
      <point x="377" y="-68"/>
      <point x="377" y="-112" type="curve" smooth="yes"/>
      <point x="377" y="-152"/>
      <point x="414" y="-171"/>
      <point x="439" y="-171" type="curve" smooth="yes"/>
      <point x="460" y="-171"/>
      <point x="478" y="-163"/>
      <point x="494" y="-150" type="curve"/>
      <point x="516" y="-177" type="line"/>
      <point x="499" y="-194"/>
      <point x="469" y="-207"/>
      <point x="436" y="-207" type="curve" smooth="yes"/>
      <point x="376" y="-207"/>
      <point x="331" y="-168"/>
      <point x="331" y="-111" type="curve" smooth="yes"/>
      <point x="331" y="-73"/>
      <point x="357" y="-25"/>
    </contour>
    <component base="u"/>
  </outline>
</glyph>
<glyph name="florin" format="2">
  <advance width="293"/>
  <unicode hex="0192"/>
  <outline>
    <contour>
      <point x="49" y="470" type="line"/>
      <point x="122" y="470" type="line"/>
      <point x="122" y="563" type="line" smooth="yes"/>
      <point x="122" y="647"/>
      <point x="155" y="702"/>
      <point x="227" y="702" type="curve" smooth="yes"/>
      <point x="254" y="702"/>
      <point x="280" y="694"/>
      <point x="293" y="689" type="curve"/>
      <point x="281" y="652" type="line"/>
      <point x="273" y="656"/>
      <point x="253" y="661"/>
      <point x="240" y="661" type="curve" smooth="yes"/>
      <point x="189" y="661"/>
      <point x="171" y="627"/>
      <point x="171" y="579" type="curve" smooth="yes"/>
      <point x="171" y="470" type="line"/>
      <point x="259" y="470" type="line"/>
      <point x="280" y="433" type="line"/>
      <point x="171" y="433" type="line"/>
      <point x="171" y="73" type="line" smooth="yes"/>
      <point x="171" y="-11"/>
      <point x="138" y="-66"/>
      <point x="66" y="-66" type="curve" smooth="yes"/>
      <point x="39" y="-66"/>
      <point x="13" y="-58"/>
      <point x="0" y="-53" type="curve"/>
      <point x="12" y="-16" type="line"/>
      <point x="20" y="-20"/>
      <point x="40" y="-25"/>
      <point x="53" y="-25" type="curve" smooth="yes"/>
      <point x="104" y="-25"/>
      <point x="122" y="9"/>
      <point x="122" y="57" type="curve" smooth="yes"/>
      <point x="122" y="433" type="line"/>
      <point x="49" y="433" type="line"/>
    </contour>
  </outline>
</glyph>
<glyph name="circumflex" format="2">
  <advance width="271"/>
  <unicode hex="02C6"/>
  <anchor x="127" y="485" name="_top"/>
  <outline>
    <contour>
      <point x="137" y="707" type="line"/>
      <point x="51" y="589" type="line"/>
      <point x="10" y="599" type="line"/>
      <point x="116" y="742" type="line"/>
      <point x="156" y="742" type="line"/>
      <point x="261" y="603" type="line"/>
      <point x="220" y="589" type="line"/>
    </contour>
  </outline>
</glyph>
<glyph name="caron" format="2">
  <advance width="271"/>
  <unicode hex="02C7"/>
  <anchor x="140" y="485" name="_top"/>
  <outline>
    <contour>
      <point x="137" y="624" type="line"/>
      <point x="220" y="742" type="line"/>
      <point x="261" y="728" type="line"/>
      <point x="156" y="589" type="line"/>
      <point x="116" y="589" type="line"/>
      <point x="10" y="732" type="line"/>
      <point x="51" y="742" type="line"/>
    </contour>
  </outline>
</glyph>
<glyph name="uni02C9" format="2">
  <advance width="261"/>
  <unicode hex="02C9"/>
  <outline>
    <contour>
      <point x="10" y="650" type="line"/>
      <point x="10" y="689" type="line"/>
      <point x="245" y="689" type="line"/>
      <point x="251" y="650" type="line"/>
    </contour>
  </outline>
</glyph>
<glyph name="breve" format="2">
  <advance width="280"/>
  <unicode hex="02D8"/>
  <outline>
    <contour>
      <point x="229" y="731" type="curve"/>
      <point x="270" y="731" type="line"/>
      <point x="270" y="664"/>
      <point x="227" y="601"/>
      <point x="140" y="601" type="curve" smooth="yes"/>
      <point x="56" y="601"/>
      <point x="10" y="664"/>
      <point x="10" y="731" type="curve"/>
      <point x="51" y="731" type="line"/>
      <point x="51" y="684"/>
      <point x="84" y="640"/>
      <point x="140" y="640" type="curve" smooth="yes"/>
      <point x="196" y="640"/>
      <point x="229" y="682"/>
    </contour>
  </outline>
</glyph>
<glyph name="dotaccent" format="2">
  <advance width="97"/>
  <unicode hex="02D9"/>
  <outline>
    <contour>
      <point x="48" y="618" type="curve" smooth="yes"/>
      <point x="25" y="618"/>
      <point x="10" y="635"/>
      <point x="10" y="656" type="curve" smooth="yes"/>
      <point x="10" y="677"/>
      <point x="25" y="694"/>
      <point x="48" y="694" type="curve" smooth="yes"/>
      <point x="69" y="694"/>
      <point x="87" y="677"/>
      <point x="87" y="656" type="curve" smooth="yes"/>
      <point x="87" y="635"/>
      <point x="69" y="618"/>
    </contour>
  </outline>
</glyph>
<glyph name="ring" format="2">
  <advance width="197"/>
  <unicode hex="02DA"/>
  <anchor x="102" y="485" name="_top"/>
  <outline>
    <contour>
      <point x="99" y="759" type="curve" smooth="yes"/>
      <point x="147" y="759"/>
      <point x="187" y="723"/>
      <point x="187" y="675" type="curve" smooth="yes"/>
      <point x="187" y="628"/>
      <point x="147" y="594"/>
      <point x="99" y="594" type="curve" smooth="yes"/>
      <point x="51" y="594"/>
      <point x="10" y="628"/>
      <point x="10" y="675" type="curve" smooth="yes"/>
      <point x="10" y="723"/>
      <point x="51" y="759"/>
    </contour>
    <contour>
      <point x="99" y="624" type="curve" smooth="yes"/>
      <point x="128" y="624"/>
      <point x="148" y="646"/>
      <point x="148" y="675" type="curve" smooth="yes"/>
      <point x="148" y="706"/>
      <point x="128" y="728"/>
      <point x="99" y="728" type="curve" smooth="yes"/>
      <point x="70" y="728"/>
      <point x="49" y="706"/>
      <point x="49" y="675" type="curve" smooth="yes"/>
      <point x="49" y="646"/>
      <point x="70" y="624"/>
    </contour>
  </outline>
</glyph>
<glyph name="ogonek" format="2">
  <advance width="205"/>
  <unicode hex="02DB"/>
  <anchor x="92" y="0" name="_bottom"/>
  <outline>
    <contour>
      <point x="72" y="4" type="curve"/>
      <point x="109" y="0" type="line"/>
      <point x="73" y="-33"/>
      <point x="56" y="-68"/>
      <point x="56" y="-112" type="curve" smooth="yes"/>
      <point x="56" y="-152"/>
      <point x="93" y="-171"/>
      <point x="118" y="-171" type="curve" smooth="yes"/>
      <point x="139" y="-171"/>
      <point x="157" y="-163"/>
      <point x="173" y="-150" type="curve"/>
      <point x="195" y="-177" type="line"/>
      <point x="178" y="-194"/>
      <point x="148" y="-207"/>
      <point x="115" y="-207" type="curve" smooth="yes"/>
      <point x="55" y="-207"/>
      <point x="10" y="-168"/>
      <point x="10" y="-111" type="curve" smooth="yes"/>
      <point x="10" y="-73"/>
      <point x="36" y="-25"/>
    </contour>
  </outline>
</glyph>
<glyph name="tilde" format="2">
  <advance width="299"/>
  <unicode hex="02DC"/>
  <outline>
    <contour>
      <point x="251" y="699" type="curve"/>
      <point x="289" y="699" type="line"/>
      <point x="289" y="636"/>
      <point x="251" y="608"/>
      <point x="206" y="608" type="curve" smooth="yes"/>
      <point x="183" y="608"/>
      <point x="163" y="618"/>
      <point x="146" y="637" type="curve" smooth="yes"/>
      <point x="128" y="656"/>
      <point x="111" y="665"/>
      <point x="94" y="665" type="curve" smooth="yes"/>
      <point x="65" y="665"/>
      <point x="52" y="643"/>
      <point x="49" y="612" type="curve"/>
      <point x="10" y="612" type="line"/>
      <point x="10" y="675"/>
      <point x="48" y="703"/>
      <point x="93" y="703" type="curve" smooth="yes"/>
      <point x="121" y="703"/>
      <point x="143" y="694"/>
      <point x="158" y="675" type="curve" smooth="yes"/>
      <point x="173" y="656"/>
      <point x="189" y="646"/>
      <point x="206" y="646" type="curve" smooth="yes"/>
      <point x="234" y="646"/>
      <point x="248" y="668"/>
    </contour>
  </outline>
</glyph>
<glyph name="hungarumlaut" format="2">
  <advance width="265"/>
  <unicode hex="02DD"/>
  <anchor x="101" y="485" name="_top"/>
  <outline>
    <contour>
      <point x="42" y="589" type="line"/>
      <point x="10" y="600" type="line"/>
      <point x="66" y="742" type="line"/>
      <point x="127" y="742" type="line"/>
    </contour>
    <contour>
      <point x="170" y="589" type="line"/>
      <point x="138" y="600" type="line"/>
      <point x="194" y="742" type="line"/>
      <point x="255" y="742" type="line"/>
    </contour>
  </outline>
</glyph>
<glyph name="pi" format="2">
  <advance width="541"/>
  <unicode hex="03C0"/>
  <outline>
    <contour>
      <point x="158" y="0" type="line"/>
      <point x="109" y="0" type="line"/>
      <point x="109" y="446" type="line"/>
      <point x="10" y="446" type="line"/>
      <point x="10" y="485" type="line"/>
      <point x="531" y="485" type="line"/>
      <point x="531" y="446" type="line"/>
      <point x="431" y="446" type="line"/>
      <point x="431" y="0" type="line"/>
      <point x="382" y="0" type="line"/>
      <point x="382" y="446" type="line"/>
      <point x="158" y="446" type="line"/>
    </contour>
  </outline>
</glyph>
<glyph name="tm_Anusvara" format="2">
  <unicode hex="0B82"/>
  <outline>
    <contour>
      <point x="0" y="638" type="curve" smooth="yes"/>
      <point x="-56" y="638"/>
      <point x="-104" y="680"/>
      <point x="-104" y="737" type="curve" smooth="yes"/>
      <point x="-104" y="796"/>
      <point x="-54" y="837"/>
      <point x="0" y="837" type="curve" smooth="yes"/>
      <point x="57" y="837"/>
      <point x="104" y="796"/>
      <point x="104" y="737" type="curve" smooth="yes"/>
      <point x="104" y="680"/>
      <point x="59" y="638"/>
    </contour>
    <contour>
      <point x="0" y="675" type="curve" smooth="yes"/>
      <point x="36" y="675"/>
      <point x="62" y="701"/>
      <point x="62" y="737" type="curve" smooth="yes"/>
      <point x="62" y="773"/>
      <point x="36" y="799"/>
      <point x="0" y="799" type="curve" smooth="yes"/>
      <point x="-35" y="799"/>
      <point x="-61" y="773"/>
      <point x="-61" y="737" type="curve" smooth="yes"/>
      <point x="-61" y="701"/>
      <point x="-35" y="675"/>
    </contour>
  </outline>
</glyph>
<glyph name="tm_Visarga" format="2">
  <advance width="670"/>
  <unicode hex="0B83"/>
  <outline>
    <contour>
      <point x="335" y="328" type="curve" smooth="yes"/>
      <point x="279" y="328"/>
      <point x="231" y="369"/>
      <point x="231" y="427" type="curve" smooth="yes"/>
      <point x="231" y="485"/>
      <point x="281" y="527"/>
      <point x="335" y="527" type="curve" smooth="yes"/>
      <point x="391" y="527"/>
      <point x="439" y="485"/>
      <point x="439" y="427" type="curve" smooth="yes"/>
      <point x="439" y="369"/>
      <point x="393" y="328"/>
    </contour>
    <contour>
      <point x="335" y="365" type="curve" smooth="yes"/>
      <point x="371" y="365"/>
      <point x="397" y="391"/>
      <point x="397" y="427" type="curve" smooth="yes"/>
      <point x="397" y="463"/>
      <point x="371" y="489"/>
      <point x="335" y="489" type="curve" smooth="yes"/>
      <point x="299" y="489"/>
      <point x="273" y="463"/>
      <point x="273" y="427" type="curve" smooth="yes"/>
      <point x="273" y="391"/>
      <point x="299" y="365"/>
    </contour>
    <contour>
      <point x="164" y="-14" type="curve" smooth="yes"/>
      <point x="108" y="-14"/>
      <point x="60" y="28"/>
      <point x="60" y="86" type="curve" smooth="yes"/>
      <point x="60" y="144"/>
      <point x="110" y="185"/>
      <point x="164" y="185" type="curve" smooth="yes"/>
      <point x="220" y="185"/>
      <point x="268" y="144"/>
      <point x="268" y="86" type="curve" smooth="yes"/>
      <point x="268" y="28"/>
      <point x="222" y="-14"/>
    </contour>
    <contour>
      <point x="506" y="-14" type="curve" smooth="yes"/>
      <point x="450" y="-14"/>
      <point x="402" y="28"/>
      <point x="402" y="86" type="curve" smooth="yes"/>
      <point x="402" y="144"/>
      <point x="452" y="185"/>
      <point x="506" y="185" type="curve" smooth="yes"/>
      <point x="562" y="185"/>
      <point x="610" y="144"/>
      <point x="610" y="86" type="curve" smooth="yes"/>
      <point x="610" y="28"/>
      <point x="564" y="-14"/>
    </contour>
    <contour>
      <point x="164" y="23" type="curve" smooth="yes"/>
      <point x="200" y="23"/>
      <point x="226" y="50"/>
      <point x="226" y="86" type="curve" smooth="yes"/>
      <point x="226" y="122"/>
      <point x="200" y="149"/>
      <point x="164" y="149" type="curve" smooth="yes"/>
      <point x="128" y="149"/>
      <point x="102" y="122"/>
      <point x="102" y="86" type="curve" smooth="yes"/>
      <point x="102" y="50"/>
      <point x="128" y="23"/>
    </contour>
    <contour>
      <point x="506" y="23" type="curve" smooth="yes"/>
      <point x="542" y="23"/>
      <point x="568" y="50"/>
      <point x="568" y="86" type="curve" smooth="yes"/>
      <point x="568" y="122"/>
      <point x="542" y="148"/>
      <point x="506" y="148" type="curve" smooth="yes"/>
      <point x="470" y="148"/>
      <point x="444" y="122"/>
      <point x="444" y="86" type="curve" smooth="yes"/>
      <point x="444" y="50"/>
      <point x="470" y="23"/>
    </contour>
  </outline>
</glyph>
<glyph name="tm_A" format="2">
  <advance width="1055"/>
  <unicode hex="0B85"/>
  <outline>
    <contour>
      <point x="955" y="-126" type="line"/>
      <point x="911" y="-126" type="line"/>
      <point x="911" y="513" type="line"/>
      <point x="955" y="513" type="line"/>
    </contour>
    <contour>
      <point x="471" y="531" type="curve" smooth="yes"/>
      <point x="639" y="531"/>
      <point x="744" y="404"/>
      <point x="744" y="230" type="curve" smooth="yes"/>
      <point x="744" y="13"/>
      <point x="569" y="-144"/>
      <point x="327" y="-144" type="curve" smooth="yes"/>
      <point x="161" y="-144"/>
      <point x="40" y="-69"/>
      <point x="40" y="32" type="curve" smooth="yes"/>
      <point x="40" y="86"/>
      <point x="76" y="125"/>
      <point x="146" y="125" type="curve" smooth="yes"/>
      <point x="911" y="125" type="line"/>
      <point x="911" y="90" type="line"/>
      <point x="150" y="90" type="line" smooth="yes"/>
      <point x="105" y="90"/>
      <point x="88" y="66"/>
      <point x="88" y="32" type="curve" smooth="yes"/>
      <point x="88" y="-48"/>
      <point x="186" y="-102"/>
      <point x="327" y="-102" type="curve" smooth="yes"/>
      <point x="543" y="-102"/>
      <point x="696" y="35"/>
      <point x="696" y="230" type="curve" smooth="yes"/>
      <point x="696" y="382"/>
      <point x="612" y="489"/>
      <point x="471" y="489" type="curve" smooth="yes"/>
      <point x="360" y="489"/>
      <point x="280" y="426"/>
      <point x="280" y="329" type="curve" smooth="yes"/>
      <point x="280" y="287"/>
      <point x="314" y="256"/>
      <point x="360" y="254" type="curve" smooth="yes"/>
      <point x="407" y="252"/>
      <point x="441" y="284"/>
      <point x="441" y="329" type="curve" smooth="yes"/>
      <point x="441" y="373"/>
      <point x="407" y="404"/>
      <point x="361" y="404" type="curve" smooth="yes"/>
      <point x="315" y="404"/>
      <point x="280" y="373"/>
      <point x="280" y="329" type="curve"/>
      <point x="253" y="329" type="line"/>
      <point x="252" y="394"/>
      <point x="302" y="441"/>
      <point x="361" y="441" type="curve" smooth="yes"/>
      <point x="433" y="441"/>
      <point x="486" y="393"/>
      <point x="485" y="329" type="curve" smooth="yes"/>
      <point x="484" y="262"/>
      <point x="432" y="215"/>
      <point x="360" y="216" type="curve" smooth="yes"/>
      <point x="291" y="217"/>
      <point x="241" y="266"/>
      <point x="241" y="332" type="curve" smooth="yes"/>
      <point x="241" y="447"/>
      <point x="338" y="531"/>
    </contour>
  </outline>
</glyph>
<glyph name="tm_Aa" format="2">
  <advance width="1248"/>
  <unicode hex="0B86"/>
  <outline>
    <contour>
      <point x="931" y="90" type="line"/>
      <point x="931" y="125" type="line"/>
      <point x="146" y="125" type="line" smooth="yes"/>
      <point x="76" y="125"/>
      <point x="40" y="86"/>
      <point x="40" y="32" type="curve" smooth="yes"/>
      <point x="40" y="-69"/>
      <point x="161" y="-144"/>
      <point x="327" y="-144" type="curve" smooth="yes"/>
      <point x="569" y="-144"/>
      <point x="744" y="13"/>
      <point x="744" y="230" type="curve" smooth="yes"/>
      <point x="744" y="404"/>
      <point x="639" y="531"/>
      <point x="471" y="531" type="curve" smooth="yes"/>
      <point x="338" y="531"/>
      <point x="241" y="447"/>
      <point x="241" y="332" type="curve" smooth="yes"/>
      <point x="241" y="266"/>
      <point x="291" y="217"/>
      <point x="360" y="216" type="curve" smooth="yes"/>
      <point x="432" y="215"/>
      <point x="484" y="262"/>
      <point x="485" y="329" type="curve" smooth="yes"/>
      <point x="486" y="393"/>
      <point x="433" y="441"/>
      <point x="361" y="441" type="curve" smooth="yes"/>
      <point x="302" y="441"/>
      <point x="252" y="394"/>
      <point x="253" y="329" type="curve"/>
      <point x="280" y="329" type="line"/>
      <point x="280" y="373"/>
      <point x="315" y="404"/>
      <point x="361" y="404" type="curve" smooth="yes"/>
      <point x="407" y="404"/>
      <point x="441" y="373"/>
      <point x="441" y="329" type="curve" smooth="yes"/>
      <point x="441" y="284"/>
      <point x="407" y="252"/>
      <point x="360" y="254" type="curve" smooth="yes"/>
      <point x="314" y="256"/>
      <point x="280" y="287"/>
      <point x="280" y="329" type="curve" smooth="yes"/>
      <point x="280" y="426"/>
      <point x="360" y="489"/>
      <point x="471" y="489" type="curve" smooth="yes"/>
      <point x="612" y="489"/>
      <point x="696" y="382"/>
      <point x="696" y="230" type="curve" smooth="yes"/>
      <point x="696" y="35"/>
      <point x="543" y="-102"/>
      <point x="327" y="-102" type="curve" smooth="yes"/>
      <point x="186" y="-102"/>
      <point x="88" y="-48"/>
      <point x="88" y="32" type="curve" smooth="yes"/>
      <point x="88" y="66"/>
      <point x="105" y="90"/>
      <point x="150" y="90" type="curve" smooth="yes"/>
    </contour>
    <contour>
      <point x="1083" y="84" type="curve" smooth="yes"/>
      <point x="1030" y="84"/>
      <point x="985" y="61"/>
      <point x="955" y="23" type="curve"/>
      <point x="955" y="513" type="line"/>
      <point x="911" y="513" type="line"/>
      <point x="911" y="-126" type="line"/>
      <point x="955" y="-126" type="line"/>
      <point x="955" y="-94" type="line" smooth="yes"/>
      <point x="955" y="-15"/>
      <point x="1008" y="41"/>
      <point x="1080" y="41" type="curve" smooth="yes"/>
      <point x="1150" y="41"/>
      <point x="1190" y="-13"/>
      <point x="1190" y="-84" type="curve" smooth="yes"/>
      <point x="1190" y="-233"/>
      <point x="1061" y="-335"/>
      <point x="882" y="-335" type="curve" smooth="yes"/>
      <point x="783" y="-335"/>
      <point x="715" y="-299"/>
      <point x="715" y="-244" type="curve" smooth="yes"/>
      <point x="715" y="-203"/>
      <point x="743" y="-173"/>
      <point x="787" y="-173" type="curve" smooth="yes"/>
      <point x="808" y="-173" type="line"/>
      <point x="808" y="-138" type="line"/>
      <point x="787" y="-138" type="line" smooth="yes"/>
      <point x="718" y="-138"/>
      <point x="667" y="-183"/>
      <point x="667" y="-244" type="curve" smooth="yes"/>
      <point x="667" y="-321"/>
      <point x="757" y="-377"/>
      <point x="882" y="-377" type="curve" smooth="yes"/>
      <point x="1086" y="-377"/>
      <point x="1238" y="-257"/>
      <point x="1238" y="-86" type="curve" smooth="yes"/>
      <point x="1238" y="10"/>
      <point x="1181" y="84"/>
    </contour>
  </outline>
</glyph>
<glyph name="tm_I" format="2">
  <advance width="1030"/>
  <unicode hex="0B87"/>
  <outline>
    <contour>
      <point x="490" y="531" type="curve" smooth="yes"/>
      <point x="635" y="531"/>
      <point x="709" y="442"/>
      <point x="709" y="320" type="curve" smooth="yes"/>
      <point x="709" y="110"/>
      <point x="420" y="-198"/>
      <point x="183" y="-198" type="curve" smooth="yes"/>
      <point x="90" y="-198"/>
      <point x="40" y="-155"/>
      <point x="40" y="-95" type="curve" smooth="yes"/>
      <point x="40" y="49"/>
      <point x="229" y="152"/>
      <point x="444" y="152" type="curve" smooth="yes"/>
      <point x="634" y="152"/>
      <point x="802" y="49"/>
      <point x="802" y="-95" type="curve" smooth="yes"/>
      <point x="802" y="-155"/>
      <point x="752" y="-198"/>
      <point x="659" y="-198" type="curve" smooth="yes"/>
      <point x="386" y="-198"/>
      <point x="126" y="62"/>
      <point x="126" y="349" type="curve" smooth="yes"/>
      <point x="126" y="577"/>
      <point x="300" y="711"/>
      <point x="542" y="711" type="curve" smooth="yes"/>
      <point x="767" y="711"/>
      <point x="930" y="571"/>
      <point x="930" y="358" type="curve" smooth="yes"/>
      <point x="930" y="-148" type="line"/>
      <point x="886" y="-148" type="line"/>
      <point x="886" y="356" type="line" smooth="yes"/>
      <point x="886" y="547"/>
      <point x="744" y="669"/>
      <point x="542" y="669" type="curve" smooth="yes"/>
      <point x="326" y="669"/>
      <point x="173" y="554"/>
      <point x="173" y="349" type="curve" smooth="yes"/>
      <point x="173" y="76"/>
      <point x="411" y="-156"/>
      <point x="659" y="-156" type="curve" smooth="yes"/>
      <point x="727" y="-156"/>
      <point x="755" y="-132"/>
      <point x="755" y="-95" type="curve" smooth="yes"/>
      <point x="755" y="24"/>
      <point x="606" y="110"/>
      <point x="444" y="110" type="curve" smooth="yes"/>
      <point x="257" y="110"/>
      <point x="88" y="24"/>
      <point x="88" y="-95" type="curve" smooth="yes"/>
      <point x="88" y="-132"/>
      <point x="116" y="-156"/>
      <point x="183" y="-156" type="curve" smooth="yes"/>
      <point x="395" y="-156"/>
      <point x="661" y="131"/>
      <point x="661" y="320" type="curve" smooth="yes"/>
      <point x="661" y="418"/>
      <point x="607" y="489"/>
      <point x="490" y="489" type="curve" smooth="yes"/>
      <point x="388" y="489"/>
      <point x="317" y="426"/>
      <point x="317" y="329" type="curve" smooth="yes"/>
      <point x="317" y="287"/>
      <point x="351" y="256"/>
      <point x="397" y="254" type="curve" smooth="yes"/>
      <point x="444" y="252"/>
      <point x="478" y="284"/>
      <point x="478" y="329" type="curve" smooth="yes"/>
      <point x="478" y="373"/>
      <point x="444" y="404"/>
      <point x="398" y="404" type="curve" smooth="yes"/>
      <point x="352" y="404"/>
      <point x="317" y="373"/>
      <point x="317" y="329" type="curve"/>
      <point x="290" y="329" type="line"/>
      <point x="289" y="394"/>
      <point x="339" y="441"/>
      <point x="398" y="441" type="curve" smooth="yes"/>
      <point x="470" y="441"/>
      <point x="523" y="393"/>
      <point x="522" y="329" type="curve" smooth="yes"/>
      <point x="521" y="262"/>
      <point x="469" y="215"/>
      <point x="397" y="216" type="curve" smooth="yes"/>
      <point x="328" y="217"/>
      <point x="278" y="266"/>
      <point x="278" y="332" type="curve" smooth="yes"/>
      <point x="278" y="447"/>
      <point x="366" y="531"/>
    </contour>
  </outline>
</glyph>
<glyph name="tm_Ii" format="2">
  <advance width="741"/>
  <unicode hex="0B88"/>
  <outline>
    <contour>
      <point x="100" y="0" type="line"/>
      <point x="144" y="0" type="line"/>
      <point x="144" y="478" type="line"/>
      <point x="432" y="478" type="line"/>
      <point x="432" y="0" type="line"/>
      <point x="476" y="0" type="line"/>
      <point x="476" y="478" type="line"/>
      <point x="731" y="478" type="line"/>
      <point x="726" y="513" type="line"/>
      <point x="100" y="513" type="line"/>
    </contour>
    <contour>
      <point x="288" y="199" type="curve" smooth="yes"/>
      <point x="267" y="199"/>
      <point x="254" y="214"/>
      <point x="254" y="233" type="curve" smooth="yes"/>
      <point x="254" y="252"/>
      <point x="267" y="267"/>
      <point x="288" y="267" type="curve" smooth="yes"/>
      <point x="307" y="267"/>
      <point x="323" y="252"/>
      <point x="323" y="233" type="curve" smooth="yes"/>
      <point x="323" y="214"/>
      <point x="309" y="199"/>
    </contour>
    <contour>
      <point x="620" y="199" type="curve" smooth="yes"/>
      <point x="600" y="199"/>
      <point x="586" y="214"/>
      <point x="586" y="233" type="curve" smooth="yes"/>
      <point x="586" y="252"/>
      <point x="600" y="267"/>
      <point x="620" y="267" type="curve" smooth="yes"/>
      <point x="639" y="267"/>
      <point x="655" y="252"/>
      <point x="655" y="233" type="curve" smooth="yes"/>
      <point x="655" y="214"/>
      <point x="641" y="199"/>
    </contour>
  </outline>
</glyph>
<glyph name="tm_U" format="2">
  <advance width="964"/>
  <unicode hex="0B89"/>
  <outline>
    <contour>
      <point x="954" y="0" type="line"/>
      <point x="954" y="35" type="line"/>
      <point x="75" y="35" type="line"/>
      <point x="75" y="0" type="line"/>
    </contour>
    <contour>
      <point x="52" y="273" type="curve"/>
      <point x="86" y="273" type="line"/>
      <point x="86" y="331"/>
      <point x="135" y="374"/>
      <point x="203" y="374" type="curve" smooth="yes"/>
      <point x="264" y="374"/>
      <point x="309" y="330"/>
      <point x="309" y="271" type="curve" smooth="yes"/>
      <point x="309" y="211"/>
      <point x="262" y="167"/>
      <point x="198" y="167" type="curve" smooth="yes"/>
      <point x="133" y="167"/>
      <point x="86" y="210"/>
      <point x="86" y="273" type="curve" smooth="yes"/>
      <point x="86" y="401"/>
      <point x="177" y="489"/>
      <point x="317" y="489" type="curve" smooth="yes"/>
      <point x="450" y="489"/>
      <point x="541" y="401"/>
      <point x="541" y="273" type="curve" smooth="yes"/>
      <point x="541" y="135"/>
      <point x="449" y="35"/>
      <point x="316" y="35" type="curve"/>
      <point x="316" y="5" type="line"/>
      <point x="487" y="5"/>
      <point x="589" y="114"/>
      <point x="589" y="273" type="curve" smooth="yes"/>
      <point x="589" y="422"/>
      <point x="475" y="531"/>
      <point x="317" y="531" type="curve" smooth="yes"/>
      <point x="151" y="531"/>
      <point x="40" y="423"/>
      <point x="40" y="275" type="curve" smooth="yes"/>
      <point x="40" y="188"/>
      <point x="107" y="125"/>
      <point x="198" y="125" type="curve" smooth="yes"/>
      <point x="290" y="125"/>
      <point x="357" y="186"/>
      <point x="357" y="271" type="curve" smooth="yes"/>
      <point x="357" y="353"/>
      <point x="292" y="412"/>
      <point x="203" y="412" type="curve" smooth="yes"/>
      <point x="116" y="412"/>
      <point x="52" y="345"/>
    </contour>
  </outline>
</glyph>
<glyph name="tm_Uu" format="2">
  <advance width="1699"/>
  <unicode hex="0B8A"/>
  <outline>
    <contour>
      <point x="75" y="35" type="line"/>
      <point x="75" y="0" type="line"/>
      <point x="1689" y="0" type="line"/>
      <point x="1689" y="35" type="line"/>
      <point x="456" y="35" type="line"/>
      <point x="541" y="78"/>
      <point x="589" y="164"/>
      <point x="589" y="273" type="curve" smooth="yes"/>
      <point x="589" y="422"/>
      <point x="475" y="531"/>
      <point x="317" y="531" type="curve" smooth="yes"/>
      <point x="151" y="531"/>
      <point x="40" y="423"/>
      <point x="40" y="275" type="curve" smooth="yes"/>
      <point x="40" y="188"/>
      <point x="107" y="125"/>
      <point x="198" y="125" type="curve" smooth="yes"/>
      <point x="290" y="125"/>
      <point x="357" y="186"/>
      <point x="357" y="271" type="curve" smooth="yes"/>
      <point x="357" y="353"/>
      <point x="292" y="412"/>
      <point x="203" y="412" type="curve" smooth="yes"/>
      <point x="116" y="412"/>
      <point x="52" y="345"/>
      <point x="52" y="273" type="curve"/>
      <point x="86" y="273" type="line"/>
      <point x="86" y="331"/>
      <point x="135" y="374"/>
      <point x="203" y="374" type="curve" smooth="yes"/>
      <point x="264" y="374"/>
      <point x="309" y="330"/>
      <point x="309" y="271" type="curve" smooth="yes"/>
      <point x="309" y="211"/>
      <point x="262" y="167"/>
      <point x="198" y="167" type="curve" smooth="yes"/>
      <point x="133" y="167"/>
      <point x="86" y="210"/>
      <point x="86" y="273" type="curve" smooth="yes"/>
      <point x="86" y="401"/>
      <point x="177" y="489"/>
      <point x="317" y="489" type="curve" smooth="yes"/>
      <point x="450" y="489"/>
      <point x="541" y="401"/>
      <point x="541" y="273" type="curve" smooth="yes"/>
      <point x="541" y="135"/>
      <point x="449" y="35"/>
      <point x="316" y="35" type="curve" smooth="yes"/>
    </contour>
    <contour>
      <point x="731" y="284" type="curve" smooth="yes"/>
      <point x="731" y="401"/>
      <point x="818" y="487"/>
      <point x="945" y="487" type="curve" smooth="yes"/>
      <point x="1071" y="487"/>
      <point x="1163" y="395"/>
      <point x="1163" y="268" type="curve" smooth="yes"/>
      <point x="1163" y="90" type="line"/>
      <point x="1207" y="90" type="line"/>
      <point x="1207" y="478" type="line"/>
      <point x="1433" y="478" type="line"/>
      <point x="1433" y="90" type="line"/>
      <point x="1477" y="90" type="line"/>
      <point x="1477" y="478" type="line"/>
      <point x="1644" y="478" type="line"/>
      <point x="1639" y="513" type="line"/>
      <point x="1163" y="513" type="line"/>
      <point x="1163" y="409" type="line"/>
      <point x="1120" y="482"/>
      <point x="1042" y="529"/>
      <point x="945" y="529" type="curve" smooth="yes"/>
      <point x="791" y="529"/>
      <point x="684" y="427"/>
      <point x="684" y="284" type="curve" smooth="yes"/>
      <point x="684" y="172"/>
      <point x="764" y="75"/>
      <point x="923" y="75" type="curve" smooth="yes"/>
      <point x="1005" y="75"/>
      <point x="1064" y="131"/>
      <point x="1064" y="208" type="curve" smooth="yes"/>
      <point x="1064" y="287"/>
      <point x="1005" y="345"/>
      <point x="923" y="345" type="curve" smooth="yes"/>
      <point x="842" y="345"/>
      <point x="783" y="288"/>
      <point x="783" y="210" type="curve" smooth="yes"/>
      <point x="783" y="137"/>
      <point x="842" y="84"/>
      <point x="923" y="84" type="curve"/>
      <point x="923" y="110" type="line"/>
      <point x="866" y="110"/>
      <point x="826" y="152"/>
      <point x="826" y="210" type="curve" smooth="yes"/>
      <point x="826" y="266"/>
      <point x="866" y="306"/>
      <point x="923" y="306" type="curve" smooth="yes"/>
      <point x="980" y="306"/>
      <point x="1020" y="265"/>
      <point x="1020" y="208" type="curve" smooth="yes"/>
      <point x="1020" y="151"/>
      <point x="980" y="110"/>
      <point x="923" y="110" type="curve" smooth="yes"/>
      <point x="788" y="110"/>
      <point x="731" y="189"/>
    </contour>
  </outline>
</glyph>
<glyph name="tm_Ee" format="2">
  <advance width="839"/>
  <unicode hex="0B8F"/>
  <outline>
    <contour>
      <point x="108" y="237" type="curve" smooth="yes"/>
      <point x="108" y="382"/>
      <point x="205" y="478"/>
      <point x="394" y="478" type="curve" smooth="yes"/>
      <point x="584" y="478" type="line"/>
      <point x="584" y="20" type="line" smooth="yes"/>
      <point x="584" y="-44"/>
      <point x="572" y="-64"/>
      <point x="520" y="-86" type="curve" smooth="yes"/>
      <point x="222" y="-215" type="line"/>
      <point x="243" y="-250" type="line"/>
      <point x="560" y="-115" type="line" smooth="yes"/>
      <point x="622" y="-89"/>
      <point x="628" y="-52"/>
      <point x="628" y="26" type="curve" smooth="yes"/>
      <point x="628" y="478" type="line"/>
      <point x="829" y="478" type="line"/>
      <point x="824" y="513" type="line"/>
      <point x="385" y="513" type="line" smooth="yes"/>
      <point x="173" y="513"/>
      <point x="60" y="402"/>
      <point x="60" y="237" type="curve" smooth="yes"/>
      <point x="60" y="89"/>
      <point x="168" y="-18"/>
      <point x="339" y="-18" type="curve" smooth="yes"/>
      <point x="436" y="-18"/>
      <point x="507" y="47"/>
      <point x="507" y="137" type="curve" smooth="yes"/>
      <point x="507" y="230"/>
      <point x="436" y="296"/>
      <point x="339" y="296" type="curve" smooth="yes"/>
      <point x="244" y="296"/>
      <point x="175" y="230"/>
      <point x="175" y="139" type="curve" smooth="yes"/>
      <point x="175" y="106"/>
      <point x="185" y="76"/>
      <point x="203" y="53" type="curve"/>
      <point x="142" y="91"/>
      <point x="108" y="157"/>
    </contour>
    <contour>
      <point x="218" y="139" type="curve" smooth="yes"/>
      <point x="218" y="208"/>
      <point x="269" y="257"/>
      <point x="339" y="257" type="curve" smooth="yes"/>
      <point x="409" y="257"/>
      <point x="460" y="207"/>
      <point x="460" y="137" type="curve" smooth="yes"/>
      <point x="460" y="68"/>
      <point x="409" y="17"/>
      <point x="339" y="17" type="curve" smooth="yes"/>
      <point x="269" y="17"/>
      <point x="218" y="68"/>
    </contour>
  </outline>
</glyph>
<glyph name="tm_Ai" format="2">
  <advance width="841"/>
  <unicode hex="0B90"/>
  <outline>
    <contour>
      <point x="719" y="-50" type="curve" smooth="yes"/>
      <point x="719" y="-118"/>
      <point x="676" y="-163"/>
      <point x="591" y="-163" type="curve" smooth="yes"/>
      <point x="504" y="-163"/>
      <point x="449" y="-104"/>
      <point x="449" y="-17" type="curve" smooth="yes"/>
      <point x="449" y="52" type="line"/>
      <point x="405" y="52" type="line"/>
      <point x="405" y="-17" type="line" smooth="yes"/>
      <point x="405" y="-104"/>
      <point x="341" y="-163"/>
      <point x="249" y="-163" type="curve" smooth="yes"/>
      <point x="164" y="-163"/>
      <point x="108" y="-110"/>
      <point x="108" y="-32" type="curve" smooth="yes"/>
      <point x="109" y="65"/>
      <point x="209" y="115"/>
      <point x="330" y="131" type="curve" smooth="yes"/>
      <point x="511" y="156" type="line" smooth="yes"/>
      <point x="680" y="178"/>
      <point x="781" y="233"/>
      <point x="781" y="358" type="curve" smooth="yes"/>
      <point x="781" y="458"/>
      <point x="707" y="531"/>
      <point x="605" y="531" type="curve" smooth="yes"/>
      <point x="515" y="531"/>
      <point x="461" y="479"/>
      <point x="426" y="412" type="curve"/>
      <point x="426" y="368" type="line"/>
      <point x="454" y="368" type="line"/>
      <point x="454" y="412" type="line"/>
      <point x="419" y="479"/>
      <point x="362" y="531"/>
      <point x="271" y="531" type="curve" smooth="yes"/>
      <point x="153" y="531"/>
      <point x="67" y="452"/>
      <point x="67" y="342" type="curve" smooth="yes"/>
      <point x="67" y="286"/>
      <point x="110" y="246"/>
      <point x="170" y="245" type="curve" smooth="yes"/>
      <point x="230" y="244"/>
      <point x="274" y="284"/>
      <point x="275" y="338" type="curve" smooth="yes"/>
      <point x="277" y="396"/>
      <point x="235" y="437"/>
      <point x="173" y="437" type="curve" smooth="yes"/>
      <point x="119" y="437"/>
      <point x="80" y="396"/>
      <point x="81" y="338" type="curve"/>
      <point x="111" y="339" type="line"/>
      <point x="110" y="374"/>
      <point x="136" y="401"/>
      <point x="172" y="401" type="curve" smooth="yes"/>
      <point x="207" y="401"/>
      <point x="232" y="374"/>
      <point x="232" y="338" type="curve" smooth="yes"/>
      <point x="231" y="304"/>
      <point x="205" y="280"/>
      <point x="170" y="280" type="curve" smooth="yes"/>
      <point x="136" y="280"/>
      <point x="111" y="305"/>
      <point x="111" y="339" type="curve" smooth="yes"/>
      <point x="111" y="428"/>
      <point x="166" y="489"/>
      <point x="271" y="489" type="curve" smooth="yes"/>
      <point x="357" y="489"/>
      <point x="419" y="429"/>
      <point x="419" y="343" type="curve" smooth="yes"/>
      <point x="419" y="274" type="line"/>
      <point x="463" y="274" type="line"/>
      <point x="463" y="343" type="line" smooth="yes"/>
      <point x="463" y="429"/>
      <point x="523" y="489"/>
      <point x="605" y="489" type="curve" smooth="yes"/>
      <point x="682" y="489"/>
      <point x="733" y="436"/>
      <point x="733" y="358" type="curve" smooth="yes"/>
      <point x="732" y="261"/>
      <point x="633" y="210"/>
      <point x="511" y="194" type="curve" smooth="yes"/>
      <point x="330" y="170" type="line" smooth="yes"/>
      <point x="164" y="148"/>
      <point x="60" y="89"/>
      <point x="60" y="-32" type="curve" smooth="yes"/>
      <point x="60" y="-132"/>
      <point x="138" y="-205"/>
      <point x="249" y="-205" type="curve" smooth="yes"/>
      <point x="359" y="-205"/>
      <point x="407" y="-153"/>
      <point x="442" y="-86" type="curve"/>
      <point x="442" y="-30" type="line"/>
      <point x="412" y="-32" type="line"/>
      <point x="412" y="-86" type="line"/>
      <point x="446" y="-153"/>
      <point x="489" y="-205"/>
      <point x="591" y="-205" type="curve" smooth="yes"/>
      <point x="702" y="-205"/>
      <point x="767" y="-140"/>
      <point x="767" y="-50" type="curve" smooth="yes"/>
      <point x="767" y="10"/>
      <point x="752" y="50"/>
      <point x="729" y="101" type="curve"/>
      <point x="684" y="95" type="line"/>
      <point x="705" y="50"/>
      <point x="719" y="-8"/>
    </contour>
  </outline>
</glyph>
<glyph name="tm_O" format="2">
  <advance width="819"/>
  <unicode hex="0B92"/>
  <outline>
    <contour>
      <point x="409" y="534" type="curve" smooth="yes"/>
      <point x="207" y="534"/>
      <point x="60" y="423"/>
      <point x="60" y="269" type="curve" smooth="yes"/>
      <point x="60" y="172"/>
      <point x="126" y="102"/>
      <point x="217" y="102" type="curve" smooth="yes"/>
      <point x="287" y="102"/>
      <point x="337" y="149"/>
      <point x="337" y="213" type="curve" smooth="yes"/>
      <point x="337" y="280"/>
      <point x="288" y="328"/>
      <point x="220" y="328" type="curve" smooth="yes"/>
      <point x="154" y="328"/>
      <point x="106" y="281"/>
      <point x="106" y="215" type="curve" smooth="yes"/>
      <point x="106" y="152"/>
      <point x="153" y="106"/>
      <point x="217" y="106" type="curve"/>
      <point x="217" y="140" type="line"/>
      <point x="173" y="140"/>
      <point x="141" y="171"/>
      <point x="141" y="212" type="curve" smooth="yes"/>
      <point x="141" y="257"/>
      <point x="174" y="288"/>
      <point x="219" y="288" type="curve" smooth="yes"/>
      <point x="262" y="288"/>
      <point x="292" y="257"/>
      <point x="292" y="213" type="curve" smooth="yes"/>
      <point x="291" y="171"/>
      <point x="260" y="140"/>
      <point x="217" y="140" type="curve" smooth="yes"/>
      <point x="149" y="140"/>
      <point x="104" y="193"/>
      <point x="104" y="269" type="curve" smooth="yes"/>
      <point x="104" y="398"/>
      <point x="232" y="491"/>
      <point x="409" y="491" type="curve" smooth="yes"/>
      <point x="583" y="491"/>
      <point x="710" y="403"/>
      <point x="711" y="282" type="curve" smooth="yes"/>
      <point x="711" y="214"/>
      <point x="688" y="168"/>
      <point x="629" y="168" type="curve" smooth="yes"/>
      <point x="580" y="168"/>
      <point x="543" y="209"/>
      <point x="541" y="269" type="curve"/>
      <point x="506" y="269" type="line"/>
      <point x="506" y="186"/>
      <point x="558" y="126"/>
      <point x="629" y="126" type="curve" smooth="yes"/>
      <point x="714" y="126"/>
      <point x="759" y="192"/>
      <point x="759" y="282" type="curve" smooth="yes"/>
      <point x="759" y="428"/>
      <point x="612" y="534"/>
    </contour>
    <contour>
      <point x="720" y="-35" type="line"/>
      <point x="720" y="0" type="line"/>
      <point x="661" y="0" type="line" smooth="yes"/>
      <point x="571" y="0"/>
      <point x="536" y="47"/>
      <point x="536" y="133" type="curve" smooth="yes"/>
      <point x="536" y="269" type="line"/>
      <point x="497" y="269" type="line"/>
      <point x="497" y="133" type="line" smooth="yes"/>
      <point x="497" y="27"/>
      <point x="546" y="-35"/>
      <point x="661" y="-35" type="curve" smooth="yes"/>
    </contour>
    <contour>
      <point x="414" y="-180" type="curve" smooth="yes"/>
      <point x="336" y="-180"/>
      <point x="279" y="-125"/>
      <point x="279" y="-50" type="curve" smooth="yes"/>
      <point x="279" y="0" type="line"/>
      <point x="235" y="0" type="line"/>
      <point x="235" y="-50" type="line" smooth="yes"/>
      <point x="235" y="-148"/>
      <point x="310" y="-219"/>
      <point x="414" y="-219" type="curve" smooth="yes"/>
      <point x="518" y="-219"/>
      <point x="593" y="-148"/>
      <point x="593" y="-50" type="curve" smooth="yes"/>
      <point x="593" y="0" type="line"/>
      <point x="549" y="19" type="line"/>
      <point x="549" y="-50" type="line" smooth="yes"/>
      <point x="549" y="-125"/>
      <point x="492" y="-180"/>
    </contour>
  </outline>
</glyph>
<glyph name="tm_Oo" format="2">
  <advance width="819"/>
  <unicode hex="0B93"/>
  <outline>
    <contour>
      <point x="720" y="0" type="line"/>
      <point x="661" y="0" type="line" smooth="yes"/>
      <point x="571" y="0"/>
      <point x="536" y="47"/>
      <point x="536" y="133" type="curve" smooth="yes"/>
      <point x="536" y="172" type="line"/>
      <point x="558" y="143"/>
      <point x="591" y="126"/>
      <point x="629" y="126" type="curve" smooth="yes"/>
      <point x="714" y="126"/>
      <point x="759" y="192"/>
      <point x="759" y="282" type="curve" smooth="yes"/>
      <point x="759" y="428"/>
      <point x="612" y="534"/>
      <point x="409" y="534" type="curve" smooth="yes"/>
      <point x="207" y="534"/>
      <point x="60" y="423"/>
      <point x="60" y="269" type="curve" smooth="yes"/>
      <point x="60" y="172"/>
      <point x="126" y="102"/>
      <point x="217" y="102" type="curve" smooth="yes"/>
      <point x="287" y="102"/>
      <point x="337" y="149"/>
      <point x="337" y="213" type="curve" smooth="yes"/>
      <point x="337" y="280"/>
      <point x="288" y="328"/>
      <point x="220" y="328" type="curve" smooth="yes"/>
      <point x="161" y="328"/>
      <point x="116" y="290"/>
      <point x="107" y="234" type="curve"/>
      <point x="85" y="379"/>
      <point x="215.53488372093025" y="491.0"/>
      <point x="409" y="491" type="curve" smooth="yes"/>
      <point x="583" y="491"/>
      <point x="710" y="403"/>
      <point x="711" y="282" type="curve" smooth="yes"/>
      <point x="711" y="214"/>
      <point x="688" y="168"/>
      <point x="629" y="168" type="curve" smooth="yes"/>
      <point x="580" y="168"/>
      <point x="543" y="209"/>
      <point x="541" y="269" type="curve"/>
      <point x="497" y="269" type="line"/>
      <point x="497" y="133" type="line" smooth="yes"/>
      <point x="497" y="72"/>
      <point x="513" y="25"/>
      <point x="549" y="-3" type="curve"/>
      <point x="549" y="-50" type="line" smooth="yes"/>
      <point x="549" y="-125"/>
      <point x="481" y="-180"/>
      <point x="387" y="-180" type="curve" smooth="yes"/>
      <point x="303" y="-180"/>
      <point x="242" y="-141"/>
      <point x="242" y="-86" type="curve" smooth="yes"/>
      <point x="242" y="-44"/>
      <point x="273" y="-14"/>
      <point x="317" y="-14" type="curve" smooth="yes"/>
      <point x="338" y="-14" type="line"/>
      <point x="338" y="21" type="line"/>
      <point x="317" y="21" type="line" smooth="yes"/>
      <point x="248" y="21"/>
      <point x="198" y="-24"/>
      <point x="198" y="-86" type="curve" smooth="yes"/>
      <point x="198" y="-163"/>
      <point x="277" y="-219"/>
      <point x="387" y="-219" type="curve" smooth="yes"/>
      <point x="506" y="-219"/>
      <point x="593" y="-148"/>
      <point x="593" y="-50" type="curve" smooth="yes"/>
      <point x="593" y="-26" type="line"/>
      <point x="613" y="-32"/>
      <point x="635" y="-35"/>
      <point x="661" y="-35" type="curve" smooth="yes"/>
      <point x="720" y="-35" type="line"/>
    </contour>
    <contour>
      <point x="141" y="212" type="curve" smooth="yes"/>
      <point x="141" y="257"/>
      <point x="174" y="288"/>
      <point x="219" y="288" type="curve" smooth="yes"/>
      <point x="262" y="288"/>
      <point x="292" y="257"/>
      <point x="292" y="213" type="curve" smooth="yes"/>
      <point x="291" y="171"/>
      <point x="260" y="140"/>
      <point x="217" y="140" type="curve" smooth="yes"/>
      <point x="173" y="140"/>
      <point x="141" y="171"/>
    </contour>
  </outline>
</glyph>
<glyph name="tm_Nga" format="2">
  <advance width="948"/>
  <unicode hex="0B99"/>
  <outline>
    <contour>
      <point x="386" y="478" type="line"/>
      <point x="587" y="478" type="line"/>
      <point x="582" y="513" type="line"/>
      <point x="100" y="513" type="line"/>
      <point x="100" y="0" type="line"/>
      <point x="144" y="0" type="line"/>
      <point x="144" y="478" type="line"/>
      <point x="342" y="478" type="line"/>
      <point x="342" y="142" type="line"/>
      <point x="386" y="142" type="line"/>
    </contour>
    <contour>
      <point x="848" y="513" type="line"/>
      <point x="804" y="513" type="line"/>
      <point x="804" y="35" type="line"/>
      <point x="342" y="35" type="line"/>
      <point x="342" y="0" type="line"/>
      <point x="848" y="0" type="line"/>
    </contour>
    <contour>
      <point x="621" y="197" type="curve" smooth="yes"/>
      <point x="621" y="104"/>
      <point x="554" y="35"/>
      <point x="460" y="35" type="curve"/>
      <point x="460" y="5" type="line"/>
      <point x="588" y="5"/>
      <point x="669" y="75"/>
      <point x="669" y="195" type="curve" smooth="yes"/>
      <point x="669" y="291"/>
      <point x="612" y="365"/>
      <point x="514" y="365" type="curve" smooth="yes"/>
      <point x="418" y="365"/>
      <point x="348" y="290"/>
      <point x="348" y="187" type="curve"/>
      <point x="386" y="187" type="line"/>
      <point x="386" y="266"/>
      <point x="438" y="322"/>
      <point x="511" y="322" type="curve" smooth="yes"/>
      <point x="581" y="322"/>
      <point x="621" y="268"/>
    </contour>
  </outline>
</glyph>
<glyph name="tm_Ca" format="2">
  <advance width="667"/>
  <unicode hex="0B9A"/>
  <outline>
    <contour>
      <point x="453" y="205" type="curve" smooth="yes"/>
      <point x="453" y="478" type="line"/>
      <point x="627" y="478" type="line"/>
      <point x="622" y="513" type="line"/>
      <point x="167" y="513" type="line"/>
      <point x="167" y="263" type="line"/>
      <point x="211" y="263" type="line"/>
      <point x="211" y="478" type="line"/>
      <point x="409" y="478" type="line"/>
      <point x="409" y="205" type="line" smooth="yes"/>
      <point x="409" y="84"/>
      <point x="336" y="24"/>
      <point x="236" y="24" type="curve" smooth="yes"/>
      <point x="149" y="24"/>
      <point x="98" y="68"/>
      <point x="98" y="135" type="curve" smooth="yes"/>
      <point x="98" y="203"/>
      <point x="143" y="252"/>
      <point x="226" y="252" type="curve" smooth="yes"/>
      <point x="627" y="252" type="line"/>
      <point x="622" y="287" type="line"/>
      <point x="225" y="287" type="line" smooth="yes"/>
      <point x="114" y="287"/>
      <point x="50" y="223"/>
      <point x="50" y="136" type="curve" smooth="yes"/>
      <point x="50" y="47"/>
      <point x="123" y="-18"/>
      <point x="236" y="-18" type="curve" smooth="yes"/>
      <point x="361" y="-18"/>
      <point x="453" y="58"/>
    </contour>
  </outline>
</glyph>
